G04 #@! TF.GenerationSoftware,KiCad,Pcbnew,5.0.2-bee76a0~70~ubuntu16.04.1*
G04 #@! TF.CreationDate,2018-12-09T14:19:21+01:00*
G04 #@! TF.ProjectId,STM32Node,53544d33-324e-46f6-9465-2e6b69636164,rev?*
G04 #@! TF.SameCoordinates,Original*
G04 #@! TF.FileFunction,Legend,Top*
G04 #@! TF.FilePolarity,Positive*
%FSLAX46Y46*%
G04 Gerber Fmt 4.6, Leading zero omitted, Abs format (unit mm)*
G04 Created by KiCad (PCBNEW 5.0.2-bee76a0~70~ubuntu16.04.1) date So 09 Dez 2018 14:19:21 CET*
%MOMM*%
%LPD*%
G01*
G04 APERTURE LIST*
%ADD10C,0.275000*%
%ADD11C,0.300000*%
%ADD12C,0.100000*%
%ADD13C,0.150000*%
%ADD14C,0.120000*%
G04 APERTURE END LIST*
D10*
X227931904Y-129647142D02*
X228770000Y-129647142D01*
X228350952Y-130218571D02*
X228350952Y-129075714D01*
X229189047Y-128718571D02*
X229870000Y-128718571D01*
X229503333Y-129290000D01*
X229660476Y-129290000D01*
X229765238Y-129361428D01*
X229817619Y-129432857D01*
X229870000Y-129575714D01*
X229870000Y-129932857D01*
X229817619Y-130075714D01*
X229765238Y-130147142D01*
X229660476Y-130218571D01*
X229346190Y-130218571D01*
X229241428Y-130147142D01*
X229189047Y-130075714D01*
X230184285Y-128718571D02*
X230550952Y-130218571D01*
X230917619Y-128718571D01*
X231179523Y-128718571D02*
X231860476Y-128718571D01*
X231493809Y-129290000D01*
X231650952Y-129290000D01*
X231755714Y-129361428D01*
X231808095Y-129432857D01*
X231860476Y-129575714D01*
X231860476Y-129932857D01*
X231808095Y-130075714D01*
X231755714Y-130147142D01*
X231650952Y-130218571D01*
X231336666Y-130218571D01*
X231231904Y-130147142D01*
X231179523Y-130075714D01*
D11*
X228727142Y-126250000D02*
X228584285Y-126178571D01*
X228370000Y-126178571D01*
X228155714Y-126250000D01*
X228012857Y-126392857D01*
X227941428Y-126535714D01*
X227870000Y-126821428D01*
X227870000Y-127035714D01*
X227941428Y-127321428D01*
X228012857Y-127464285D01*
X228155714Y-127607142D01*
X228370000Y-127678571D01*
X228512857Y-127678571D01*
X228727142Y-127607142D01*
X228798571Y-127535714D01*
X228798571Y-127035714D01*
X228512857Y-127035714D01*
X229441428Y-127678571D02*
X229441428Y-126178571D01*
X230298571Y-127678571D01*
X230298571Y-126178571D01*
X231012857Y-127678571D02*
X231012857Y-126178571D01*
X231370000Y-126178571D01*
X231584285Y-126250000D01*
X231727142Y-126392857D01*
X231798571Y-126535714D01*
X231870000Y-126821428D01*
X231870000Y-127035714D01*
X231798571Y-127321428D01*
X231727142Y-127464285D01*
X231584285Y-127607142D01*
X231370000Y-127678571D01*
X231012857Y-127678571D01*
X227941428Y-124567142D02*
X229084285Y-124567142D01*
X228512857Y-125138571D02*
X228512857Y-123995714D01*
X230512857Y-123638571D02*
X229798571Y-123638571D01*
X229727142Y-124352857D01*
X229798571Y-124281428D01*
X229941428Y-124210000D01*
X230298571Y-124210000D01*
X230441428Y-124281428D01*
X230512857Y-124352857D01*
X230584285Y-124495714D01*
X230584285Y-124852857D01*
X230512857Y-124995714D01*
X230441428Y-125067142D01*
X230298571Y-125138571D01*
X229941428Y-125138571D01*
X229798571Y-125067142D01*
X229727142Y-124995714D01*
X231012857Y-123638571D02*
X231512857Y-125138571D01*
X232012857Y-123638571D01*
X224817857Y-121812857D02*
X225032142Y-121884285D01*
X225103571Y-121955714D01*
X225175000Y-122098571D01*
X225175000Y-122312857D01*
X225103571Y-122455714D01*
X225032142Y-122527142D01*
X224889285Y-122598571D01*
X224317857Y-122598571D01*
X224317857Y-121098571D01*
X224817857Y-121098571D01*
X224960714Y-121170000D01*
X225032142Y-121241428D01*
X225103571Y-121384285D01*
X225103571Y-121527142D01*
X225032142Y-121670000D01*
X224960714Y-121741428D01*
X224817857Y-121812857D01*
X224317857Y-121812857D01*
X225889285Y-122598571D02*
X226175000Y-122598571D01*
X226317857Y-122527142D01*
X226389285Y-122455714D01*
X226532142Y-122241428D01*
X226603571Y-121955714D01*
X226603571Y-121384285D01*
X226532142Y-121241428D01*
X226460714Y-121170000D01*
X226317857Y-121098571D01*
X226032142Y-121098571D01*
X225889285Y-121170000D01*
X225817857Y-121241428D01*
X225746428Y-121384285D01*
X225746428Y-121741428D01*
X225817857Y-121884285D01*
X225889285Y-121955714D01*
X226032142Y-122027142D01*
X226317857Y-122027142D01*
X226460714Y-121955714D01*
X226532142Y-121884285D01*
X226603571Y-121741428D01*
X224817857Y-119272857D02*
X225032142Y-119344285D01*
X225103571Y-119415714D01*
X225175000Y-119558571D01*
X225175000Y-119772857D01*
X225103571Y-119915714D01*
X225032142Y-119987142D01*
X224889285Y-120058571D01*
X224317857Y-120058571D01*
X224317857Y-118558571D01*
X224817857Y-118558571D01*
X224960714Y-118630000D01*
X225032142Y-118701428D01*
X225103571Y-118844285D01*
X225103571Y-118987142D01*
X225032142Y-119130000D01*
X224960714Y-119201428D01*
X224817857Y-119272857D01*
X224317857Y-119272857D01*
X226032142Y-119201428D02*
X225889285Y-119130000D01*
X225817857Y-119058571D01*
X225746428Y-118915714D01*
X225746428Y-118844285D01*
X225817857Y-118701428D01*
X225889285Y-118630000D01*
X226032142Y-118558571D01*
X226317857Y-118558571D01*
X226460714Y-118630000D01*
X226532142Y-118701428D01*
X226603571Y-118844285D01*
X226603571Y-118915714D01*
X226532142Y-119058571D01*
X226460714Y-119130000D01*
X226317857Y-119201428D01*
X226032142Y-119201428D01*
X225889285Y-119272857D01*
X225817857Y-119344285D01*
X225746428Y-119487142D01*
X225746428Y-119772857D01*
X225817857Y-119915714D01*
X225889285Y-119987142D01*
X226032142Y-120058571D01*
X226317857Y-120058571D01*
X226460714Y-119987142D01*
X226532142Y-119915714D01*
X226603571Y-119772857D01*
X226603571Y-119487142D01*
X226532142Y-119344285D01*
X226460714Y-119272857D01*
X226317857Y-119201428D01*
X224817857Y-116732857D02*
X225032142Y-116804285D01*
X225103571Y-116875714D01*
X225175000Y-117018571D01*
X225175000Y-117232857D01*
X225103571Y-117375714D01*
X225032142Y-117447142D01*
X224889285Y-117518571D01*
X224317857Y-117518571D01*
X224317857Y-116018571D01*
X224817857Y-116018571D01*
X224960714Y-116090000D01*
X225032142Y-116161428D01*
X225103571Y-116304285D01*
X225103571Y-116447142D01*
X225032142Y-116590000D01*
X224960714Y-116661428D01*
X224817857Y-116732857D01*
X224317857Y-116732857D01*
X225675000Y-116018571D02*
X226675000Y-116018571D01*
X226032142Y-117518571D01*
X224817857Y-114192857D02*
X225032142Y-114264285D01*
X225103571Y-114335714D01*
X225175000Y-114478571D01*
X225175000Y-114692857D01*
X225103571Y-114835714D01*
X225032142Y-114907142D01*
X224889285Y-114978571D01*
X224317857Y-114978571D01*
X224317857Y-113478571D01*
X224817857Y-113478571D01*
X224960714Y-113550000D01*
X225032142Y-113621428D01*
X225103571Y-113764285D01*
X225103571Y-113907142D01*
X225032142Y-114050000D01*
X224960714Y-114121428D01*
X224817857Y-114192857D01*
X224317857Y-114192857D01*
X226460714Y-113478571D02*
X226175000Y-113478571D01*
X226032142Y-113550000D01*
X225960714Y-113621428D01*
X225817857Y-113835714D01*
X225746428Y-114121428D01*
X225746428Y-114692857D01*
X225817857Y-114835714D01*
X225889285Y-114907142D01*
X226032142Y-114978571D01*
X226317857Y-114978571D01*
X226460714Y-114907142D01*
X226532142Y-114835714D01*
X226603571Y-114692857D01*
X226603571Y-114335714D01*
X226532142Y-114192857D01*
X226460714Y-114121428D01*
X226317857Y-114050000D01*
X226032142Y-114050000D01*
X225889285Y-114121428D01*
X225817857Y-114192857D01*
X225746428Y-114335714D01*
X224817857Y-111652857D02*
X225032142Y-111724285D01*
X225103571Y-111795714D01*
X225175000Y-111938571D01*
X225175000Y-112152857D01*
X225103571Y-112295714D01*
X225032142Y-112367142D01*
X224889285Y-112438571D01*
X224317857Y-112438571D01*
X224317857Y-110938571D01*
X224817857Y-110938571D01*
X224960714Y-111010000D01*
X225032142Y-111081428D01*
X225103571Y-111224285D01*
X225103571Y-111367142D01*
X225032142Y-111510000D01*
X224960714Y-111581428D01*
X224817857Y-111652857D01*
X224317857Y-111652857D01*
X226532142Y-110938571D02*
X225817857Y-110938571D01*
X225746428Y-111652857D01*
X225817857Y-111581428D01*
X225960714Y-111510000D01*
X226317857Y-111510000D01*
X226460714Y-111581428D01*
X226532142Y-111652857D01*
X226603571Y-111795714D01*
X226603571Y-112152857D01*
X226532142Y-112295714D01*
X226460714Y-112367142D01*
X226317857Y-112438571D01*
X225960714Y-112438571D01*
X225817857Y-112367142D01*
X225746428Y-112295714D01*
X224817857Y-109112857D02*
X225032142Y-109184285D01*
X225103571Y-109255714D01*
X225175000Y-109398571D01*
X225175000Y-109612857D01*
X225103571Y-109755714D01*
X225032142Y-109827142D01*
X224889285Y-109898571D01*
X224317857Y-109898571D01*
X224317857Y-108398571D01*
X224817857Y-108398571D01*
X224960714Y-108470000D01*
X225032142Y-108541428D01*
X225103571Y-108684285D01*
X225103571Y-108827142D01*
X225032142Y-108970000D01*
X224960714Y-109041428D01*
X224817857Y-109112857D01*
X224317857Y-109112857D01*
X226460714Y-108898571D02*
X226460714Y-109898571D01*
X226103571Y-108327142D02*
X225746428Y-109398571D01*
X226675000Y-109398571D01*
X224817857Y-106572857D02*
X225032142Y-106644285D01*
X225103571Y-106715714D01*
X225175000Y-106858571D01*
X225175000Y-107072857D01*
X225103571Y-107215714D01*
X225032142Y-107287142D01*
X224889285Y-107358571D01*
X224317857Y-107358571D01*
X224317857Y-105858571D01*
X224817857Y-105858571D01*
X224960714Y-105930000D01*
X225032142Y-106001428D01*
X225103571Y-106144285D01*
X225103571Y-106287142D01*
X225032142Y-106430000D01*
X224960714Y-106501428D01*
X224817857Y-106572857D01*
X224317857Y-106572857D01*
X225675000Y-105858571D02*
X226603571Y-105858571D01*
X226103571Y-106430000D01*
X226317857Y-106430000D01*
X226460714Y-106501428D01*
X226532142Y-106572857D01*
X226603571Y-106715714D01*
X226603571Y-107072857D01*
X226532142Y-107215714D01*
X226460714Y-107287142D01*
X226317857Y-107358571D01*
X225889285Y-107358571D01*
X225746428Y-107287142D01*
X225675000Y-107215714D01*
X224274285Y-104390000D02*
X224988571Y-104390000D01*
X224131428Y-104818571D02*
X224631428Y-103318571D01*
X225131428Y-104818571D01*
X226417142Y-104818571D02*
X225560000Y-104818571D01*
X225988571Y-104818571D02*
X225988571Y-103318571D01*
X225845714Y-103532857D01*
X225702857Y-103675714D01*
X225560000Y-103747142D01*
X227774285Y-103318571D02*
X227060000Y-103318571D01*
X226988571Y-104032857D01*
X227060000Y-103961428D01*
X227202857Y-103890000D01*
X227560000Y-103890000D01*
X227702857Y-103961428D01*
X227774285Y-104032857D01*
X227845714Y-104175714D01*
X227845714Y-104532857D01*
X227774285Y-104675714D01*
X227702857Y-104747142D01*
X227560000Y-104818571D01*
X227202857Y-104818571D01*
X227060000Y-104747142D01*
X226988571Y-104675714D01*
X224274285Y-101850000D02*
X224988571Y-101850000D01*
X224131428Y-102278571D02*
X224631428Y-100778571D01*
X225131428Y-102278571D01*
X226417142Y-102278571D02*
X225560000Y-102278571D01*
X225988571Y-102278571D02*
X225988571Y-100778571D01*
X225845714Y-100992857D01*
X225702857Y-101135714D01*
X225560000Y-101207142D01*
X226988571Y-100921428D02*
X227060000Y-100850000D01*
X227202857Y-100778571D01*
X227560000Y-100778571D01*
X227702857Y-100850000D01*
X227774285Y-100921428D01*
X227845714Y-101064285D01*
X227845714Y-101207142D01*
X227774285Y-101421428D01*
X226917142Y-102278571D01*
X227845714Y-102278571D01*
X224274285Y-99310000D02*
X224988571Y-99310000D01*
X224131428Y-99738571D02*
X224631428Y-98238571D01*
X225131428Y-99738571D01*
X226417142Y-99738571D02*
X225560000Y-99738571D01*
X225988571Y-99738571D02*
X225988571Y-98238571D01*
X225845714Y-98452857D01*
X225702857Y-98595714D01*
X225560000Y-98667142D01*
X227845714Y-99738571D02*
X226988571Y-99738571D01*
X227417142Y-99738571D02*
X227417142Y-98238571D01*
X227274285Y-98452857D01*
X227131428Y-98595714D01*
X226988571Y-98667142D01*
X224274285Y-96770000D02*
X224988571Y-96770000D01*
X224131428Y-97198571D02*
X224631428Y-95698571D01*
X225131428Y-97198571D01*
X226417142Y-97198571D02*
X225560000Y-97198571D01*
X225988571Y-97198571D02*
X225988571Y-95698571D01*
X225845714Y-95912857D01*
X225702857Y-96055714D01*
X225560000Y-96127142D01*
X227345714Y-95698571D02*
X227488571Y-95698571D01*
X227631428Y-95770000D01*
X227702857Y-95841428D01*
X227774285Y-95984285D01*
X227845714Y-96270000D01*
X227845714Y-96627142D01*
X227774285Y-96912857D01*
X227702857Y-97055714D01*
X227631428Y-97127142D01*
X227488571Y-97198571D01*
X227345714Y-97198571D01*
X227202857Y-97127142D01*
X227131428Y-97055714D01*
X227060000Y-96912857D01*
X226988571Y-96627142D01*
X226988571Y-96270000D01*
X227060000Y-95984285D01*
X227131428Y-95841428D01*
X227202857Y-95770000D01*
X227345714Y-95698571D01*
X224353571Y-94230000D02*
X225067857Y-94230000D01*
X224210714Y-94658571D02*
X224710714Y-93158571D01*
X225210714Y-94658571D01*
X225782142Y-94658571D02*
X226067857Y-94658571D01*
X226210714Y-94587142D01*
X226282142Y-94515714D01*
X226425000Y-94301428D01*
X226496428Y-94015714D01*
X226496428Y-93444285D01*
X226425000Y-93301428D01*
X226353571Y-93230000D01*
X226210714Y-93158571D01*
X225925000Y-93158571D01*
X225782142Y-93230000D01*
X225710714Y-93301428D01*
X225639285Y-93444285D01*
X225639285Y-93801428D01*
X225710714Y-93944285D01*
X225782142Y-94015714D01*
X225925000Y-94087142D01*
X226210714Y-94087142D01*
X226353571Y-94015714D01*
X226425000Y-93944285D01*
X226496428Y-93801428D01*
X224353571Y-91690000D02*
X225067857Y-91690000D01*
X224210714Y-92118571D02*
X224710714Y-90618571D01*
X225210714Y-92118571D01*
X225925000Y-91261428D02*
X225782142Y-91190000D01*
X225710714Y-91118571D01*
X225639285Y-90975714D01*
X225639285Y-90904285D01*
X225710714Y-90761428D01*
X225782142Y-90690000D01*
X225925000Y-90618571D01*
X226210714Y-90618571D01*
X226353571Y-90690000D01*
X226425000Y-90761428D01*
X226496428Y-90904285D01*
X226496428Y-90975714D01*
X226425000Y-91118571D01*
X226353571Y-91190000D01*
X226210714Y-91261428D01*
X225925000Y-91261428D01*
X225782142Y-91332857D01*
X225710714Y-91404285D01*
X225639285Y-91547142D01*
X225639285Y-91832857D01*
X225710714Y-91975714D01*
X225782142Y-92047142D01*
X225925000Y-92118571D01*
X226210714Y-92118571D01*
X226353571Y-92047142D01*
X226425000Y-91975714D01*
X226496428Y-91832857D01*
X226496428Y-91547142D01*
X226425000Y-91404285D01*
X226353571Y-91332857D01*
X226210714Y-91261428D01*
X224738571Y-88792857D02*
X224952857Y-88864285D01*
X225024285Y-88935714D01*
X225095714Y-89078571D01*
X225095714Y-89292857D01*
X225024285Y-89435714D01*
X224952857Y-89507142D01*
X224810000Y-89578571D01*
X224238571Y-89578571D01*
X224238571Y-88078571D01*
X224738571Y-88078571D01*
X224881428Y-88150000D01*
X224952857Y-88221428D01*
X225024285Y-88364285D01*
X225024285Y-88507142D01*
X224952857Y-88650000D01*
X224881428Y-88721428D01*
X224738571Y-88792857D01*
X224238571Y-88792857D01*
X226524285Y-89578571D02*
X225667142Y-89578571D01*
X226095714Y-89578571D02*
X226095714Y-88078571D01*
X225952857Y-88292857D01*
X225810000Y-88435714D01*
X225667142Y-88507142D01*
X227881428Y-88078571D02*
X227167142Y-88078571D01*
X227095714Y-88792857D01*
X227167142Y-88721428D01*
X227310000Y-88650000D01*
X227667142Y-88650000D01*
X227810000Y-88721428D01*
X227881428Y-88792857D01*
X227952857Y-88935714D01*
X227952857Y-89292857D01*
X227881428Y-89435714D01*
X227810000Y-89507142D01*
X227667142Y-89578571D01*
X227310000Y-89578571D01*
X227167142Y-89507142D01*
X227095714Y-89435714D01*
X224738571Y-86252857D02*
X224952857Y-86324285D01*
X225024285Y-86395714D01*
X225095714Y-86538571D01*
X225095714Y-86752857D01*
X225024285Y-86895714D01*
X224952857Y-86967142D01*
X224810000Y-87038571D01*
X224238571Y-87038571D01*
X224238571Y-85538571D01*
X224738571Y-85538571D01*
X224881428Y-85610000D01*
X224952857Y-85681428D01*
X225024285Y-85824285D01*
X225024285Y-85967142D01*
X224952857Y-86110000D01*
X224881428Y-86181428D01*
X224738571Y-86252857D01*
X224238571Y-86252857D01*
X226524285Y-87038571D02*
X225667142Y-87038571D01*
X226095714Y-87038571D02*
X226095714Y-85538571D01*
X225952857Y-85752857D01*
X225810000Y-85895714D01*
X225667142Y-85967142D01*
X227810000Y-86038571D02*
X227810000Y-87038571D01*
X227452857Y-85467142D02*
X227095714Y-86538571D01*
X228024285Y-86538571D01*
X224738571Y-83712857D02*
X224952857Y-83784285D01*
X225024285Y-83855714D01*
X225095714Y-83998571D01*
X225095714Y-84212857D01*
X225024285Y-84355714D01*
X224952857Y-84427142D01*
X224810000Y-84498571D01*
X224238571Y-84498571D01*
X224238571Y-82998571D01*
X224738571Y-82998571D01*
X224881428Y-83070000D01*
X224952857Y-83141428D01*
X225024285Y-83284285D01*
X225024285Y-83427142D01*
X224952857Y-83570000D01*
X224881428Y-83641428D01*
X224738571Y-83712857D01*
X224238571Y-83712857D01*
X226524285Y-84498571D02*
X225667142Y-84498571D01*
X226095714Y-84498571D02*
X226095714Y-82998571D01*
X225952857Y-83212857D01*
X225810000Y-83355714D01*
X225667142Y-83427142D01*
X227024285Y-82998571D02*
X227952857Y-82998571D01*
X227452857Y-83570000D01*
X227667142Y-83570000D01*
X227810000Y-83641428D01*
X227881428Y-83712857D01*
X227952857Y-83855714D01*
X227952857Y-84212857D01*
X227881428Y-84355714D01*
X227810000Y-84427142D01*
X227667142Y-84498571D01*
X227238571Y-84498571D01*
X227095714Y-84427142D01*
X227024285Y-84355714D01*
X224738571Y-81172857D02*
X224952857Y-81244285D01*
X225024285Y-81315714D01*
X225095714Y-81458571D01*
X225095714Y-81672857D01*
X225024285Y-81815714D01*
X224952857Y-81887142D01*
X224810000Y-81958571D01*
X224238571Y-81958571D01*
X224238571Y-80458571D01*
X224738571Y-80458571D01*
X224881428Y-80530000D01*
X224952857Y-80601428D01*
X225024285Y-80744285D01*
X225024285Y-80887142D01*
X224952857Y-81030000D01*
X224881428Y-81101428D01*
X224738571Y-81172857D01*
X224238571Y-81172857D01*
X226524285Y-81958571D02*
X225667142Y-81958571D01*
X226095714Y-81958571D02*
X226095714Y-80458571D01*
X225952857Y-80672857D01*
X225810000Y-80815714D01*
X225667142Y-80887142D01*
X227095714Y-80601428D02*
X227167142Y-80530000D01*
X227310000Y-80458571D01*
X227667142Y-80458571D01*
X227810000Y-80530000D01*
X227881428Y-80601428D01*
X227952857Y-80744285D01*
X227952857Y-80887142D01*
X227881428Y-81101428D01*
X227024285Y-81958571D01*
X227952857Y-81958571D01*
X217277142Y-71857857D02*
X217277142Y-70715000D01*
X217848571Y-71286428D02*
X216705714Y-71286428D01*
X216348571Y-70143571D02*
X216348571Y-69215000D01*
X216920000Y-69715000D01*
X216920000Y-69500714D01*
X216991428Y-69357857D01*
X217062857Y-69286428D01*
X217205714Y-69215000D01*
X217562857Y-69215000D01*
X217705714Y-69286428D01*
X217777142Y-69357857D01*
X217848571Y-69500714D01*
X217848571Y-69929285D01*
X217777142Y-70072142D01*
X217705714Y-70143571D01*
X216348571Y-68786428D02*
X217848571Y-68286428D01*
X216348571Y-67786428D01*
X216348571Y-67429285D02*
X216348571Y-66500714D01*
X216920000Y-67000714D01*
X216920000Y-66786428D01*
X216991428Y-66643571D01*
X217062857Y-66572142D01*
X217205714Y-66500714D01*
X217562857Y-66500714D01*
X217705714Y-66572142D01*
X217777142Y-66643571D01*
X217848571Y-66786428D01*
X217848571Y-67215000D01*
X217777142Y-67357857D01*
X217705714Y-67429285D01*
X215165714Y-70814285D02*
X215237142Y-70885714D01*
X215308571Y-71100000D01*
X215308571Y-71242857D01*
X215237142Y-71457142D01*
X215094285Y-71600000D01*
X214951428Y-71671428D01*
X214665714Y-71742857D01*
X214451428Y-71742857D01*
X214165714Y-71671428D01*
X214022857Y-71600000D01*
X213880000Y-71457142D01*
X213808571Y-71242857D01*
X213808571Y-71100000D01*
X213880000Y-70885714D01*
X213951428Y-70814285D01*
X215308571Y-69385714D02*
X215308571Y-70242857D01*
X215308571Y-69814285D02*
X213808571Y-69814285D01*
X214022857Y-69957142D01*
X214165714Y-70100000D01*
X214237142Y-70242857D01*
X213808571Y-68885714D02*
X213808571Y-67957142D01*
X214380000Y-68457142D01*
X214380000Y-68242857D01*
X214451428Y-68100000D01*
X214522857Y-68028571D01*
X214665714Y-67957142D01*
X215022857Y-67957142D01*
X215165714Y-68028571D01*
X215237142Y-68100000D01*
X215308571Y-68242857D01*
X215308571Y-68671428D01*
X215237142Y-68814285D01*
X215165714Y-68885714D01*
X212340000Y-71556428D02*
X212340000Y-70842142D01*
X212768571Y-71699285D02*
X211268571Y-71199285D01*
X212768571Y-70699285D01*
X211268571Y-69913571D02*
X211268571Y-69770714D01*
X211340000Y-69627857D01*
X211411428Y-69556428D01*
X211554285Y-69485000D01*
X211840000Y-69413571D01*
X212197142Y-69413571D01*
X212482857Y-69485000D01*
X212625714Y-69556428D01*
X212697142Y-69627857D01*
X212768571Y-69770714D01*
X212768571Y-69913571D01*
X212697142Y-70056428D01*
X212625714Y-70127857D01*
X212482857Y-70199285D01*
X212197142Y-70270714D01*
X211840000Y-70270714D01*
X211554285Y-70199285D01*
X211411428Y-70127857D01*
X211340000Y-70056428D01*
X211268571Y-69913571D01*
X209800000Y-71556428D02*
X209800000Y-70842142D01*
X210228571Y-71699285D02*
X208728571Y-71199285D01*
X210228571Y-70699285D01*
X210228571Y-69413571D02*
X210228571Y-70270714D01*
X210228571Y-69842142D02*
X208728571Y-69842142D01*
X208942857Y-69985000D01*
X209085714Y-70127857D01*
X209157142Y-70270714D01*
X207260000Y-71556428D02*
X207260000Y-70842142D01*
X207688571Y-71699285D02*
X206188571Y-71199285D01*
X207688571Y-70699285D01*
X206331428Y-70270714D02*
X206260000Y-70199285D01*
X206188571Y-70056428D01*
X206188571Y-69699285D01*
X206260000Y-69556428D01*
X206331428Y-69485000D01*
X206474285Y-69413571D01*
X206617142Y-69413571D01*
X206831428Y-69485000D01*
X207688571Y-70342142D01*
X207688571Y-69413571D01*
X204720000Y-71556428D02*
X204720000Y-70842142D01*
X205148571Y-71699285D02*
X203648571Y-71199285D01*
X205148571Y-70699285D01*
X203648571Y-70342142D02*
X203648571Y-69413571D01*
X204220000Y-69913571D01*
X204220000Y-69699285D01*
X204291428Y-69556428D01*
X204362857Y-69485000D01*
X204505714Y-69413571D01*
X204862857Y-69413571D01*
X205005714Y-69485000D01*
X205077142Y-69556428D01*
X205148571Y-69699285D01*
X205148571Y-70127857D01*
X205077142Y-70270714D01*
X205005714Y-70342142D01*
X202180000Y-71556428D02*
X202180000Y-70842142D01*
X202608571Y-71699285D02*
X201108571Y-71199285D01*
X202608571Y-70699285D01*
X201608571Y-69556428D02*
X202608571Y-69556428D01*
X201037142Y-69913571D02*
X202108571Y-70270714D01*
X202108571Y-69342142D01*
X199640000Y-71556428D02*
X199640000Y-70842142D01*
X200068571Y-71699285D02*
X198568571Y-71199285D01*
X200068571Y-70699285D01*
X198568571Y-69485000D02*
X198568571Y-70199285D01*
X199282857Y-70270714D01*
X199211428Y-70199285D01*
X199140000Y-70056428D01*
X199140000Y-69699285D01*
X199211428Y-69556428D01*
X199282857Y-69485000D01*
X199425714Y-69413571D01*
X199782857Y-69413571D01*
X199925714Y-69485000D01*
X199997142Y-69556428D01*
X200068571Y-69699285D01*
X200068571Y-70056428D01*
X199997142Y-70199285D01*
X199925714Y-70270714D01*
X197100000Y-71556428D02*
X197100000Y-70842142D01*
X197528571Y-71699285D02*
X196028571Y-71199285D01*
X197528571Y-70699285D01*
X196028571Y-69556428D02*
X196028571Y-69842142D01*
X196100000Y-69985000D01*
X196171428Y-70056428D01*
X196385714Y-70199285D01*
X196671428Y-70270714D01*
X197242857Y-70270714D01*
X197385714Y-70199285D01*
X197457142Y-70127857D01*
X197528571Y-69985000D01*
X197528571Y-69699285D01*
X197457142Y-69556428D01*
X197385714Y-69485000D01*
X197242857Y-69413571D01*
X196885714Y-69413571D01*
X196742857Y-69485000D01*
X196671428Y-69556428D01*
X196600000Y-69699285D01*
X196600000Y-69985000D01*
X196671428Y-70127857D01*
X196742857Y-70199285D01*
X196885714Y-70270714D01*
X194560000Y-71556428D02*
X194560000Y-70842142D01*
X194988571Y-71699285D02*
X193488571Y-71199285D01*
X194988571Y-70699285D01*
X193488571Y-70342142D02*
X193488571Y-69342142D01*
X194988571Y-69985000D01*
X191662857Y-71092142D02*
X191734285Y-70877857D01*
X191805714Y-70806428D01*
X191948571Y-70735000D01*
X192162857Y-70735000D01*
X192305714Y-70806428D01*
X192377142Y-70877857D01*
X192448571Y-71020714D01*
X192448571Y-71592142D01*
X190948571Y-71592142D01*
X190948571Y-71092142D01*
X191020000Y-70949285D01*
X191091428Y-70877857D01*
X191234285Y-70806428D01*
X191377142Y-70806428D01*
X191520000Y-70877857D01*
X191591428Y-70949285D01*
X191662857Y-71092142D01*
X191662857Y-71592142D01*
X190948571Y-69806428D02*
X190948571Y-69663571D01*
X191020000Y-69520714D01*
X191091428Y-69449285D01*
X191234285Y-69377857D01*
X191520000Y-69306428D01*
X191877142Y-69306428D01*
X192162857Y-69377857D01*
X192305714Y-69449285D01*
X192377142Y-69520714D01*
X192448571Y-69663571D01*
X192448571Y-69806428D01*
X192377142Y-69949285D01*
X192305714Y-70020714D01*
X192162857Y-70092142D01*
X191877142Y-70163571D01*
X191520000Y-70163571D01*
X191234285Y-70092142D01*
X191091428Y-70020714D01*
X191020000Y-69949285D01*
X190948571Y-69806428D01*
X189122857Y-71092142D02*
X189194285Y-70877857D01*
X189265714Y-70806428D01*
X189408571Y-70735000D01*
X189622857Y-70735000D01*
X189765714Y-70806428D01*
X189837142Y-70877857D01*
X189908571Y-71020714D01*
X189908571Y-71592142D01*
X188408571Y-71592142D01*
X188408571Y-71092142D01*
X188480000Y-70949285D01*
X188551428Y-70877857D01*
X188694285Y-70806428D01*
X188837142Y-70806428D01*
X188980000Y-70877857D01*
X189051428Y-70949285D01*
X189122857Y-71092142D01*
X189122857Y-71592142D01*
X189908571Y-69306428D02*
X189908571Y-70163571D01*
X189908571Y-69735000D02*
X188408571Y-69735000D01*
X188622857Y-69877857D01*
X188765714Y-70020714D01*
X188837142Y-70163571D01*
X184042857Y-71171428D02*
X184114285Y-70957142D01*
X184185714Y-70885714D01*
X184328571Y-70814285D01*
X184542857Y-70814285D01*
X184685714Y-70885714D01*
X184757142Y-70957142D01*
X184828571Y-71100000D01*
X184828571Y-71671428D01*
X183328571Y-71671428D01*
X183328571Y-71171428D01*
X183400000Y-71028571D01*
X183471428Y-70957142D01*
X183614285Y-70885714D01*
X183757142Y-70885714D01*
X183900000Y-70957142D01*
X183971428Y-71028571D01*
X184042857Y-71171428D01*
X184042857Y-71671428D01*
X184828571Y-69385714D02*
X184828571Y-70242857D01*
X184828571Y-69814285D02*
X183328571Y-69814285D01*
X183542857Y-69957142D01*
X183685714Y-70100000D01*
X183757142Y-70242857D01*
X184828571Y-67957142D02*
X184828571Y-68814285D01*
X184828571Y-68385714D02*
X183328571Y-68385714D01*
X183542857Y-68528571D01*
X183685714Y-68671428D01*
X183757142Y-68814285D01*
X182288571Y-70758571D02*
X181574285Y-71258571D01*
X182288571Y-71615714D02*
X180788571Y-71615714D01*
X180788571Y-71044285D01*
X180860000Y-70901428D01*
X180931428Y-70830000D01*
X181074285Y-70758571D01*
X181288571Y-70758571D01*
X181431428Y-70830000D01*
X181502857Y-70901428D01*
X181574285Y-71044285D01*
X181574285Y-71615714D01*
X181502857Y-70115714D02*
X181502857Y-69615714D01*
X182288571Y-69401428D02*
X182288571Y-70115714D01*
X180788571Y-70115714D01*
X180788571Y-69401428D01*
X182217142Y-68830000D02*
X182288571Y-68615714D01*
X182288571Y-68258571D01*
X182217142Y-68115714D01*
X182145714Y-68044285D01*
X182002857Y-67972857D01*
X181860000Y-67972857D01*
X181717142Y-68044285D01*
X181645714Y-68115714D01*
X181574285Y-68258571D01*
X181502857Y-68544285D01*
X181431428Y-68687142D01*
X181360000Y-68758571D01*
X181217142Y-68830000D01*
X181074285Y-68830000D01*
X180931428Y-68758571D01*
X180860000Y-68687142D01*
X180788571Y-68544285D01*
X180788571Y-68187142D01*
X180860000Y-67972857D01*
X181502857Y-67330000D02*
X181502857Y-66830000D01*
X182288571Y-66615714D02*
X182288571Y-67330000D01*
X180788571Y-67330000D01*
X180788571Y-66615714D01*
X180788571Y-66187142D02*
X180788571Y-65330000D01*
X182288571Y-65758571D02*
X180788571Y-65758571D01*
X186582857Y-71171428D02*
X186654285Y-70957142D01*
X186725714Y-70885714D01*
X186868571Y-70814285D01*
X187082857Y-70814285D01*
X187225714Y-70885714D01*
X187297142Y-70957142D01*
X187368571Y-71100000D01*
X187368571Y-71671428D01*
X185868571Y-71671428D01*
X185868571Y-71171428D01*
X185940000Y-71028571D01*
X186011428Y-70957142D01*
X186154285Y-70885714D01*
X186297142Y-70885714D01*
X186440000Y-70957142D01*
X186511428Y-71028571D01*
X186582857Y-71171428D01*
X186582857Y-71671428D01*
X187368571Y-69385714D02*
X187368571Y-70242857D01*
X187368571Y-69814285D02*
X185868571Y-69814285D01*
X186082857Y-69957142D01*
X186225714Y-70100000D01*
X186297142Y-70242857D01*
X185868571Y-68457142D02*
X185868571Y-68314285D01*
X185940000Y-68171428D01*
X186011428Y-68100000D01*
X186154285Y-68028571D01*
X186440000Y-67957142D01*
X186797142Y-67957142D01*
X187082857Y-68028571D01*
X187225714Y-68100000D01*
X187297142Y-68171428D01*
X187368571Y-68314285D01*
X187368571Y-68457142D01*
X187297142Y-68600000D01*
X187225714Y-68671428D01*
X187082857Y-68742857D01*
X186797142Y-68814285D01*
X186440000Y-68814285D01*
X186154285Y-68742857D01*
X186011428Y-68671428D01*
X185940000Y-68600000D01*
X185868571Y-68457142D01*
X179177142Y-71857857D02*
X179177142Y-70715000D01*
X179748571Y-71286428D02*
X178605714Y-71286428D01*
X178248571Y-70143571D02*
X178248571Y-69215000D01*
X178820000Y-69715000D01*
X178820000Y-69500714D01*
X178891428Y-69357857D01*
X178962857Y-69286428D01*
X179105714Y-69215000D01*
X179462857Y-69215000D01*
X179605714Y-69286428D01*
X179677142Y-69357857D01*
X179748571Y-69500714D01*
X179748571Y-69929285D01*
X179677142Y-70072142D01*
X179605714Y-70143571D01*
X178248571Y-68786428D02*
X179748571Y-68286428D01*
X178248571Y-67786428D01*
X178248571Y-67429285D02*
X178248571Y-66500714D01*
X178820000Y-67000714D01*
X178820000Y-66786428D01*
X178891428Y-66643571D01*
X178962857Y-66572142D01*
X179105714Y-66500714D01*
X179462857Y-66500714D01*
X179605714Y-66572142D01*
X179677142Y-66643571D01*
X179748571Y-66786428D01*
X179748571Y-67215000D01*
X179677142Y-67357857D01*
X179605714Y-67429285D01*
X175780000Y-70992857D02*
X175708571Y-71135714D01*
X175708571Y-71350000D01*
X175780000Y-71564285D01*
X175922857Y-71707142D01*
X176065714Y-71778571D01*
X176351428Y-71850000D01*
X176565714Y-71850000D01*
X176851428Y-71778571D01*
X176994285Y-71707142D01*
X177137142Y-71564285D01*
X177208571Y-71350000D01*
X177208571Y-71207142D01*
X177137142Y-70992857D01*
X177065714Y-70921428D01*
X176565714Y-70921428D01*
X176565714Y-71207142D01*
X177208571Y-70278571D02*
X175708571Y-70278571D01*
X177208571Y-69421428D01*
X175708571Y-69421428D01*
X177208571Y-68707142D02*
X175708571Y-68707142D01*
X175708571Y-68350000D01*
X175780000Y-68135714D01*
X175922857Y-67992857D01*
X176065714Y-67921428D01*
X176351428Y-67850000D01*
X176565714Y-67850000D01*
X176851428Y-67921428D01*
X176994285Y-67992857D01*
X177137142Y-68135714D01*
X177208571Y-68350000D01*
X177208571Y-68707142D01*
X173240000Y-70992857D02*
X173168571Y-71135714D01*
X173168571Y-71350000D01*
X173240000Y-71564285D01*
X173382857Y-71707142D01*
X173525714Y-71778571D01*
X173811428Y-71850000D01*
X174025714Y-71850000D01*
X174311428Y-71778571D01*
X174454285Y-71707142D01*
X174597142Y-71564285D01*
X174668571Y-71350000D01*
X174668571Y-71207142D01*
X174597142Y-70992857D01*
X174525714Y-70921428D01*
X174025714Y-70921428D01*
X174025714Y-71207142D01*
X174668571Y-70278571D02*
X173168571Y-70278571D01*
X174668571Y-69421428D01*
X173168571Y-69421428D01*
X174668571Y-68707142D02*
X173168571Y-68707142D01*
X173168571Y-68350000D01*
X173240000Y-68135714D01*
X173382857Y-67992857D01*
X173525714Y-67921428D01*
X173811428Y-67850000D01*
X174025714Y-67850000D01*
X174311428Y-67921428D01*
X174454285Y-67992857D01*
X174597142Y-68135714D01*
X174668571Y-68350000D01*
X174668571Y-68707142D01*
D12*
G04 #@! TO.C,U2*
X246880000Y-69080000D02*
X238760000Y-69080000D01*
X232760000Y-52840000D02*
X230640000Y-52840000D01*
X230640000Y-52840000D02*
X230640000Y-53010000D01*
X246880000Y-52840000D02*
X244760000Y-52840000D01*
X246880000Y-52840000D02*
X246880000Y-53010000D01*
X232760000Y-69080000D02*
X230640000Y-69080000D01*
X230640000Y-69080000D02*
X230640000Y-68910000D01*
D13*
G04 #@! TO.C,U1*
X229570000Y-78740000D02*
X229570000Y-132080000D01*
X252430000Y-132080000D02*
X252430000Y-78740000D01*
X229570000Y-132080000D02*
X252430000Y-132080000D01*
X252430000Y-78740000D02*
X229570000Y-78740000D01*
D14*
G04 #@! TO.C,C1*
X226820000Y-61122779D02*
X226820000Y-60797221D01*
X227840000Y-61122779D02*
X227840000Y-60797221D01*
G04 #@! TO.C,J1*
X220920000Y-82550000D02*
X223580000Y-82550000D01*
X220920000Y-82550000D02*
X220920000Y-130870000D01*
X220920000Y-130870000D02*
X223580000Y-130870000D01*
X223580000Y-82550000D02*
X223580000Y-130870000D01*
X223580000Y-79950000D02*
X223580000Y-81280000D01*
X222250000Y-79950000D02*
X223580000Y-79950000D01*
G04 #@! TO.C,J2*
X215900000Y-72330000D02*
X215900000Y-74990000D01*
X215900000Y-72330000D02*
X172660000Y-72330000D01*
X172660000Y-72330000D02*
X172660000Y-74990000D01*
X215900000Y-74990000D02*
X172660000Y-74990000D01*
X218500000Y-74990000D02*
X217170000Y-74990000D01*
X218500000Y-73660000D02*
X218500000Y-74990000D01*
G04 #@! TO.C,J3*
X226290000Y-53705000D02*
X226790000Y-53705000D01*
X226290000Y-55105000D02*
X226790000Y-55105000D01*
X226290000Y-55105000D02*
X226290000Y-55705000D01*
X226290000Y-55705000D02*
X226090000Y-55905000D01*
X226090000Y-52905000D02*
X226290000Y-52905000D01*
X226290000Y-52905000D02*
X226290000Y-53705000D01*
X223290000Y-53705000D02*
X223290000Y-52905000D01*
X223290000Y-52905000D02*
X223490000Y-52905000D01*
X223490000Y-55905000D02*
X223290000Y-55905000D01*
X223290000Y-55905000D02*
X223290000Y-55105000D01*
G04 #@! TO.C,J4*
X224730000Y-125730000D02*
X227390000Y-125730000D01*
X224730000Y-125730000D02*
X224730000Y-130870000D01*
X224730000Y-130870000D02*
X227390000Y-130870000D01*
X227390000Y-125730000D02*
X227390000Y-130870000D01*
X227390000Y-123130000D02*
X227390000Y-124460000D01*
X226060000Y-123130000D02*
X227390000Y-123130000D01*
G04 #@! TD*
D12*
G04 #@! TO.C,U1*
X234092000Y-81280000D02*
G75*
G03X234092000Y-81280000I-712000J0D01*
G01*
X234092000Y-83820000D02*
G75*
G03X234092000Y-83820000I-712000J0D01*
G01*
X234092000Y-86360000D02*
G75*
G03X234092000Y-86360000I-712000J0D01*
G01*
X234092000Y-88900000D02*
G75*
G03X234092000Y-88900000I-712000J0D01*
G01*
X234092000Y-91440000D02*
G75*
G03X234092000Y-91440000I-712000J0D01*
G01*
X234092000Y-93980000D02*
G75*
G03X234092000Y-93980000I-712000J0D01*
G01*
X234092000Y-96520000D02*
G75*
G03X234092000Y-96520000I-712000J0D01*
G01*
X234092000Y-99060000D02*
G75*
G03X234092000Y-99060000I-712000J0D01*
G01*
X234092000Y-101600000D02*
G75*
G03X234092000Y-101600000I-712000J0D01*
G01*
X234092000Y-104140000D02*
G75*
G03X234092000Y-104140000I-712000J0D01*
G01*
X234092000Y-106680000D02*
G75*
G03X234092000Y-106680000I-712000J0D01*
G01*
X234092000Y-109220000D02*
G75*
G03X234092000Y-109220000I-712000J0D01*
G01*
X234092000Y-111760000D02*
G75*
G03X234092000Y-111760000I-712000J0D01*
G01*
X234092000Y-114300000D02*
G75*
G03X234092000Y-114300000I-712000J0D01*
G01*
X234092000Y-116840000D02*
G75*
G03X234092000Y-116840000I-712000J0D01*
G01*
X234092000Y-119380000D02*
G75*
G03X234092000Y-119380000I-712000J0D01*
G01*
X234092000Y-121920000D02*
G75*
G03X234092000Y-121920000I-712000J0D01*
G01*
X234092000Y-124460000D02*
G75*
G03X234092000Y-124460000I-712000J0D01*
G01*
X234092000Y-127000000D02*
G75*
G03X234092000Y-127000000I-712000J0D01*
G01*
X234092000Y-129540000D02*
G75*
G03X234092000Y-129540000I-712000J0D01*
G01*
X249332000Y-129540000D02*
G75*
G03X249332000Y-129540000I-712000J0D01*
G01*
X249332000Y-127000000D02*
G75*
G03X249332000Y-127000000I-712000J0D01*
G01*
X249332000Y-124460000D02*
G75*
G03X249332000Y-124460000I-712000J0D01*
G01*
X249332000Y-121920000D02*
G75*
G03X249332000Y-121920000I-712000J0D01*
G01*
X249332000Y-119380000D02*
G75*
G03X249332000Y-119380000I-712000J0D01*
G01*
X249332000Y-116840000D02*
G75*
G03X249332000Y-116840000I-712000J0D01*
G01*
X249332000Y-114300000D02*
G75*
G03X249332000Y-114300000I-712000J0D01*
G01*
X249332000Y-111760000D02*
G75*
G03X249332000Y-111760000I-712000J0D01*
G01*
X249332000Y-109220000D02*
G75*
G03X249332000Y-109220000I-712000J0D01*
G01*
X249332000Y-106680000D02*
G75*
G03X249332000Y-106680000I-712000J0D01*
G01*
X249332000Y-104140000D02*
G75*
G03X249332000Y-104140000I-712000J0D01*
G01*
X249332000Y-101600000D02*
G75*
G03X249332000Y-101600000I-712000J0D01*
G01*
X249332000Y-99060000D02*
G75*
G03X249332000Y-99060000I-712000J0D01*
G01*
X249332000Y-96520000D02*
G75*
G03X249332000Y-96520000I-712000J0D01*
G01*
X249332000Y-93980000D02*
G75*
G03X249332000Y-93980000I-712000J0D01*
G01*
X249332000Y-91440000D02*
G75*
G03X249332000Y-91440000I-712000J0D01*
G01*
X249332000Y-88900000D02*
G75*
G03X249332000Y-88900000I-712000J0D01*
G01*
X249332000Y-86360000D02*
G75*
G03X249332000Y-86360000I-712000J0D01*
G01*
X249332000Y-83820000D02*
G75*
G03X249332000Y-83820000I-712000J0D01*
G01*
X249332000Y-81280000D02*
G75*
G03X249332000Y-81280000I-712000J0D01*
G01*
G04 #@! TD*
G04 #@! TO.C,U2*
D13*
X244998095Y-69912380D02*
X244998095Y-70721904D01*
X245045714Y-70817142D01*
X245093333Y-70864761D01*
X245188571Y-70912380D01*
X245379047Y-70912380D01*
X245474285Y-70864761D01*
X245521904Y-70817142D01*
X245569523Y-70721904D01*
X245569523Y-69912380D01*
X245998095Y-70007619D02*
X246045714Y-69960000D01*
X246140952Y-69912380D01*
X246379047Y-69912380D01*
X246474285Y-69960000D01*
X246521904Y-70007619D01*
X246569523Y-70102857D01*
X246569523Y-70198095D01*
X246521904Y-70340952D01*
X245950476Y-70912380D01*
X246569523Y-70912380D01*
G04 #@! TO.C,U1*
X239738095Y-76922380D02*
X239738095Y-77731904D01*
X239785714Y-77827142D01*
X239833333Y-77874761D01*
X239928571Y-77922380D01*
X240119047Y-77922380D01*
X240214285Y-77874761D01*
X240261904Y-77827142D01*
X240309523Y-77731904D01*
X240309523Y-76922380D01*
X240738095Y-77874761D02*
X240880952Y-77922380D01*
X241119047Y-77922380D01*
X241214285Y-77874761D01*
X241261904Y-77827142D01*
X241309523Y-77731904D01*
X241309523Y-77636666D01*
X241261904Y-77541428D01*
X241214285Y-77493809D01*
X241119047Y-77446190D01*
X240928571Y-77398571D01*
X240833333Y-77350952D01*
X240785714Y-77303333D01*
X240738095Y-77208095D01*
X240738095Y-77112857D01*
X240785714Y-77017619D01*
X240833333Y-76970000D01*
X240928571Y-76922380D01*
X241166666Y-76922380D01*
X241309523Y-76970000D01*
X242071428Y-77398571D02*
X242214285Y-77446190D01*
X242261904Y-77493809D01*
X242309523Y-77589047D01*
X242309523Y-77731904D01*
X242261904Y-77827142D01*
X242214285Y-77874761D01*
X242119047Y-77922380D01*
X241738095Y-77922380D01*
X241738095Y-76922380D01*
X242071428Y-76922380D01*
X242166666Y-76970000D01*
X242214285Y-77017619D01*
X242261904Y-77112857D01*
X242261904Y-77208095D01*
X242214285Y-77303333D01*
X242166666Y-77350952D01*
X242071428Y-77398571D01*
X241738095Y-77398571D01*
G04 #@! TO.C,C1*
X226257142Y-61126666D02*
X226304761Y-61174285D01*
X226352380Y-61317142D01*
X226352380Y-61412380D01*
X226304761Y-61555238D01*
X226209523Y-61650476D01*
X226114285Y-61698095D01*
X225923809Y-61745714D01*
X225780952Y-61745714D01*
X225590476Y-61698095D01*
X225495238Y-61650476D01*
X225400000Y-61555238D01*
X225352380Y-61412380D01*
X225352380Y-61317142D01*
X225400000Y-61174285D01*
X225447619Y-61126666D01*
X226352380Y-60174285D02*
X226352380Y-60745714D01*
X226352380Y-60460000D02*
X225352380Y-60460000D01*
X225495238Y-60555238D01*
X225590476Y-60650476D01*
X225638095Y-60745714D01*
G04 #@! TO.C,J1*
X221916666Y-77962380D02*
X221916666Y-78676666D01*
X221869047Y-78819523D01*
X221773809Y-78914761D01*
X221630952Y-78962380D01*
X221535714Y-78962380D01*
X222916666Y-78962380D02*
X222345238Y-78962380D01*
X222630952Y-78962380D02*
X222630952Y-77962380D01*
X222535714Y-78105238D01*
X222440476Y-78200476D01*
X222345238Y-78248095D01*
G04 #@! TO.C,J2*
X219392380Y-73993333D02*
X220106666Y-73993333D01*
X220249523Y-74040952D01*
X220344761Y-74136190D01*
X220392380Y-74279047D01*
X220392380Y-74374285D01*
X219487619Y-73564761D02*
X219440000Y-73517142D01*
X219392380Y-73421904D01*
X219392380Y-73183809D01*
X219440000Y-73088571D01*
X219487619Y-73040952D01*
X219582857Y-72993333D01*
X219678095Y-72993333D01*
X219820952Y-73040952D01*
X220392380Y-73612380D01*
X220392380Y-72993333D01*
G04 #@! TO.C,J3*
X227742380Y-54738333D02*
X228456666Y-54738333D01*
X228599523Y-54785952D01*
X228694761Y-54881190D01*
X228742380Y-55024047D01*
X228742380Y-55119285D01*
X227742380Y-54357380D02*
X227742380Y-53738333D01*
X228123333Y-54071666D01*
X228123333Y-53928809D01*
X228170952Y-53833571D01*
X228218571Y-53785952D01*
X228313809Y-53738333D01*
X228551904Y-53738333D01*
X228647142Y-53785952D01*
X228694761Y-53833571D01*
X228742380Y-53928809D01*
X228742380Y-54214523D01*
X228694761Y-54309761D01*
X228647142Y-54357380D01*
G04 #@! TO.C,J4*
X225726666Y-131532380D02*
X225726666Y-132246666D01*
X225679047Y-132389523D01*
X225583809Y-132484761D01*
X225440952Y-132532380D01*
X225345714Y-132532380D01*
X226631428Y-131865714D02*
X226631428Y-132532380D01*
X226393333Y-131484761D02*
X226155238Y-132199047D01*
X226774285Y-132199047D01*
G04 #@! TD*
M02*
