G04 #@! TF.GenerationSoftware,KiCad,Pcbnew,5.0.2-bee76a0~70~ubuntu16.04.1*
G04 #@! TF.CreationDate,2018-12-09T14:19:21+01:00*
G04 #@! TF.ProjectId,STM32Node,53544d33-324e-46f6-9465-2e6b69636164,rev?*
G04 #@! TF.SameCoordinates,Original*
G04 #@! TF.FileFunction,Copper,L1,Top*
G04 #@! TF.FilePolarity,Positive*
%FSLAX46Y46*%
G04 Gerber Fmt 4.6, Leading zero omitted, Abs format (unit mm)*
G04 Created by KiCad (PCBNEW 5.0.2-bee76a0~70~ubuntu16.04.1) date So 09 Dez 2018 14:19:21 CET*
%MOMM*%
%LPD*%
G01*
G04 APERTURE LIST*
G04 #@! TA.AperFunction,SMDPad,CuDef*
%ADD10R,2.000000X1.000000*%
G04 #@! TD*
G04 #@! TA.AperFunction,ComponentPad*
%ADD11C,1.524000*%
G04 #@! TD*
G04 #@! TA.AperFunction,Conductor*
%ADD12C,0.100000*%
G04 #@! TD*
G04 #@! TA.AperFunction,SMDPad,CuDef*
%ADD13C,0.875000*%
G04 #@! TD*
G04 #@! TA.AperFunction,ComponentPad*
%ADD14R,1.700000X1.700000*%
G04 #@! TD*
G04 #@! TA.AperFunction,ComponentPad*
%ADD15O,1.700000X1.700000*%
G04 #@! TD*
G04 #@! TA.AperFunction,SMDPad,CuDef*
%ADD16R,2.200000X1.050000*%
G04 #@! TD*
G04 #@! TA.AperFunction,SMDPad,CuDef*
%ADD17R,1.000000X1.000000*%
G04 #@! TD*
G04 #@! TA.AperFunction,ComponentPad*
%ADD18C,2.000000*%
G04 #@! TD*
G04 #@! TA.AperFunction,ViaPad*
%ADD19C,0.685800*%
G04 #@! TD*
G04 #@! TA.AperFunction,Conductor*
%ADD20C,0.305000*%
G04 #@! TD*
G04 #@! TA.AperFunction,Conductor*
%ADD21C,0.254000*%
G04 #@! TD*
G04 APERTURE END LIST*
D10*
G04 #@! TO.P,U2,1*
G04 #@! TO.N,GND*
X246760000Y-67960000D03*
G04 #@! TO.P,U2,2*
G04 #@! TO.N,/B14*
X246760000Y-65960000D03*
G04 #@! TO.P,U2,3*
G04 #@! TO.N,/B15*
X246760000Y-63960000D03*
G04 #@! TO.P,U2,4*
G04 #@! TO.N,/B13*
X246760000Y-61960000D03*
G04 #@! TO.P,U2,5*
G04 #@! TO.N,/B12*
X246760000Y-59960000D03*
G04 #@! TO.P,U2,6*
G04 #@! TO.N,/A8*
X246760000Y-57960000D03*
G04 #@! TO.P,U2,7*
G04 #@! TO.N,Net-(U2-Pad7)*
X246760000Y-55960000D03*
G04 #@! TO.P,U2,8*
G04 #@! TO.N,GND*
X246760000Y-53960000D03*
G04 #@! TO.P,U2,9*
G04 #@! TO.N,Net-(J3-Pad1)*
X230760000Y-53960000D03*
G04 #@! TO.P,U2,10*
G04 #@! TO.N,GND*
X230760000Y-55960000D03*
G04 #@! TO.P,U2,11*
G04 #@! TO.N,Net-(U2-Pad11)*
X230760000Y-57960000D03*
G04 #@! TO.P,U2,12*
G04 #@! TO.N,Net-(U2-Pad12)*
X230760000Y-59960000D03*
G04 #@! TO.P,U2,13*
G04 #@! TO.N,+3V3*
X230760000Y-61960000D03*
G04 #@! TO.P,U2,14*
G04 #@! TO.N,/B7*
X230760000Y-63960000D03*
G04 #@! TO.P,U2,15*
G04 #@! TO.N,/B6*
X230760000Y-65960000D03*
G04 #@! TO.P,U2,16*
G04 #@! TO.N,/B5*
X230760000Y-67960000D03*
G04 #@! TD*
D11*
G04 #@! TO.P,U1,1*
G04 #@! TO.N,/B12*
X233380000Y-81280000D03*
G04 #@! TO.P,U1,2*
G04 #@! TO.N,/B13*
X233380000Y-83820000D03*
G04 #@! TO.P,U1,3*
G04 #@! TO.N,/B14*
X233380000Y-86360000D03*
G04 #@! TO.P,U1,4*
G04 #@! TO.N,/B15*
X233380000Y-88900000D03*
G04 #@! TO.P,U1,5*
G04 #@! TO.N,/A8*
X233380000Y-91440000D03*
G04 #@! TO.P,U1,6*
G04 #@! TO.N,/A9*
X233380000Y-93980000D03*
G04 #@! TO.P,U1,7*
G04 #@! TO.N,/A10*
X233380000Y-96520000D03*
G04 #@! TO.P,U1,8*
G04 #@! TO.N,/A11*
X233380000Y-99060000D03*
G04 #@! TO.P,U1,9*
G04 #@! TO.N,/A12*
X233380000Y-101600000D03*
G04 #@! TO.P,U1,10*
G04 #@! TO.N,/A15*
X233380000Y-104140000D03*
G04 #@! TO.P,U1,11*
G04 #@! TO.N,/B3*
X233380000Y-106680000D03*
G04 #@! TO.P,U1,12*
G04 #@! TO.N,/B4*
X233380000Y-109220000D03*
G04 #@! TO.P,U1,13*
G04 #@! TO.N,/B5*
X233380000Y-111760000D03*
G04 #@! TO.P,U1,14*
G04 #@! TO.N,/B6*
X233380000Y-114300000D03*
G04 #@! TO.P,U1,15*
G04 #@! TO.N,/B7*
X233380000Y-116840000D03*
G04 #@! TO.P,U1,16*
G04 #@! TO.N,/B8*
X233380000Y-119380000D03*
G04 #@! TO.P,U1,17*
G04 #@! TO.N,/B9*
X233380000Y-121920000D03*
G04 #@! TO.P,U1,18*
G04 #@! TO.N,+5V*
X233380000Y-124460000D03*
G04 #@! TO.P,U1,19*
G04 #@! TO.N,GND*
X233380000Y-127000000D03*
G04 #@! TO.P,U1,20*
G04 #@! TO.N,+3V3*
X233380000Y-129540000D03*
G04 #@! TO.P,U1,21*
X248620000Y-129540000D03*
G04 #@! TO.P,U1,22*
G04 #@! TO.N,/C13*
X248620000Y-127000000D03*
G04 #@! TO.P,U1,23*
G04 #@! TO.N,Net-(U1-Pad23)*
X248620000Y-124460000D03*
G04 #@! TO.P,U1,24*
G04 #@! TO.N,Net-(U1-Pad24)*
X248620000Y-121920000D03*
G04 #@! TO.P,U1,25*
G04 #@! TO.N,/A0*
X248620000Y-119380000D03*
G04 #@! TO.P,U1,26*
G04 #@! TO.N,/A1*
X248620000Y-116840000D03*
G04 #@! TO.P,U1,27*
G04 #@! TO.N,/A2*
X248620000Y-114300000D03*
G04 #@! TO.P,U1,28*
G04 #@! TO.N,/A3*
X248620000Y-111760000D03*
G04 #@! TO.P,U1,29*
G04 #@! TO.N,/A4*
X248620000Y-109220000D03*
G04 #@! TO.P,U1,30*
G04 #@! TO.N,/A5*
X248620000Y-106680000D03*
G04 #@! TO.P,U1,31*
G04 #@! TO.N,/A6*
X248620000Y-104140000D03*
G04 #@! TO.P,U1,32*
G04 #@! TO.N,/A7*
X248620000Y-101600000D03*
G04 #@! TO.P,U1,33*
G04 #@! TO.N,/B0*
X248620000Y-99060000D03*
G04 #@! TO.P,U1,34*
G04 #@! TO.N,/B1*
X248620000Y-96520000D03*
G04 #@! TO.P,U1,35*
G04 #@! TO.N,/B10*
X248620000Y-93980000D03*
G04 #@! TO.P,U1,36*
G04 #@! TO.N,/B11*
X248620000Y-91440000D03*
G04 #@! TO.P,U1,37*
G04 #@! TO.N,/RESET*
X248620000Y-88900000D03*
G04 #@! TO.P,U1,38*
G04 #@! TO.N,+3V3*
X248620000Y-86360000D03*
G04 #@! TO.P,U1,39*
G04 #@! TO.N,GND*
X248620000Y-83820000D03*
G04 #@! TO.P,U1,40*
X248620000Y-81280000D03*
G04 #@! TD*
D12*
G04 #@! TO.N,+3V3*
G04 #@! TO.C,C1*
G36*
X227607691Y-61311053D02*
X227628926Y-61314203D01*
X227649750Y-61319419D01*
X227669962Y-61326651D01*
X227689368Y-61335830D01*
X227707781Y-61346866D01*
X227725024Y-61359654D01*
X227740930Y-61374070D01*
X227755346Y-61389976D01*
X227768134Y-61407219D01*
X227779170Y-61425632D01*
X227788349Y-61445038D01*
X227795581Y-61465250D01*
X227800797Y-61486074D01*
X227803947Y-61507309D01*
X227805000Y-61528750D01*
X227805000Y-61966250D01*
X227803947Y-61987691D01*
X227800797Y-62008926D01*
X227795581Y-62029750D01*
X227788349Y-62049962D01*
X227779170Y-62069368D01*
X227768134Y-62087781D01*
X227755346Y-62105024D01*
X227740930Y-62120930D01*
X227725024Y-62135346D01*
X227707781Y-62148134D01*
X227689368Y-62159170D01*
X227669962Y-62168349D01*
X227649750Y-62175581D01*
X227628926Y-62180797D01*
X227607691Y-62183947D01*
X227586250Y-62185000D01*
X227073750Y-62185000D01*
X227052309Y-62183947D01*
X227031074Y-62180797D01*
X227010250Y-62175581D01*
X226990038Y-62168349D01*
X226970632Y-62159170D01*
X226952219Y-62148134D01*
X226934976Y-62135346D01*
X226919070Y-62120930D01*
X226904654Y-62105024D01*
X226891866Y-62087781D01*
X226880830Y-62069368D01*
X226871651Y-62049962D01*
X226864419Y-62029750D01*
X226859203Y-62008926D01*
X226856053Y-61987691D01*
X226855000Y-61966250D01*
X226855000Y-61528750D01*
X226856053Y-61507309D01*
X226859203Y-61486074D01*
X226864419Y-61465250D01*
X226871651Y-61445038D01*
X226880830Y-61425632D01*
X226891866Y-61407219D01*
X226904654Y-61389976D01*
X226919070Y-61374070D01*
X226934976Y-61359654D01*
X226952219Y-61346866D01*
X226970632Y-61335830D01*
X226990038Y-61326651D01*
X227010250Y-61319419D01*
X227031074Y-61314203D01*
X227052309Y-61311053D01*
X227073750Y-61310000D01*
X227586250Y-61310000D01*
X227607691Y-61311053D01*
X227607691Y-61311053D01*
G37*
D13*
G04 #@! TD*
G04 #@! TO.P,C1,1*
G04 #@! TO.N,+3V3*
X227330000Y-61747500D03*
D12*
G04 #@! TO.N,GND*
G04 #@! TO.C,C1*
G36*
X227607691Y-59736053D02*
X227628926Y-59739203D01*
X227649750Y-59744419D01*
X227669962Y-59751651D01*
X227689368Y-59760830D01*
X227707781Y-59771866D01*
X227725024Y-59784654D01*
X227740930Y-59799070D01*
X227755346Y-59814976D01*
X227768134Y-59832219D01*
X227779170Y-59850632D01*
X227788349Y-59870038D01*
X227795581Y-59890250D01*
X227800797Y-59911074D01*
X227803947Y-59932309D01*
X227805000Y-59953750D01*
X227805000Y-60391250D01*
X227803947Y-60412691D01*
X227800797Y-60433926D01*
X227795581Y-60454750D01*
X227788349Y-60474962D01*
X227779170Y-60494368D01*
X227768134Y-60512781D01*
X227755346Y-60530024D01*
X227740930Y-60545930D01*
X227725024Y-60560346D01*
X227707781Y-60573134D01*
X227689368Y-60584170D01*
X227669962Y-60593349D01*
X227649750Y-60600581D01*
X227628926Y-60605797D01*
X227607691Y-60608947D01*
X227586250Y-60610000D01*
X227073750Y-60610000D01*
X227052309Y-60608947D01*
X227031074Y-60605797D01*
X227010250Y-60600581D01*
X226990038Y-60593349D01*
X226970632Y-60584170D01*
X226952219Y-60573134D01*
X226934976Y-60560346D01*
X226919070Y-60545930D01*
X226904654Y-60530024D01*
X226891866Y-60512781D01*
X226880830Y-60494368D01*
X226871651Y-60474962D01*
X226864419Y-60454750D01*
X226859203Y-60433926D01*
X226856053Y-60412691D01*
X226855000Y-60391250D01*
X226855000Y-59953750D01*
X226856053Y-59932309D01*
X226859203Y-59911074D01*
X226864419Y-59890250D01*
X226871651Y-59870038D01*
X226880830Y-59850632D01*
X226891866Y-59832219D01*
X226904654Y-59814976D01*
X226919070Y-59799070D01*
X226934976Y-59784654D01*
X226952219Y-59771866D01*
X226970632Y-59760830D01*
X226990038Y-59751651D01*
X227010250Y-59744419D01*
X227031074Y-59739203D01*
X227052309Y-59736053D01*
X227073750Y-59735000D01*
X227586250Y-59735000D01*
X227607691Y-59736053D01*
X227607691Y-59736053D01*
G37*
D13*
G04 #@! TD*
G04 #@! TO.P,C1,2*
G04 #@! TO.N,GND*
X227330000Y-60172500D03*
D14*
G04 #@! TO.P,J1,1*
G04 #@! TO.N,/B12*
X222250000Y-81280000D03*
D15*
G04 #@! TO.P,J1,2*
G04 #@! TO.N,/B13*
X222250000Y-83820000D03*
G04 #@! TO.P,J1,3*
G04 #@! TO.N,/B14*
X222250000Y-86360000D03*
G04 #@! TO.P,J1,4*
G04 #@! TO.N,/B15*
X222250000Y-88900000D03*
G04 #@! TO.P,J1,5*
G04 #@! TO.N,/A8*
X222250000Y-91440000D03*
G04 #@! TO.P,J1,6*
G04 #@! TO.N,/A9*
X222250000Y-93980000D03*
G04 #@! TO.P,J1,7*
G04 #@! TO.N,/A10*
X222250000Y-96520000D03*
G04 #@! TO.P,J1,8*
G04 #@! TO.N,/A11*
X222250000Y-99060000D03*
G04 #@! TO.P,J1,9*
G04 #@! TO.N,/A12*
X222250000Y-101600000D03*
G04 #@! TO.P,J1,10*
G04 #@! TO.N,/A15*
X222250000Y-104140000D03*
G04 #@! TO.P,J1,11*
G04 #@! TO.N,/B3*
X222250000Y-106680000D03*
G04 #@! TO.P,J1,12*
G04 #@! TO.N,/B4*
X222250000Y-109220000D03*
G04 #@! TO.P,J1,13*
G04 #@! TO.N,/B5*
X222250000Y-111760000D03*
G04 #@! TO.P,J1,14*
G04 #@! TO.N,/B6*
X222250000Y-114300000D03*
G04 #@! TO.P,J1,15*
G04 #@! TO.N,/B7*
X222250000Y-116840000D03*
G04 #@! TO.P,J1,16*
G04 #@! TO.N,/B8*
X222250000Y-119380000D03*
G04 #@! TO.P,J1,17*
G04 #@! TO.N,/B9*
X222250000Y-121920000D03*
G04 #@! TO.P,J1,18*
G04 #@! TO.N,+5V*
X222250000Y-124460000D03*
G04 #@! TO.P,J1,19*
G04 #@! TO.N,GND*
X222250000Y-127000000D03*
G04 #@! TO.P,J1,20*
G04 #@! TO.N,+3V3*
X222250000Y-129540000D03*
G04 #@! TD*
D14*
G04 #@! TO.P,J2,1*
G04 #@! TO.N,+3V3*
X217170000Y-73660000D03*
D15*
G04 #@! TO.P,J2,2*
G04 #@! TO.N,/C13*
X214630000Y-73660000D03*
G04 #@! TO.P,J2,3*
G04 #@! TO.N,/A0*
X212090000Y-73660000D03*
G04 #@! TO.P,J2,4*
G04 #@! TO.N,/A1*
X209550000Y-73660000D03*
G04 #@! TO.P,J2,5*
G04 #@! TO.N,/A2*
X207010000Y-73660000D03*
G04 #@! TO.P,J2,6*
G04 #@! TO.N,/A3*
X204470000Y-73660000D03*
G04 #@! TO.P,J2,7*
G04 #@! TO.N,/A4*
X201930000Y-73660000D03*
G04 #@! TO.P,J2,8*
G04 #@! TO.N,/A5*
X199390000Y-73660000D03*
G04 #@! TO.P,J2,9*
G04 #@! TO.N,/A6*
X196850000Y-73660000D03*
G04 #@! TO.P,J2,10*
G04 #@! TO.N,/A7*
X194310000Y-73660000D03*
G04 #@! TO.P,J2,11*
G04 #@! TO.N,/B0*
X191770000Y-73660000D03*
G04 #@! TO.P,J2,12*
G04 #@! TO.N,/B1*
X189230000Y-73660000D03*
G04 #@! TO.P,J2,13*
G04 #@! TO.N,/B10*
X186690000Y-73660000D03*
G04 #@! TO.P,J2,14*
G04 #@! TO.N,/B11*
X184150000Y-73660000D03*
G04 #@! TO.P,J2,15*
G04 #@! TO.N,/RESET*
X181610000Y-73660000D03*
G04 #@! TO.P,J2,16*
G04 #@! TO.N,+3V3*
X179070000Y-73660000D03*
G04 #@! TO.P,J2,17*
G04 #@! TO.N,GND*
X176530000Y-73660000D03*
G04 #@! TO.P,J2,18*
X173990000Y-73660000D03*
G04 #@! TD*
D16*
G04 #@! TO.P,J3,2*
G04 #@! TO.N,GND*
X224790000Y-55880000D03*
X224790000Y-52930000D03*
D17*
X223290000Y-54405000D03*
G04 #@! TO.P,J3,1*
G04 #@! TO.N,Net-(J3-Pad1)*
X226290000Y-54405000D03*
G04 #@! TD*
D14*
G04 #@! TO.P,J4,1*
G04 #@! TO.N,+5V*
X226060000Y-124460000D03*
D15*
G04 #@! TO.P,J4,2*
G04 #@! TO.N,GND*
X226060000Y-127000000D03*
G04 #@! TO.P,J4,3*
G04 #@! TO.N,+3V3*
X226060000Y-129540000D03*
G04 #@! TD*
D18*
G04 #@! TO.P,REF\002A\002A,*
G04 #@! TO.N,*
X179070000Y-129540000D03*
X179070000Y-127000000D03*
X179070000Y-124460000D03*
X176530000Y-124460000D03*
X173990000Y-124460000D03*
X217170000Y-124460000D03*
X191770000Y-116840000D03*
X212090000Y-119380000D03*
X199390000Y-127000000D03*
X217170000Y-119380000D03*
X186690000Y-124460000D03*
X217170000Y-121920000D03*
X196850000Y-116840000D03*
X212090000Y-116840000D03*
X173990000Y-119380000D03*
X191770000Y-124460000D03*
X184150000Y-124460000D03*
X191770000Y-121920000D03*
X207010000Y-129540000D03*
X181610000Y-124460000D03*
X212090000Y-127000000D03*
X209550000Y-129540000D03*
X184150000Y-119380000D03*
X207010000Y-119380000D03*
X204470000Y-121920000D03*
X219710000Y-121920000D03*
X184150000Y-121920000D03*
X186690000Y-121920000D03*
X189230000Y-127000000D03*
X201930000Y-129540000D03*
X194310000Y-116840000D03*
X219710000Y-124460000D03*
X212090000Y-121920000D03*
X219710000Y-129540000D03*
X194310000Y-129540000D03*
X181610000Y-121920000D03*
X191770000Y-119380000D03*
X189230000Y-119380000D03*
X204470000Y-124460000D03*
X214630000Y-124460000D03*
X199390000Y-121920000D03*
X184150000Y-129540000D03*
X201930000Y-121920000D03*
X219710000Y-127000000D03*
X207010000Y-124460000D03*
X196850000Y-127000000D03*
X207010000Y-121920000D03*
X212090000Y-129540000D03*
X181610000Y-127000000D03*
X189230000Y-116840000D03*
X196850000Y-121920000D03*
X189230000Y-121920000D03*
X201930000Y-119380000D03*
X186690000Y-129540000D03*
X214630000Y-127000000D03*
X196850000Y-129540000D03*
X184150000Y-127000000D03*
X209550000Y-119380000D03*
X181610000Y-129540000D03*
X209550000Y-121920000D03*
X207010000Y-116840000D03*
X201930000Y-124460000D03*
X214630000Y-129540000D03*
X194310000Y-127000000D03*
X194310000Y-124460000D03*
X196850000Y-119380000D03*
X173990000Y-116840000D03*
X186690000Y-127000000D03*
X212090000Y-124460000D03*
X196850000Y-124460000D03*
X204470000Y-127000000D03*
X214630000Y-119380000D03*
X179070000Y-119380000D03*
X204470000Y-116840000D03*
X199390000Y-124460000D03*
X199390000Y-119380000D03*
X176530000Y-116840000D03*
X186690000Y-119380000D03*
X204470000Y-119380000D03*
X219710000Y-119380000D03*
X189230000Y-129540000D03*
X219710000Y-116840000D03*
X207010000Y-127000000D03*
X214630000Y-121920000D03*
X199390000Y-116840000D03*
X217170000Y-127000000D03*
X204470000Y-129540000D03*
X201930000Y-127000000D03*
X176530000Y-121920000D03*
X181610000Y-119380000D03*
X179070000Y-121920000D03*
X191770000Y-127000000D03*
X186690000Y-116840000D03*
X214630000Y-116840000D03*
X209550000Y-124460000D03*
X176530000Y-119380000D03*
X217170000Y-129540000D03*
X194310000Y-119380000D03*
X184150000Y-116840000D03*
X194310000Y-121920000D03*
X201930000Y-116840000D03*
X173990000Y-121920000D03*
X181610000Y-116840000D03*
X199390000Y-129540000D03*
X191770000Y-129540000D03*
X209550000Y-127000000D03*
X189230000Y-124460000D03*
X209550000Y-116840000D03*
X179070000Y-116840000D03*
X217170000Y-116840000D03*
X186690000Y-111760000D03*
X204470000Y-109220000D03*
X214630000Y-109220000D03*
X209550000Y-111760000D03*
X189230000Y-109220000D03*
X173990000Y-96520000D03*
X209550000Y-109220000D03*
X207010000Y-111760000D03*
X214630000Y-106680000D03*
X199390000Y-106680000D03*
X184150000Y-114300000D03*
X201930000Y-111760000D03*
X176530000Y-106680000D03*
X184150000Y-106680000D03*
X186690000Y-106680000D03*
X176530000Y-114300000D03*
X204470000Y-114300000D03*
X191770000Y-104140000D03*
X189230000Y-104140000D03*
X214630000Y-104140000D03*
X179070000Y-104140000D03*
X217170000Y-114300000D03*
X214630000Y-96520000D03*
X201930000Y-106680000D03*
X219710000Y-111760000D03*
X179070000Y-111760000D03*
X212090000Y-109220000D03*
X179070000Y-106680000D03*
X191770000Y-111760000D03*
X207010000Y-109220000D03*
X196850000Y-111760000D03*
X199390000Y-96520000D03*
X184150000Y-96520000D03*
X186690000Y-96520000D03*
X179070000Y-96520000D03*
X189230000Y-111760000D03*
X201930000Y-114300000D03*
X219710000Y-109220000D03*
X212090000Y-106680000D03*
X191770000Y-101600000D03*
X212090000Y-104140000D03*
X196850000Y-109220000D03*
X204470000Y-111760000D03*
X181610000Y-114300000D03*
X209550000Y-106680000D03*
X173990000Y-106680000D03*
X181610000Y-101600000D03*
X207010000Y-106680000D03*
X191770000Y-99060000D03*
X181610000Y-106680000D03*
X179070000Y-109220000D03*
X209550000Y-104140000D03*
X181610000Y-99060000D03*
X212090000Y-101600000D03*
X217170000Y-99060000D03*
X173990000Y-99060000D03*
X176530000Y-104140000D03*
X204470000Y-104140000D03*
X219710000Y-104140000D03*
X194310000Y-104140000D03*
X184150000Y-101600000D03*
X199390000Y-104140000D03*
X176530000Y-101600000D03*
X173990000Y-101600000D03*
X186690000Y-99060000D03*
X217170000Y-96520000D03*
X181610000Y-104140000D03*
X209550000Y-96520000D03*
X186690000Y-101600000D03*
X204470000Y-99060000D03*
X214630000Y-99060000D03*
X209550000Y-101600000D03*
X179070000Y-101600000D03*
X212090000Y-99060000D03*
X196850000Y-99060000D03*
X204470000Y-101600000D03*
X199390000Y-109220000D03*
X199390000Y-111760000D03*
X201930000Y-96520000D03*
X173990000Y-114300000D03*
X191770000Y-114300000D03*
X189230000Y-114300000D03*
X219710000Y-101600000D03*
X186690000Y-109220000D03*
X217170000Y-106680000D03*
X194310000Y-111760000D03*
X194310000Y-109220000D03*
X173990000Y-104140000D03*
X191770000Y-109220000D03*
X209550000Y-114300000D03*
X184150000Y-104140000D03*
X201930000Y-101600000D03*
X191770000Y-96520000D03*
X204470000Y-96520000D03*
X176530000Y-111760000D03*
X173990000Y-111760000D03*
X184150000Y-111760000D03*
X199390000Y-114300000D03*
X207010000Y-99060000D03*
X196850000Y-101600000D03*
X199390000Y-99060000D03*
X199390000Y-101600000D03*
X217170000Y-111760000D03*
X196850000Y-114300000D03*
X194310000Y-96520000D03*
X176530000Y-99060000D03*
X201930000Y-99060000D03*
X217170000Y-109220000D03*
X173990000Y-109220000D03*
X184150000Y-99060000D03*
X186690000Y-104140000D03*
X214630000Y-101600000D03*
X181610000Y-96520000D03*
X179070000Y-99060000D03*
X217170000Y-101600000D03*
X219710000Y-114300000D03*
X194310000Y-114300000D03*
X196850000Y-104140000D03*
X219710000Y-96520000D03*
X207010000Y-104140000D03*
X209550000Y-99060000D03*
X207010000Y-101600000D03*
X201930000Y-109220000D03*
X184150000Y-109220000D03*
X191770000Y-106680000D03*
X204470000Y-106680000D03*
X219710000Y-106680000D03*
X207010000Y-114300000D03*
X181610000Y-109220000D03*
X212090000Y-111760000D03*
X194310000Y-106680000D03*
X176530000Y-109220000D03*
X196850000Y-106680000D03*
X189230000Y-106680000D03*
X196850000Y-96520000D03*
X189230000Y-96520000D03*
X214630000Y-114300000D03*
X179070000Y-114300000D03*
X176530000Y-96520000D03*
X194310000Y-101600000D03*
X194310000Y-99060000D03*
X219710000Y-99060000D03*
X212090000Y-96520000D03*
X212090000Y-114300000D03*
X181610000Y-111760000D03*
X189230000Y-101600000D03*
X201930000Y-104140000D03*
X186690000Y-114300000D03*
X214630000Y-111760000D03*
X217170000Y-104140000D03*
X189230000Y-99060000D03*
X207010000Y-96520000D03*
X173990000Y-86360000D03*
X191770000Y-93980000D03*
X189230000Y-93980000D03*
X214630000Y-93980000D03*
X179070000Y-93980000D03*
X214630000Y-86360000D03*
X199390000Y-86360000D03*
X184150000Y-86360000D03*
X186690000Y-86360000D03*
X179070000Y-86360000D03*
X191770000Y-91440000D03*
X212090000Y-93980000D03*
X181610000Y-91440000D03*
X191770000Y-88900000D03*
X209550000Y-93980000D03*
X181610000Y-88900000D03*
X212090000Y-91440000D03*
X217170000Y-88900000D03*
X173990000Y-88900000D03*
X176530000Y-93980000D03*
X204470000Y-93980000D03*
X219710000Y-93980000D03*
X194310000Y-93980000D03*
X184150000Y-91440000D03*
X199390000Y-93980000D03*
X176530000Y-91440000D03*
X173990000Y-91440000D03*
X186690000Y-88900000D03*
X217170000Y-86360000D03*
X181610000Y-93980000D03*
X209550000Y-86360000D03*
X186690000Y-91440000D03*
X204470000Y-88900000D03*
X214630000Y-88900000D03*
X209550000Y-91440000D03*
X179070000Y-91440000D03*
X212090000Y-88900000D03*
X196850000Y-88900000D03*
X204470000Y-91440000D03*
X201930000Y-86360000D03*
X219710000Y-91440000D03*
X173990000Y-93980000D03*
X184150000Y-93980000D03*
X201930000Y-91440000D03*
X191770000Y-86360000D03*
X204470000Y-86360000D03*
X207010000Y-88900000D03*
X196850000Y-91440000D03*
X199390000Y-88900000D03*
X199390000Y-91440000D03*
X194310000Y-86360000D03*
X176530000Y-88900000D03*
X201930000Y-88900000D03*
X184150000Y-88900000D03*
X186690000Y-93980000D03*
X214630000Y-91440000D03*
X181610000Y-86360000D03*
X179070000Y-88900000D03*
X217170000Y-91440000D03*
X196850000Y-93980000D03*
X219710000Y-86360000D03*
X207010000Y-93980000D03*
X209550000Y-88900000D03*
X207010000Y-91440000D03*
X196850000Y-86360000D03*
X189230000Y-86360000D03*
X176530000Y-86360000D03*
X194310000Y-91440000D03*
X194310000Y-88900000D03*
X219710000Y-88900000D03*
X212090000Y-86360000D03*
X189230000Y-91440000D03*
X201930000Y-93980000D03*
X217170000Y-93980000D03*
X189230000Y-88900000D03*
X207010000Y-86360000D03*
X191770000Y-83820000D03*
X181610000Y-83820000D03*
X212090000Y-83820000D03*
X184150000Y-83820000D03*
X176530000Y-83820000D03*
X173990000Y-83820000D03*
X186690000Y-83820000D03*
X209550000Y-83820000D03*
X179070000Y-83820000D03*
X204470000Y-83820000D03*
X219710000Y-83820000D03*
X201930000Y-83820000D03*
X196850000Y-83820000D03*
X199390000Y-83820000D03*
X214630000Y-83820000D03*
X217170000Y-83820000D03*
X207010000Y-83820000D03*
X194310000Y-83820000D03*
X189230000Y-83820000D03*
X191770000Y-81280000D03*
X181610000Y-81280000D03*
X217170000Y-81280000D03*
X173990000Y-81280000D03*
X186690000Y-81280000D03*
X204470000Y-81280000D03*
X214630000Y-81280000D03*
X212090000Y-81280000D03*
X196850000Y-81280000D03*
X207010000Y-81280000D03*
X199390000Y-81280000D03*
X176530000Y-81280000D03*
X201930000Y-81280000D03*
X184150000Y-81280000D03*
X179070000Y-81280000D03*
X209550000Y-81280000D03*
X194310000Y-81280000D03*
X219710000Y-81280000D03*
X189230000Y-81280000D03*
X173990000Y-78740000D03*
X214630000Y-78740000D03*
X199390000Y-78740000D03*
X184150000Y-78740000D03*
X186690000Y-78740000D03*
X179070000Y-78740000D03*
X217170000Y-78740000D03*
X209550000Y-78740000D03*
X201930000Y-78740000D03*
X191770000Y-78740000D03*
X204470000Y-78740000D03*
X194310000Y-78740000D03*
X181610000Y-78740000D03*
X219710000Y-78740000D03*
X196850000Y-78740000D03*
X189230000Y-78740000D03*
X176530000Y-78740000D03*
X212090000Y-78740000D03*
X207010000Y-78740000D03*
X212090000Y-76200000D03*
X217170000Y-76200000D03*
X214630000Y-76200000D03*
X219710000Y-76200000D03*
X204470000Y-76200000D03*
X209550000Y-76200000D03*
X207010000Y-76200000D03*
X196850000Y-76200000D03*
X201930000Y-76200000D03*
X199390000Y-76200000D03*
X189230000Y-76200000D03*
X194310000Y-76200000D03*
X191770000Y-76200000D03*
X186690000Y-76200000D03*
X184150000Y-76200000D03*
X179070000Y-76200000D03*
X181610000Y-76200000D03*
X176530000Y-76200000D03*
X173990000Y-76200000D03*
G04 #@! TD*
D19*
G04 #@! TO.N,+3V3*
X237490000Y-129540000D03*
X224790000Y-58420000D03*
X224790000Y-69215000D03*
G04 #@! TO.N,GND*
X248920000Y-65405000D03*
X248920000Y-66675000D03*
X248920000Y-67945000D03*
X248920000Y-69215000D03*
X227330000Y-56515000D03*
X228600000Y-56515000D03*
G04 #@! TO.N,/B5*
X231140000Y-111760000D03*
X231140000Y-111760000D03*
X231140000Y-78740000D03*
G04 #@! TO.N,/B6*
X229870000Y-78740000D03*
X229870000Y-114300000D03*
G04 #@! TO.N,/B7*
X228600000Y-78740000D03*
X228600000Y-116840000D03*
G04 #@! TD*
D20*
G04 #@! TO.N,+3V3*
X222250000Y-129540000D02*
X226060000Y-129540000D01*
X226060000Y-129540000D02*
X233380000Y-129540000D01*
X233380000Y-129540000D02*
X248620000Y-129540000D01*
X227542500Y-61960000D02*
X227330000Y-61747500D01*
X230760000Y-61960000D02*
X227542500Y-61960000D01*
X224790000Y-61595000D02*
X226060000Y-61595000D01*
X224790000Y-58420000D02*
X224790000Y-61595000D01*
X224790000Y-61595000D02*
X224790000Y-69215000D01*
X226060000Y-61595000D02*
X226212500Y-61747500D01*
X226212500Y-61747500D02*
X227330000Y-61747500D01*
G04 #@! TO.N,/B12*
X222250000Y-81280000D02*
X233380000Y-81280000D01*
X236220000Y-81280000D02*
X233380000Y-81280000D01*
X246760000Y-59960000D02*
X239760000Y-59960000D01*
X239760000Y-59960000D02*
X237490000Y-62230000D01*
X237490000Y-62230000D02*
X237490000Y-80010000D01*
X237490000Y-80010000D02*
X236220000Y-81280000D01*
G04 #@! TO.N,/B13*
X222250000Y-83820000D02*
X233380000Y-83820000D01*
X237490000Y-83820000D02*
X233380000Y-83820000D01*
X246760000Y-61960000D02*
X240300000Y-61960000D01*
X240300000Y-61960000D02*
X238760000Y-63500000D01*
X238760000Y-63500000D02*
X238760000Y-82550000D01*
X238760000Y-82550000D02*
X237490000Y-83820000D01*
G04 #@! TO.N,/B14*
X233380000Y-86360000D02*
X222250000Y-86360000D01*
X235596875Y-86360000D02*
X233380000Y-86360000D01*
X238760000Y-86360000D02*
X235596875Y-86360000D01*
X241380000Y-65960000D02*
X240030000Y-67310000D01*
X240030000Y-67310000D02*
X240030000Y-85090000D01*
X246760000Y-65960000D02*
X241380000Y-65960000D01*
X240030000Y-85090000D02*
X238760000Y-86360000D01*
G04 #@! TO.N,/B15*
X222250000Y-88900000D02*
X233380000Y-88900000D01*
X250190000Y-69850000D02*
X250190000Y-64770000D01*
X248920000Y-71120000D02*
X250190000Y-69850000D01*
X242570000Y-71120000D02*
X248920000Y-71120000D01*
X233380000Y-88900000D02*
X240030000Y-88900000D01*
X240030000Y-88900000D02*
X241300000Y-87630000D01*
X241300000Y-87630000D02*
X241300000Y-72390000D01*
X241300000Y-72390000D02*
X242570000Y-71120000D01*
X249380000Y-63960000D02*
X246760000Y-63960000D01*
X250190000Y-64770000D02*
X249380000Y-63960000D01*
G04 #@! TO.N,/A8*
X222250000Y-91440000D02*
X233380000Y-91440000D01*
X250365000Y-57960000D02*
X246760000Y-57960000D01*
X250825000Y-58420000D02*
X250365000Y-57960000D01*
X250825000Y-71120000D02*
X250825000Y-58420000D01*
X249555000Y-72390000D02*
X250825000Y-71120000D01*
X243840000Y-72390000D02*
X249555000Y-72390000D01*
X233380000Y-91440000D02*
X241300000Y-91440000D01*
X242570000Y-73660000D02*
X243840000Y-72390000D01*
X241300000Y-91440000D02*
X242570000Y-90170000D01*
X242570000Y-90170000D02*
X242570000Y-73660000D01*
G04 #@! TO.N,/A9*
X229870000Y-93980000D02*
X222250000Y-93980000D01*
X233380000Y-93980000D02*
X229870000Y-93980000D01*
G04 #@! TO.N,/A10*
X228600000Y-96520000D02*
X233380000Y-96520000D01*
X222250000Y-96520000D02*
X228600000Y-96520000D01*
G04 #@! TO.N,/A11*
X222250000Y-99060000D02*
X233380000Y-99060000D01*
G04 #@! TO.N,/A12*
X222250000Y-101600000D02*
X233380000Y-101600000D01*
G04 #@! TO.N,/A15*
X233380000Y-104140000D02*
X222250000Y-104140000D01*
G04 #@! TO.N,/B3*
X233380000Y-106680000D02*
X222250000Y-106680000D01*
G04 #@! TO.N,/B4*
X222250000Y-109220000D02*
X233380000Y-109220000D01*
G04 #@! TO.N,/B5*
X233380000Y-111760000D02*
X231140000Y-111760000D01*
X231140000Y-111760000D02*
X222250000Y-111760000D01*
X227965000Y-68580000D02*
X228585000Y-67960000D01*
X227965000Y-75565000D02*
X227965000Y-68580000D01*
X228585000Y-67960000D02*
X230760000Y-67960000D01*
X231140000Y-78740000D02*
X227965000Y-75565000D01*
G04 #@! TO.N,/B6*
X230260000Y-65960000D02*
X230760000Y-65960000D01*
X227330000Y-76200000D02*
X227330000Y-66675000D01*
X229870000Y-78740000D02*
X227330000Y-76200000D01*
X228045000Y-65960000D02*
X227330000Y-66675000D01*
X230760000Y-65960000D02*
X228045000Y-65960000D01*
X222250000Y-114300000D02*
X229870000Y-114300000D01*
X229870000Y-114300000D02*
X233380000Y-114300000D01*
G04 #@! TO.N,/B7*
X226870000Y-63960000D02*
X230760000Y-63960000D01*
X226695000Y-64135000D02*
X226870000Y-63960000D01*
X226695000Y-76835000D02*
X226695000Y-64135000D01*
X228600000Y-78740000D02*
X226695000Y-76835000D01*
X233380000Y-116840000D02*
X228600000Y-116840000D01*
X228600000Y-116840000D02*
X222250000Y-116840000D01*
G04 #@! TO.N,/B8*
X233380000Y-119380000D02*
X222250000Y-119380000D01*
G04 #@! TO.N,/B9*
X222250000Y-121920000D02*
X233380000Y-121920000D01*
G04 #@! TO.N,+5V*
X222250000Y-124460000D02*
X226060000Y-124460000D01*
X226060000Y-124460000D02*
X233380000Y-124460000D01*
G04 #@! TO.N,Net-(J3-Pad1)*
X228488000Y-53960000D02*
X228043000Y-54405000D01*
X228043000Y-54405000D02*
X226290000Y-54405000D01*
X230760000Y-53960000D02*
X228488000Y-53960000D01*
G04 #@! TD*
D21*
G04 #@! TO.N,GND*
G36*
X252265000Y-132265000D02*
X170735000Y-132265000D01*
X170735000Y-128755431D01*
X171765000Y-128755431D01*
X171765000Y-129644569D01*
X172105259Y-130466026D01*
X172733974Y-131094741D01*
X173555431Y-131435000D01*
X174444569Y-131435000D01*
X175266026Y-131094741D01*
X175894741Y-130466026D01*
X176235000Y-129644569D01*
X176235000Y-128755431D01*
X175894741Y-127933974D01*
X175266026Y-127305259D01*
X174444569Y-126965000D01*
X173555431Y-126965000D01*
X172733974Y-127305259D01*
X172105259Y-127933974D01*
X171765000Y-128755431D01*
X170735000Y-128755431D01*
X170735000Y-75874778D01*
X172355000Y-75874778D01*
X172355000Y-76525222D01*
X172603914Y-77126153D01*
X172947761Y-77470000D01*
X172603914Y-77813847D01*
X172355000Y-78414778D01*
X172355000Y-79065222D01*
X172603914Y-79666153D01*
X172947761Y-80010000D01*
X172603914Y-80353847D01*
X172355000Y-80954778D01*
X172355000Y-81605222D01*
X172603914Y-82206153D01*
X172947761Y-82550000D01*
X172603914Y-82893847D01*
X172355000Y-83494778D01*
X172355000Y-84145222D01*
X172603914Y-84746153D01*
X172947761Y-85090000D01*
X172603914Y-85433847D01*
X172355000Y-86034778D01*
X172355000Y-86685222D01*
X172603914Y-87286153D01*
X172947761Y-87630000D01*
X172603914Y-87973847D01*
X172355000Y-88574778D01*
X172355000Y-89225222D01*
X172603914Y-89826153D01*
X172947761Y-90170000D01*
X172603914Y-90513847D01*
X172355000Y-91114778D01*
X172355000Y-91765222D01*
X172603914Y-92366153D01*
X172947761Y-92710000D01*
X172603914Y-93053847D01*
X172355000Y-93654778D01*
X172355000Y-94305222D01*
X172603914Y-94906153D01*
X172947761Y-95250000D01*
X172603914Y-95593847D01*
X172355000Y-96194778D01*
X172355000Y-96845222D01*
X172603914Y-97446153D01*
X172947761Y-97790000D01*
X172603914Y-98133847D01*
X172355000Y-98734778D01*
X172355000Y-99385222D01*
X172603914Y-99986153D01*
X172947761Y-100330000D01*
X172603914Y-100673847D01*
X172355000Y-101274778D01*
X172355000Y-101925222D01*
X172603914Y-102526153D01*
X172947761Y-102870000D01*
X172603914Y-103213847D01*
X172355000Y-103814778D01*
X172355000Y-104465222D01*
X172603914Y-105066153D01*
X172947761Y-105410000D01*
X172603914Y-105753847D01*
X172355000Y-106354778D01*
X172355000Y-107005222D01*
X172603914Y-107606153D01*
X172947761Y-107950000D01*
X172603914Y-108293847D01*
X172355000Y-108894778D01*
X172355000Y-109545222D01*
X172603914Y-110146153D01*
X172947761Y-110490000D01*
X172603914Y-110833847D01*
X172355000Y-111434778D01*
X172355000Y-112085222D01*
X172603914Y-112686153D01*
X172947761Y-113030000D01*
X172603914Y-113373847D01*
X172355000Y-113974778D01*
X172355000Y-114625222D01*
X172603914Y-115226153D01*
X172947761Y-115570000D01*
X172603914Y-115913847D01*
X172355000Y-116514778D01*
X172355000Y-117165222D01*
X172603914Y-117766153D01*
X172947761Y-118110000D01*
X172603914Y-118453847D01*
X172355000Y-119054778D01*
X172355000Y-119705222D01*
X172603914Y-120306153D01*
X172947761Y-120650000D01*
X172603914Y-120993847D01*
X172355000Y-121594778D01*
X172355000Y-122245222D01*
X172603914Y-122846153D01*
X172947761Y-123190000D01*
X172603914Y-123533847D01*
X172355000Y-124134778D01*
X172355000Y-124785222D01*
X172603914Y-125386153D01*
X173063847Y-125846086D01*
X173664778Y-126095000D01*
X174315222Y-126095000D01*
X174916153Y-125846086D01*
X175260000Y-125502239D01*
X175603847Y-125846086D01*
X176204778Y-126095000D01*
X176855222Y-126095000D01*
X177456153Y-125846086D01*
X177800000Y-125502239D01*
X178027761Y-125730000D01*
X177683914Y-126073847D01*
X177435000Y-126674778D01*
X177435000Y-127325222D01*
X177683914Y-127926153D01*
X178027761Y-128270000D01*
X177683914Y-128613847D01*
X177435000Y-129214778D01*
X177435000Y-129865222D01*
X177683914Y-130466153D01*
X178143847Y-130926086D01*
X178744778Y-131175000D01*
X179395222Y-131175000D01*
X179996153Y-130926086D01*
X180340000Y-130582239D01*
X180683847Y-130926086D01*
X181284778Y-131175000D01*
X181935222Y-131175000D01*
X182536153Y-130926086D01*
X182880000Y-130582239D01*
X183223847Y-130926086D01*
X183824778Y-131175000D01*
X184475222Y-131175000D01*
X185076153Y-130926086D01*
X185420000Y-130582239D01*
X185763847Y-130926086D01*
X186364778Y-131175000D01*
X187015222Y-131175000D01*
X187616153Y-130926086D01*
X187960000Y-130582239D01*
X188303847Y-130926086D01*
X188904778Y-131175000D01*
X189555222Y-131175000D01*
X190156153Y-130926086D01*
X190500000Y-130582239D01*
X190843847Y-130926086D01*
X191444778Y-131175000D01*
X192095222Y-131175000D01*
X192696153Y-130926086D01*
X193040000Y-130582239D01*
X193383847Y-130926086D01*
X193984778Y-131175000D01*
X194635222Y-131175000D01*
X195236153Y-130926086D01*
X195580000Y-130582239D01*
X195923847Y-130926086D01*
X196524778Y-131175000D01*
X197175222Y-131175000D01*
X197776153Y-130926086D01*
X198120000Y-130582239D01*
X198463847Y-130926086D01*
X199064778Y-131175000D01*
X199715222Y-131175000D01*
X200316153Y-130926086D01*
X200660000Y-130582239D01*
X201003847Y-130926086D01*
X201604778Y-131175000D01*
X202255222Y-131175000D01*
X202856153Y-130926086D01*
X203200000Y-130582239D01*
X203543847Y-130926086D01*
X204144778Y-131175000D01*
X204795222Y-131175000D01*
X205396153Y-130926086D01*
X205740000Y-130582239D01*
X206083847Y-130926086D01*
X206684778Y-131175000D01*
X207335222Y-131175000D01*
X207936153Y-130926086D01*
X208280000Y-130582239D01*
X208623847Y-130926086D01*
X209224778Y-131175000D01*
X209875222Y-131175000D01*
X210476153Y-130926086D01*
X210820000Y-130582239D01*
X211163847Y-130926086D01*
X211764778Y-131175000D01*
X212415222Y-131175000D01*
X213016153Y-130926086D01*
X213360000Y-130582239D01*
X213703847Y-130926086D01*
X214304778Y-131175000D01*
X214955222Y-131175000D01*
X215556153Y-130926086D01*
X215900000Y-130582239D01*
X216243847Y-130926086D01*
X216844778Y-131175000D01*
X217495222Y-131175000D01*
X218096153Y-130926086D01*
X218440000Y-130582239D01*
X218783847Y-130926086D01*
X219384778Y-131175000D01*
X220035222Y-131175000D01*
X220636153Y-130926086D01*
X221088147Y-130474092D01*
X221179375Y-130610625D01*
X221670582Y-130938839D01*
X222103744Y-131025000D01*
X222396256Y-131025000D01*
X222829418Y-130938839D01*
X223320625Y-130610625D01*
X223509803Y-130327500D01*
X224800197Y-130327500D01*
X224989375Y-130610625D01*
X225480582Y-130938839D01*
X225913744Y-131025000D01*
X226206256Y-131025000D01*
X226639418Y-130938839D01*
X227130625Y-130610625D01*
X227319803Y-130327500D01*
X232194091Y-130327500D01*
X232195680Y-130331337D01*
X232588663Y-130724320D01*
X233102119Y-130937000D01*
X233657881Y-130937000D01*
X234171337Y-130724320D01*
X234564320Y-130331337D01*
X234565909Y-130327500D01*
X236894541Y-130327500D01*
X236936064Y-130369023D01*
X237295484Y-130517900D01*
X237684516Y-130517900D01*
X238043936Y-130369023D01*
X238085459Y-130327500D01*
X247434091Y-130327500D01*
X247435680Y-130331337D01*
X247828663Y-130724320D01*
X248342119Y-130937000D01*
X248897881Y-130937000D01*
X249411337Y-130724320D01*
X249804320Y-130331337D01*
X250017000Y-129817881D01*
X250017000Y-129262119D01*
X249804320Y-128748663D01*
X249411337Y-128355680D01*
X249204487Y-128270000D01*
X249411337Y-128184320D01*
X249804320Y-127791337D01*
X250017000Y-127277881D01*
X250017000Y-126722119D01*
X249804320Y-126208663D01*
X249411337Y-125815680D01*
X249204487Y-125730000D01*
X249411337Y-125644320D01*
X249804320Y-125251337D01*
X250017000Y-124737881D01*
X250017000Y-124182119D01*
X249804320Y-123668663D01*
X249411337Y-123275680D01*
X249204487Y-123190000D01*
X249411337Y-123104320D01*
X249804320Y-122711337D01*
X250017000Y-122197881D01*
X250017000Y-121642119D01*
X249804320Y-121128663D01*
X249411337Y-120735680D01*
X249204487Y-120650000D01*
X249411337Y-120564320D01*
X249804320Y-120171337D01*
X250017000Y-119657881D01*
X250017000Y-119102119D01*
X249804320Y-118588663D01*
X249411337Y-118195680D01*
X249204487Y-118110000D01*
X249411337Y-118024320D01*
X249804320Y-117631337D01*
X250017000Y-117117881D01*
X250017000Y-116562119D01*
X249804320Y-116048663D01*
X249411337Y-115655680D01*
X249204487Y-115570000D01*
X249411337Y-115484320D01*
X249804320Y-115091337D01*
X250017000Y-114577881D01*
X250017000Y-114022119D01*
X249804320Y-113508663D01*
X249411337Y-113115680D01*
X249204487Y-113030000D01*
X249411337Y-112944320D01*
X249804320Y-112551337D01*
X250017000Y-112037881D01*
X250017000Y-111482119D01*
X249804320Y-110968663D01*
X249411337Y-110575680D01*
X249204487Y-110490000D01*
X249411337Y-110404320D01*
X249804320Y-110011337D01*
X250017000Y-109497881D01*
X250017000Y-108942119D01*
X249804320Y-108428663D01*
X249411337Y-108035680D01*
X249204487Y-107950000D01*
X249411337Y-107864320D01*
X249804320Y-107471337D01*
X250017000Y-106957881D01*
X250017000Y-106402119D01*
X249804320Y-105888663D01*
X249411337Y-105495680D01*
X249204487Y-105410000D01*
X249411337Y-105324320D01*
X249804320Y-104931337D01*
X250017000Y-104417881D01*
X250017000Y-103862119D01*
X249804320Y-103348663D01*
X249411337Y-102955680D01*
X249204487Y-102870000D01*
X249411337Y-102784320D01*
X249804320Y-102391337D01*
X250017000Y-101877881D01*
X250017000Y-101322119D01*
X249804320Y-100808663D01*
X249411337Y-100415680D01*
X249204487Y-100330000D01*
X249411337Y-100244320D01*
X249804320Y-99851337D01*
X250017000Y-99337881D01*
X250017000Y-98782119D01*
X249804320Y-98268663D01*
X249411337Y-97875680D01*
X249204487Y-97790000D01*
X249411337Y-97704320D01*
X249804320Y-97311337D01*
X250017000Y-96797881D01*
X250017000Y-96242119D01*
X249804320Y-95728663D01*
X249411337Y-95335680D01*
X249204487Y-95250000D01*
X249411337Y-95164320D01*
X249804320Y-94771337D01*
X250017000Y-94257881D01*
X250017000Y-93702119D01*
X249804320Y-93188663D01*
X249411337Y-92795680D01*
X249204487Y-92710000D01*
X249411337Y-92624320D01*
X249804320Y-92231337D01*
X250017000Y-91717881D01*
X250017000Y-91162119D01*
X249804320Y-90648663D01*
X249411337Y-90255680D01*
X249204487Y-90170000D01*
X249411337Y-90084320D01*
X249804320Y-89691337D01*
X250017000Y-89177881D01*
X250017000Y-88622119D01*
X249804320Y-88108663D01*
X249411337Y-87715680D01*
X249204487Y-87630000D01*
X249411337Y-87544320D01*
X249804320Y-87151337D01*
X250017000Y-86637881D01*
X250017000Y-86082119D01*
X249804320Y-85568663D01*
X249411337Y-85175680D01*
X249220353Y-85096572D01*
X249351143Y-85042397D01*
X249420608Y-84800213D01*
X248620000Y-83999605D01*
X247819392Y-84800213D01*
X247888857Y-85042397D01*
X248029393Y-85092535D01*
X247828663Y-85175680D01*
X247435680Y-85568663D01*
X247223000Y-86082119D01*
X247223000Y-86637881D01*
X247435680Y-87151337D01*
X247828663Y-87544320D01*
X248035513Y-87630000D01*
X247828663Y-87715680D01*
X247435680Y-88108663D01*
X247223000Y-88622119D01*
X247223000Y-89177881D01*
X247435680Y-89691337D01*
X247828663Y-90084320D01*
X248035513Y-90170000D01*
X247828663Y-90255680D01*
X247435680Y-90648663D01*
X247223000Y-91162119D01*
X247223000Y-91717881D01*
X247435680Y-92231337D01*
X247828663Y-92624320D01*
X248035513Y-92710000D01*
X247828663Y-92795680D01*
X247435680Y-93188663D01*
X247223000Y-93702119D01*
X247223000Y-94257881D01*
X247435680Y-94771337D01*
X247828663Y-95164320D01*
X248035513Y-95250000D01*
X247828663Y-95335680D01*
X247435680Y-95728663D01*
X247223000Y-96242119D01*
X247223000Y-96797881D01*
X247435680Y-97311337D01*
X247828663Y-97704320D01*
X248035513Y-97790000D01*
X247828663Y-97875680D01*
X247435680Y-98268663D01*
X247223000Y-98782119D01*
X247223000Y-99337881D01*
X247435680Y-99851337D01*
X247828663Y-100244320D01*
X248035513Y-100330000D01*
X247828663Y-100415680D01*
X247435680Y-100808663D01*
X247223000Y-101322119D01*
X247223000Y-101877881D01*
X247435680Y-102391337D01*
X247828663Y-102784320D01*
X248035513Y-102870000D01*
X247828663Y-102955680D01*
X247435680Y-103348663D01*
X247223000Y-103862119D01*
X247223000Y-104417881D01*
X247435680Y-104931337D01*
X247828663Y-105324320D01*
X248035513Y-105410000D01*
X247828663Y-105495680D01*
X247435680Y-105888663D01*
X247223000Y-106402119D01*
X247223000Y-106957881D01*
X247435680Y-107471337D01*
X247828663Y-107864320D01*
X248035513Y-107950000D01*
X247828663Y-108035680D01*
X247435680Y-108428663D01*
X247223000Y-108942119D01*
X247223000Y-109497881D01*
X247435680Y-110011337D01*
X247828663Y-110404320D01*
X248035513Y-110490000D01*
X247828663Y-110575680D01*
X247435680Y-110968663D01*
X247223000Y-111482119D01*
X247223000Y-112037881D01*
X247435680Y-112551337D01*
X247828663Y-112944320D01*
X248035513Y-113030000D01*
X247828663Y-113115680D01*
X247435680Y-113508663D01*
X247223000Y-114022119D01*
X247223000Y-114577881D01*
X247435680Y-115091337D01*
X247828663Y-115484320D01*
X248035513Y-115570000D01*
X247828663Y-115655680D01*
X247435680Y-116048663D01*
X247223000Y-116562119D01*
X247223000Y-117117881D01*
X247435680Y-117631337D01*
X247828663Y-118024320D01*
X248035513Y-118110000D01*
X247828663Y-118195680D01*
X247435680Y-118588663D01*
X247223000Y-119102119D01*
X247223000Y-119657881D01*
X247435680Y-120171337D01*
X247828663Y-120564320D01*
X248035513Y-120650000D01*
X247828663Y-120735680D01*
X247435680Y-121128663D01*
X247223000Y-121642119D01*
X247223000Y-122197881D01*
X247435680Y-122711337D01*
X247828663Y-123104320D01*
X248035513Y-123190000D01*
X247828663Y-123275680D01*
X247435680Y-123668663D01*
X247223000Y-124182119D01*
X247223000Y-124737881D01*
X247435680Y-125251337D01*
X247828663Y-125644320D01*
X248035513Y-125730000D01*
X247828663Y-125815680D01*
X247435680Y-126208663D01*
X247223000Y-126722119D01*
X247223000Y-127277881D01*
X247435680Y-127791337D01*
X247828663Y-128184320D01*
X248035513Y-128270000D01*
X247828663Y-128355680D01*
X247435680Y-128748663D01*
X247434091Y-128752500D01*
X238085459Y-128752500D01*
X238043936Y-128710977D01*
X237684516Y-128562100D01*
X237295484Y-128562100D01*
X236936064Y-128710977D01*
X236894541Y-128752500D01*
X234565909Y-128752500D01*
X234564320Y-128748663D01*
X234171337Y-128355680D01*
X233980353Y-128276572D01*
X234111143Y-128222397D01*
X234180608Y-127980213D01*
X233380000Y-127179605D01*
X232579392Y-127980213D01*
X232648857Y-128222397D01*
X232789393Y-128272535D01*
X232588663Y-128355680D01*
X232195680Y-128748663D01*
X232194091Y-128752500D01*
X227319803Y-128752500D01*
X227130625Y-128469375D01*
X226811522Y-128256157D01*
X226941358Y-128195183D01*
X227331645Y-127766924D01*
X227501476Y-127356890D01*
X227380155Y-127127000D01*
X226187000Y-127127000D01*
X226187000Y-127147000D01*
X225933000Y-127147000D01*
X225933000Y-127127000D01*
X224739845Y-127127000D01*
X224618524Y-127356890D01*
X224788355Y-127766924D01*
X225178642Y-128195183D01*
X225308478Y-128256157D01*
X224989375Y-128469375D01*
X224800197Y-128752500D01*
X223509803Y-128752500D01*
X223320625Y-128469375D01*
X223001522Y-128256157D01*
X223131358Y-128195183D01*
X223521645Y-127766924D01*
X223691476Y-127356890D01*
X223570155Y-127127000D01*
X222377000Y-127127000D01*
X222377000Y-127147000D01*
X222123000Y-127147000D01*
X222123000Y-127127000D01*
X222103000Y-127127000D01*
X222103000Y-126873000D01*
X222123000Y-126873000D01*
X222123000Y-126853000D01*
X222377000Y-126853000D01*
X222377000Y-126873000D01*
X223570155Y-126873000D01*
X223691476Y-126643110D01*
X223521645Y-126233076D01*
X223131358Y-125804817D01*
X223001522Y-125743843D01*
X223320625Y-125530625D01*
X223509803Y-125247500D01*
X224562560Y-125247500D01*
X224562560Y-125310000D01*
X224611843Y-125557765D01*
X224752191Y-125767809D01*
X224962235Y-125908157D01*
X225065708Y-125928739D01*
X224788355Y-126233076D01*
X224618524Y-126643110D01*
X224739845Y-126873000D01*
X225933000Y-126873000D01*
X225933000Y-126853000D01*
X226187000Y-126853000D01*
X226187000Y-126873000D01*
X227380155Y-126873000D01*
X227422742Y-126792302D01*
X231970856Y-126792302D01*
X231998638Y-127347368D01*
X232157603Y-127731143D01*
X232399787Y-127800608D01*
X233200395Y-127000000D01*
X233559605Y-127000000D01*
X234360213Y-127800608D01*
X234602397Y-127731143D01*
X234789144Y-127207698D01*
X234761362Y-126652632D01*
X234602397Y-126268857D01*
X234360213Y-126199392D01*
X233559605Y-127000000D01*
X233200395Y-127000000D01*
X232399787Y-126199392D01*
X232157603Y-126268857D01*
X231970856Y-126792302D01*
X227422742Y-126792302D01*
X227501476Y-126643110D01*
X227331645Y-126233076D01*
X227054292Y-125928739D01*
X227157765Y-125908157D01*
X227367809Y-125767809D01*
X227508157Y-125557765D01*
X227557440Y-125310000D01*
X227557440Y-125247500D01*
X232194091Y-125247500D01*
X232195680Y-125251337D01*
X232588663Y-125644320D01*
X232779647Y-125723428D01*
X232648857Y-125777603D01*
X232579392Y-126019787D01*
X233380000Y-126820395D01*
X234180608Y-126019787D01*
X234111143Y-125777603D01*
X233970607Y-125727465D01*
X234171337Y-125644320D01*
X234564320Y-125251337D01*
X234777000Y-124737881D01*
X234777000Y-124555431D01*
X240765000Y-124555431D01*
X240765000Y-125444569D01*
X241105259Y-126266026D01*
X241733974Y-126894741D01*
X242555431Y-127235000D01*
X243444569Y-127235000D01*
X244266026Y-126894741D01*
X244894741Y-126266026D01*
X245235000Y-125444569D01*
X245235000Y-124555431D01*
X244894741Y-123733974D01*
X244266026Y-123105259D01*
X243444569Y-122765000D01*
X242555431Y-122765000D01*
X241733974Y-123105259D01*
X241105259Y-123733974D01*
X240765000Y-124555431D01*
X234777000Y-124555431D01*
X234777000Y-124182119D01*
X234564320Y-123668663D01*
X234171337Y-123275680D01*
X233964487Y-123190000D01*
X234171337Y-123104320D01*
X234564320Y-122711337D01*
X234777000Y-122197881D01*
X234777000Y-121642119D01*
X234564320Y-121128663D01*
X234171337Y-120735680D01*
X233964487Y-120650000D01*
X234171337Y-120564320D01*
X234564320Y-120171337D01*
X234777000Y-119657881D01*
X234777000Y-119102119D01*
X234564320Y-118588663D01*
X234171337Y-118195680D01*
X233964487Y-118110000D01*
X234171337Y-118024320D01*
X234564320Y-117631337D01*
X234777000Y-117117881D01*
X234777000Y-116562119D01*
X234564320Y-116048663D01*
X234171337Y-115655680D01*
X233964487Y-115570000D01*
X234171337Y-115484320D01*
X234564320Y-115091337D01*
X234777000Y-114577881D01*
X234777000Y-114022119D01*
X234564320Y-113508663D01*
X234171337Y-113115680D01*
X233964487Y-113030000D01*
X234171337Y-112944320D01*
X234564320Y-112551337D01*
X234777000Y-112037881D01*
X234777000Y-111482119D01*
X234564320Y-110968663D01*
X234171337Y-110575680D01*
X233964487Y-110490000D01*
X234171337Y-110404320D01*
X234564320Y-110011337D01*
X234777000Y-109497881D01*
X234777000Y-108942119D01*
X234564320Y-108428663D01*
X234171337Y-108035680D01*
X233964487Y-107950000D01*
X234171337Y-107864320D01*
X234564320Y-107471337D01*
X234777000Y-106957881D01*
X234777000Y-106402119D01*
X234564320Y-105888663D01*
X234171337Y-105495680D01*
X233964487Y-105410000D01*
X234171337Y-105324320D01*
X234564320Y-104931337D01*
X234777000Y-104417881D01*
X234777000Y-103862119D01*
X234564320Y-103348663D01*
X234171337Y-102955680D01*
X233964487Y-102870000D01*
X234171337Y-102784320D01*
X234564320Y-102391337D01*
X234777000Y-101877881D01*
X234777000Y-101322119D01*
X234564320Y-100808663D01*
X234171337Y-100415680D01*
X233964487Y-100330000D01*
X234171337Y-100244320D01*
X234564320Y-99851337D01*
X234777000Y-99337881D01*
X234777000Y-98782119D01*
X234564320Y-98268663D01*
X234171337Y-97875680D01*
X233964487Y-97790000D01*
X234171337Y-97704320D01*
X234564320Y-97311337D01*
X234777000Y-96797881D01*
X234777000Y-96242119D01*
X234564320Y-95728663D01*
X234171337Y-95335680D01*
X233964487Y-95250000D01*
X234171337Y-95164320D01*
X234564320Y-94771337D01*
X234777000Y-94257881D01*
X234777000Y-93702119D01*
X234564320Y-93188663D01*
X234171337Y-92795680D01*
X233964487Y-92710000D01*
X234171337Y-92624320D01*
X234564320Y-92231337D01*
X234565909Y-92227500D01*
X241222439Y-92227500D01*
X241300000Y-92242928D01*
X241377561Y-92227500D01*
X241377562Y-92227500D01*
X241607267Y-92181809D01*
X241867756Y-92007756D01*
X241911694Y-91941998D01*
X243072004Y-90781690D01*
X243137756Y-90737756D01*
X243311809Y-90477267D01*
X243357500Y-90247562D01*
X243357500Y-90247561D01*
X243372928Y-90170001D01*
X243357500Y-90092440D01*
X243357500Y-83612302D01*
X247210856Y-83612302D01*
X247238638Y-84167368D01*
X247397603Y-84551143D01*
X247639787Y-84620608D01*
X248440395Y-83820000D01*
X248799605Y-83820000D01*
X249600213Y-84620608D01*
X249842397Y-84551143D01*
X250029144Y-84027698D01*
X250001362Y-83472632D01*
X249842397Y-83088857D01*
X249600213Y-83019392D01*
X248799605Y-83820000D01*
X248440395Y-83820000D01*
X247639787Y-83019392D01*
X247397603Y-83088857D01*
X247210856Y-83612302D01*
X243357500Y-83612302D01*
X243357500Y-82260213D01*
X247819392Y-82260213D01*
X247888857Y-82502397D01*
X248012344Y-82546453D01*
X247888857Y-82597603D01*
X247819392Y-82839787D01*
X248620000Y-83640395D01*
X249420608Y-82839787D01*
X249351143Y-82597603D01*
X249227656Y-82553547D01*
X249351143Y-82502397D01*
X249420608Y-82260213D01*
X248620000Y-81459605D01*
X247819392Y-82260213D01*
X243357500Y-82260213D01*
X243357500Y-81072302D01*
X247210856Y-81072302D01*
X247238638Y-81627368D01*
X247397603Y-82011143D01*
X247639787Y-82080608D01*
X248440395Y-81280000D01*
X248799605Y-81280000D01*
X249600213Y-82080608D01*
X249842397Y-82011143D01*
X250029144Y-81487698D01*
X250001362Y-80932632D01*
X249842397Y-80548857D01*
X249600213Y-80479392D01*
X248799605Y-81280000D01*
X248440395Y-81280000D01*
X247639787Y-80479392D01*
X247397603Y-80548857D01*
X247210856Y-81072302D01*
X243357500Y-81072302D01*
X243357500Y-80299787D01*
X247819392Y-80299787D01*
X248620000Y-81100395D01*
X249420608Y-80299787D01*
X249351143Y-80057603D01*
X248827698Y-79870856D01*
X248272632Y-79898638D01*
X247888857Y-80057603D01*
X247819392Y-80299787D01*
X243357500Y-80299787D01*
X243357500Y-73986192D01*
X244166194Y-73177500D01*
X249477439Y-73177500D01*
X249555000Y-73192928D01*
X249632561Y-73177500D01*
X249632562Y-73177500D01*
X249862267Y-73131809D01*
X250122756Y-72957756D01*
X250166694Y-72891998D01*
X251327004Y-71731690D01*
X251392756Y-71687756D01*
X251566809Y-71427267D01*
X251612500Y-71197562D01*
X251612500Y-71197561D01*
X251627928Y-71120001D01*
X251612500Y-71042440D01*
X251612500Y-58497560D01*
X251627928Y-58419999D01*
X251612500Y-58342438D01*
X251566809Y-58112733D01*
X251392756Y-57852244D01*
X251327000Y-57808307D01*
X250976694Y-57458002D01*
X250932756Y-57392244D01*
X250672267Y-57218191D01*
X250442562Y-57172500D01*
X250442561Y-57172500D01*
X250365000Y-57157072D01*
X250287439Y-57172500D01*
X248331607Y-57172500D01*
X248217809Y-57002191D01*
X248154666Y-56960000D01*
X248217809Y-56917809D01*
X248358157Y-56707765D01*
X248407440Y-56460000D01*
X248407440Y-55460000D01*
X248358157Y-55212235D01*
X248217809Y-55002191D01*
X248156680Y-54961345D01*
X248298327Y-54819699D01*
X248395000Y-54586310D01*
X248395000Y-54245750D01*
X248236250Y-54087000D01*
X246887000Y-54087000D01*
X246887000Y-54107000D01*
X246633000Y-54107000D01*
X246633000Y-54087000D01*
X245283750Y-54087000D01*
X245125000Y-54245750D01*
X245125000Y-54586310D01*
X245221673Y-54819699D01*
X245363320Y-54961345D01*
X245302191Y-55002191D01*
X245161843Y-55212235D01*
X245112560Y-55460000D01*
X245112560Y-56460000D01*
X245161843Y-56707765D01*
X245302191Y-56917809D01*
X245365334Y-56960000D01*
X245302191Y-57002191D01*
X245161843Y-57212235D01*
X245112560Y-57460000D01*
X245112560Y-58460000D01*
X245161843Y-58707765D01*
X245302191Y-58917809D01*
X245365334Y-58960000D01*
X245302191Y-59002191D01*
X245188393Y-59172500D01*
X239837561Y-59172500D01*
X239760000Y-59157072D01*
X239682439Y-59172500D01*
X239682438Y-59172500D01*
X239452733Y-59218191D01*
X239192244Y-59392244D01*
X239148308Y-59457999D01*
X236988002Y-61618306D01*
X236922244Y-61662244D01*
X236748191Y-61922734D01*
X236721928Y-62054767D01*
X236687072Y-62230000D01*
X236702500Y-62307561D01*
X236702501Y-79683805D01*
X235893808Y-80492500D01*
X234565909Y-80492500D01*
X234564320Y-80488663D01*
X234171337Y-80095680D01*
X233657881Y-79883000D01*
X233102119Y-79883000D01*
X232588663Y-80095680D01*
X232195680Y-80488663D01*
X232194091Y-80492500D01*
X223747440Y-80492500D01*
X223747440Y-80430000D01*
X223698157Y-80182235D01*
X223557809Y-79972191D01*
X223347765Y-79831843D01*
X223100000Y-79782560D01*
X221400000Y-79782560D01*
X221152235Y-79831843D01*
X220942191Y-79972191D01*
X220850962Y-80108723D01*
X220752239Y-80010000D01*
X221096086Y-79666153D01*
X221345000Y-79065222D01*
X221345000Y-78414778D01*
X221096086Y-77813847D01*
X220752239Y-77470000D01*
X221096086Y-77126153D01*
X221345000Y-76525222D01*
X221345000Y-75874778D01*
X221096086Y-75273847D01*
X220636153Y-74813914D01*
X220035222Y-74565000D01*
X219384778Y-74565000D01*
X218783847Y-74813914D01*
X218440000Y-75157761D01*
X218341277Y-75059038D01*
X218477809Y-74967809D01*
X218618157Y-74757765D01*
X218667440Y-74510000D01*
X218667440Y-72810000D01*
X218618157Y-72562235D01*
X218477809Y-72352191D01*
X218267765Y-72211843D01*
X218020000Y-72162560D01*
X216320000Y-72162560D01*
X216072235Y-72211843D01*
X215862191Y-72352191D01*
X215721843Y-72562235D01*
X215712816Y-72607619D01*
X215700625Y-72589375D01*
X215209418Y-72261161D01*
X214776256Y-72175000D01*
X214483744Y-72175000D01*
X214050582Y-72261161D01*
X213559375Y-72589375D01*
X213360000Y-72887761D01*
X213160625Y-72589375D01*
X212669418Y-72261161D01*
X212236256Y-72175000D01*
X211943744Y-72175000D01*
X211510582Y-72261161D01*
X211019375Y-72589375D01*
X210820000Y-72887761D01*
X210620625Y-72589375D01*
X210129418Y-72261161D01*
X209696256Y-72175000D01*
X209403744Y-72175000D01*
X208970582Y-72261161D01*
X208479375Y-72589375D01*
X208280000Y-72887761D01*
X208080625Y-72589375D01*
X207589418Y-72261161D01*
X207156256Y-72175000D01*
X206863744Y-72175000D01*
X206430582Y-72261161D01*
X205939375Y-72589375D01*
X205740000Y-72887761D01*
X205540625Y-72589375D01*
X205049418Y-72261161D01*
X204616256Y-72175000D01*
X204323744Y-72175000D01*
X203890582Y-72261161D01*
X203399375Y-72589375D01*
X203200000Y-72887761D01*
X203000625Y-72589375D01*
X202509418Y-72261161D01*
X202076256Y-72175000D01*
X201783744Y-72175000D01*
X201350582Y-72261161D01*
X200859375Y-72589375D01*
X200660000Y-72887761D01*
X200460625Y-72589375D01*
X199969418Y-72261161D01*
X199536256Y-72175000D01*
X199243744Y-72175000D01*
X198810582Y-72261161D01*
X198319375Y-72589375D01*
X198120000Y-72887761D01*
X197920625Y-72589375D01*
X197429418Y-72261161D01*
X196996256Y-72175000D01*
X196703744Y-72175000D01*
X196270582Y-72261161D01*
X195779375Y-72589375D01*
X195580000Y-72887761D01*
X195380625Y-72589375D01*
X194889418Y-72261161D01*
X194456256Y-72175000D01*
X194163744Y-72175000D01*
X193730582Y-72261161D01*
X193239375Y-72589375D01*
X193040000Y-72887761D01*
X192840625Y-72589375D01*
X192349418Y-72261161D01*
X191916256Y-72175000D01*
X191623744Y-72175000D01*
X191190582Y-72261161D01*
X190699375Y-72589375D01*
X190500000Y-72887761D01*
X190300625Y-72589375D01*
X189809418Y-72261161D01*
X189376256Y-72175000D01*
X189083744Y-72175000D01*
X188650582Y-72261161D01*
X188159375Y-72589375D01*
X187960000Y-72887761D01*
X187760625Y-72589375D01*
X187269418Y-72261161D01*
X186836256Y-72175000D01*
X186543744Y-72175000D01*
X186110582Y-72261161D01*
X185619375Y-72589375D01*
X185420000Y-72887761D01*
X185220625Y-72589375D01*
X184729418Y-72261161D01*
X184296256Y-72175000D01*
X184003744Y-72175000D01*
X183570582Y-72261161D01*
X183079375Y-72589375D01*
X182880000Y-72887761D01*
X182680625Y-72589375D01*
X182189418Y-72261161D01*
X181756256Y-72175000D01*
X181463744Y-72175000D01*
X181030582Y-72261161D01*
X180539375Y-72589375D01*
X180340000Y-72887761D01*
X180140625Y-72589375D01*
X179649418Y-72261161D01*
X179216256Y-72175000D01*
X178923744Y-72175000D01*
X178490582Y-72261161D01*
X177999375Y-72589375D01*
X177786157Y-72908478D01*
X177725183Y-72778642D01*
X177296924Y-72388355D01*
X176886890Y-72218524D01*
X176657000Y-72339845D01*
X176657000Y-73533000D01*
X176677000Y-73533000D01*
X176677000Y-73787000D01*
X176657000Y-73787000D01*
X176657000Y-73807000D01*
X176403000Y-73807000D01*
X176403000Y-73787000D01*
X174117000Y-73787000D01*
X174117000Y-73807000D01*
X173863000Y-73807000D01*
X173863000Y-73787000D01*
X172669181Y-73787000D01*
X172548514Y-74016892D01*
X172794817Y-74541358D01*
X173084502Y-74805358D01*
X173063847Y-74813914D01*
X172603914Y-75273847D01*
X172355000Y-75874778D01*
X170735000Y-75874778D01*
X170735000Y-73303108D01*
X172548514Y-73303108D01*
X172669181Y-73533000D01*
X173863000Y-73533000D01*
X173863000Y-72339845D01*
X174117000Y-72339845D01*
X174117000Y-73533000D01*
X176403000Y-73533000D01*
X176403000Y-72339845D01*
X176173110Y-72218524D01*
X175763076Y-72388355D01*
X175334817Y-72778642D01*
X175260000Y-72937954D01*
X175185183Y-72778642D01*
X174756924Y-72388355D01*
X174346890Y-72218524D01*
X174117000Y-72339845D01*
X173863000Y-72339845D01*
X173633110Y-72218524D01*
X173223076Y-72388355D01*
X172794817Y-72778642D01*
X172548514Y-73303108D01*
X170735000Y-73303108D01*
X170735000Y-58225484D01*
X223812100Y-58225484D01*
X223812100Y-58614516D01*
X223960977Y-58973936D01*
X224002500Y-59015459D01*
X224002501Y-61517433D01*
X223987072Y-61595000D01*
X224002500Y-61672562D01*
X224002501Y-68619540D01*
X223960977Y-68661064D01*
X223812100Y-69020484D01*
X223812100Y-69409516D01*
X223960977Y-69768936D01*
X224236064Y-70044023D01*
X224595484Y-70192900D01*
X224984516Y-70192900D01*
X225343936Y-70044023D01*
X225619023Y-69768936D01*
X225767900Y-69409516D01*
X225767900Y-69020484D01*
X225619023Y-68661064D01*
X225577500Y-68619541D01*
X225577500Y-62382500D01*
X225745382Y-62382500D01*
X225861369Y-62460000D01*
X225905233Y-62489309D01*
X226212500Y-62550428D01*
X226290062Y-62535000D01*
X226432036Y-62535000D01*
X226461261Y-62578739D01*
X226742273Y-62766505D01*
X227073750Y-62832440D01*
X227586250Y-62832440D01*
X227917727Y-62766505D01*
X227946170Y-62747500D01*
X229188393Y-62747500D01*
X229302191Y-62917809D01*
X229365334Y-62960000D01*
X229302191Y-63002191D01*
X229188393Y-63172500D01*
X226947556Y-63172500D01*
X226869999Y-63157073D01*
X226792442Y-63172500D01*
X226792438Y-63172500D01*
X226562733Y-63218191D01*
X226302244Y-63392244D01*
X226258306Y-63458002D01*
X226193000Y-63523308D01*
X226127245Y-63567244D01*
X226083309Y-63632999D01*
X225953192Y-63827733D01*
X225892072Y-64135000D01*
X225907501Y-64212566D01*
X225907500Y-76757439D01*
X225892072Y-76835000D01*
X225907500Y-76912561D01*
X225953191Y-77142266D01*
X226127244Y-77402756D01*
X226193002Y-77446694D01*
X227622100Y-78875793D01*
X227622100Y-78934516D01*
X227770977Y-79293936D01*
X228046064Y-79569023D01*
X228405484Y-79717900D01*
X228794516Y-79717900D01*
X229153936Y-79569023D01*
X229235000Y-79487959D01*
X229316064Y-79569023D01*
X229675484Y-79717900D01*
X230064516Y-79717900D01*
X230423936Y-79569023D01*
X230505000Y-79487959D01*
X230586064Y-79569023D01*
X230945484Y-79717900D01*
X231334516Y-79717900D01*
X231693936Y-79569023D01*
X231969023Y-79293936D01*
X232117900Y-78934516D01*
X232117900Y-78545484D01*
X231969023Y-78186064D01*
X231693936Y-77910977D01*
X231334516Y-77762100D01*
X231275794Y-77762100D01*
X228752500Y-75238808D01*
X228752500Y-68906192D01*
X228911193Y-68747500D01*
X229188393Y-68747500D01*
X229302191Y-68917809D01*
X229512235Y-69058157D01*
X229760000Y-69107440D01*
X231760000Y-69107440D01*
X232007765Y-69058157D01*
X232217809Y-68917809D01*
X232358157Y-68707765D01*
X232407440Y-68460000D01*
X232407440Y-67460000D01*
X232358157Y-67212235D01*
X232217809Y-67002191D01*
X232154666Y-66960000D01*
X232217809Y-66917809D01*
X232358157Y-66707765D01*
X232407440Y-66460000D01*
X232407440Y-65460000D01*
X232358157Y-65212235D01*
X232217809Y-65002191D01*
X232154666Y-64960000D01*
X232217809Y-64917809D01*
X232358157Y-64707765D01*
X232407440Y-64460000D01*
X232407440Y-63460000D01*
X232358157Y-63212235D01*
X232217809Y-63002191D01*
X232154666Y-62960000D01*
X232217809Y-62917809D01*
X232358157Y-62707765D01*
X232407440Y-62460000D01*
X232407440Y-61460000D01*
X232358157Y-61212235D01*
X232217809Y-61002191D01*
X232154666Y-60960000D01*
X232217809Y-60917809D01*
X232358157Y-60707765D01*
X232407440Y-60460000D01*
X232407440Y-59460000D01*
X232358157Y-59212235D01*
X232217809Y-59002191D01*
X232154666Y-58960000D01*
X232217809Y-58917809D01*
X232358157Y-58707765D01*
X232407440Y-58460000D01*
X232407440Y-57460000D01*
X232358157Y-57212235D01*
X232217809Y-57002191D01*
X232156680Y-56961345D01*
X232298327Y-56819699D01*
X232395000Y-56586310D01*
X232395000Y-56245750D01*
X232236250Y-56087000D01*
X230887000Y-56087000D01*
X230887000Y-56107000D01*
X230633000Y-56107000D01*
X230633000Y-56087000D01*
X229283750Y-56087000D01*
X229125000Y-56245750D01*
X229125000Y-56586310D01*
X229221673Y-56819699D01*
X229363320Y-56961345D01*
X229302191Y-57002191D01*
X229161843Y-57212235D01*
X229112560Y-57460000D01*
X229112560Y-58460000D01*
X229161843Y-58707765D01*
X229302191Y-58917809D01*
X229365334Y-58960000D01*
X229302191Y-59002191D01*
X229161843Y-59212235D01*
X229112560Y-59460000D01*
X229112560Y-60460000D01*
X229161843Y-60707765D01*
X229302191Y-60917809D01*
X229365334Y-60960000D01*
X229302191Y-61002191D01*
X229188393Y-61172500D01*
X228369952Y-61172500D01*
X228278057Y-61034969D01*
X228343327Y-60969698D01*
X228440000Y-60736309D01*
X228440000Y-60458250D01*
X228281250Y-60299500D01*
X227457000Y-60299500D01*
X227457000Y-60319500D01*
X227203000Y-60319500D01*
X227203000Y-60299500D01*
X226378750Y-60299500D01*
X226220000Y-60458250D01*
X226220000Y-60736309D01*
X226259538Y-60831762D01*
X226137562Y-60807500D01*
X226137561Y-60807500D01*
X226060000Y-60792072D01*
X225982439Y-60807500D01*
X225577500Y-60807500D01*
X225577500Y-59608691D01*
X226220000Y-59608691D01*
X226220000Y-59886750D01*
X226378750Y-60045500D01*
X227203000Y-60045500D01*
X227203000Y-59258750D01*
X227457000Y-59258750D01*
X227457000Y-60045500D01*
X228281250Y-60045500D01*
X228440000Y-59886750D01*
X228440000Y-59608691D01*
X228343327Y-59375302D01*
X228164699Y-59196673D01*
X227931310Y-59100000D01*
X227615750Y-59100000D01*
X227457000Y-59258750D01*
X227203000Y-59258750D01*
X227044250Y-59100000D01*
X226728690Y-59100000D01*
X226495301Y-59196673D01*
X226316673Y-59375302D01*
X226220000Y-59608691D01*
X225577500Y-59608691D01*
X225577500Y-59015459D01*
X225619023Y-58973936D01*
X225767900Y-58614516D01*
X225767900Y-58225484D01*
X225619023Y-57866064D01*
X225343936Y-57590977D01*
X224984516Y-57442100D01*
X224595484Y-57442100D01*
X224236064Y-57590977D01*
X223960977Y-57866064D01*
X223812100Y-58225484D01*
X170735000Y-58225484D01*
X170735000Y-53555431D01*
X171765000Y-53555431D01*
X171765000Y-54444569D01*
X172105259Y-55266026D01*
X172733974Y-55894741D01*
X173555431Y-56235000D01*
X174444569Y-56235000D01*
X175266026Y-55894741D01*
X175894741Y-55266026D01*
X176235000Y-54444569D01*
X176235000Y-53555431D01*
X213765000Y-53555431D01*
X213765000Y-54444569D01*
X214105259Y-55266026D01*
X214733974Y-55894741D01*
X215555431Y-56235000D01*
X216444569Y-56235000D01*
X216611753Y-56165750D01*
X223055000Y-56165750D01*
X223055000Y-56531309D01*
X223151673Y-56764698D01*
X223330301Y-56943327D01*
X223563690Y-57040000D01*
X224504250Y-57040000D01*
X224663000Y-56881250D01*
X224663000Y-56007000D01*
X224917000Y-56007000D01*
X224917000Y-56881250D01*
X225075750Y-57040000D01*
X226016310Y-57040000D01*
X226249699Y-56943327D01*
X226428327Y-56764698D01*
X226525000Y-56531309D01*
X226525000Y-56165750D01*
X226366250Y-56007000D01*
X224917000Y-56007000D01*
X224663000Y-56007000D01*
X223213750Y-56007000D01*
X223055000Y-56165750D01*
X216611753Y-56165750D01*
X217266026Y-55894741D01*
X217894741Y-55266026D01*
X218133028Y-54690750D01*
X222155000Y-54690750D01*
X222155000Y-55031309D01*
X222251673Y-55264698D01*
X222430301Y-55443327D01*
X222663690Y-55540000D01*
X223004250Y-55540000D01*
X223055000Y-55489250D01*
X223055000Y-55594250D01*
X223213750Y-55753000D01*
X224663000Y-55753000D01*
X224663000Y-54878750D01*
X224504250Y-54720000D01*
X224425000Y-54720000D01*
X224425000Y-54690750D01*
X224266250Y-54532000D01*
X223417000Y-54532000D01*
X223417000Y-54552000D01*
X223163000Y-54552000D01*
X223163000Y-54532000D01*
X222313750Y-54532000D01*
X222155000Y-54690750D01*
X218133028Y-54690750D01*
X218235000Y-54444569D01*
X218235000Y-53778691D01*
X222155000Y-53778691D01*
X222155000Y-54119250D01*
X222313750Y-54278000D01*
X223163000Y-54278000D01*
X223163000Y-54258000D01*
X223417000Y-54258000D01*
X223417000Y-54278000D01*
X224266250Y-54278000D01*
X224425000Y-54119250D01*
X224425000Y-54090000D01*
X224504250Y-54090000D01*
X224663000Y-53931250D01*
X224663000Y-53057000D01*
X224917000Y-53057000D01*
X224917000Y-53931250D01*
X225075750Y-54090000D01*
X225142560Y-54090000D01*
X225142560Y-54720000D01*
X225075750Y-54720000D01*
X224917000Y-54878750D01*
X224917000Y-55753000D01*
X226366250Y-55753000D01*
X226525000Y-55594250D01*
X226525000Y-55552440D01*
X226790000Y-55552440D01*
X227037765Y-55503157D01*
X227247809Y-55362809D01*
X227361607Y-55192500D01*
X227965439Y-55192500D01*
X228043000Y-55207928D01*
X228120561Y-55192500D01*
X228120562Y-55192500D01*
X228350267Y-55146809D01*
X228610756Y-54972756D01*
X228654694Y-54906998D01*
X228814192Y-54747500D01*
X229188393Y-54747500D01*
X229302191Y-54917809D01*
X229363320Y-54958655D01*
X229221673Y-55100301D01*
X229125000Y-55333690D01*
X229125000Y-55674250D01*
X229283750Y-55833000D01*
X230633000Y-55833000D01*
X230633000Y-55813000D01*
X230887000Y-55813000D01*
X230887000Y-55833000D01*
X232236250Y-55833000D01*
X232395000Y-55674250D01*
X232395000Y-55333690D01*
X232298327Y-55100301D01*
X232156680Y-54958655D01*
X232217809Y-54917809D01*
X232358157Y-54707765D01*
X232407440Y-54460000D01*
X232407440Y-53460000D01*
X232382316Y-53333690D01*
X245125000Y-53333690D01*
X245125000Y-53674250D01*
X245283750Y-53833000D01*
X246633000Y-53833000D01*
X246633000Y-52983750D01*
X246887000Y-52983750D01*
X246887000Y-53833000D01*
X248236250Y-53833000D01*
X248395000Y-53674250D01*
X248395000Y-53333690D01*
X248298327Y-53100301D01*
X248119698Y-52921673D01*
X247886309Y-52825000D01*
X247045750Y-52825000D01*
X246887000Y-52983750D01*
X246633000Y-52983750D01*
X246474250Y-52825000D01*
X245633691Y-52825000D01*
X245400302Y-52921673D01*
X245221673Y-53100301D01*
X245125000Y-53333690D01*
X232382316Y-53333690D01*
X232358157Y-53212235D01*
X232217809Y-53002191D01*
X232007765Y-52861843D01*
X231760000Y-52812560D01*
X229760000Y-52812560D01*
X229512235Y-52861843D01*
X229302191Y-53002191D01*
X229188393Y-53172500D01*
X228565560Y-53172500D01*
X228487999Y-53157072D01*
X228410438Y-53172500D01*
X228180733Y-53218191D01*
X227920244Y-53392244D01*
X227876306Y-53458002D01*
X227716808Y-53617500D01*
X227361607Y-53617500D01*
X227247809Y-53447191D01*
X227037765Y-53306843D01*
X226790000Y-53257560D01*
X226525000Y-53257560D01*
X226525000Y-53215750D01*
X226366250Y-53057000D01*
X224917000Y-53057000D01*
X224663000Y-53057000D01*
X223213750Y-53057000D01*
X223055000Y-53215750D01*
X223055000Y-53320750D01*
X223004250Y-53270000D01*
X222663690Y-53270000D01*
X222430301Y-53366673D01*
X222251673Y-53545302D01*
X222155000Y-53778691D01*
X218235000Y-53778691D01*
X218235000Y-53555431D01*
X217894741Y-52733974D01*
X217439458Y-52278691D01*
X223055000Y-52278691D01*
X223055000Y-52644250D01*
X223213750Y-52803000D01*
X224663000Y-52803000D01*
X224663000Y-51928750D01*
X224917000Y-51928750D01*
X224917000Y-52803000D01*
X226366250Y-52803000D01*
X226525000Y-52644250D01*
X226525000Y-52278691D01*
X226428327Y-52045302D01*
X226249699Y-51866673D01*
X226016310Y-51770000D01*
X225075750Y-51770000D01*
X224917000Y-51928750D01*
X224663000Y-51928750D01*
X224504250Y-51770000D01*
X223563690Y-51770000D01*
X223330301Y-51866673D01*
X223151673Y-52045302D01*
X223055000Y-52278691D01*
X217439458Y-52278691D01*
X217266026Y-52105259D01*
X216444569Y-51765000D01*
X215555431Y-51765000D01*
X214733974Y-52105259D01*
X214105259Y-52733974D01*
X213765000Y-53555431D01*
X176235000Y-53555431D01*
X175894741Y-52733974D01*
X175266026Y-52105259D01*
X174444569Y-51765000D01*
X173555431Y-51765000D01*
X172733974Y-52105259D01*
X172105259Y-52733974D01*
X171765000Y-53555431D01*
X170735000Y-53555431D01*
X170735000Y-50735000D01*
X252265001Y-50735000D01*
X252265000Y-132265000D01*
X252265000Y-132265000D01*
G37*
X252265000Y-132265000D02*
X170735000Y-132265000D01*
X170735000Y-128755431D01*
X171765000Y-128755431D01*
X171765000Y-129644569D01*
X172105259Y-130466026D01*
X172733974Y-131094741D01*
X173555431Y-131435000D01*
X174444569Y-131435000D01*
X175266026Y-131094741D01*
X175894741Y-130466026D01*
X176235000Y-129644569D01*
X176235000Y-128755431D01*
X175894741Y-127933974D01*
X175266026Y-127305259D01*
X174444569Y-126965000D01*
X173555431Y-126965000D01*
X172733974Y-127305259D01*
X172105259Y-127933974D01*
X171765000Y-128755431D01*
X170735000Y-128755431D01*
X170735000Y-75874778D01*
X172355000Y-75874778D01*
X172355000Y-76525222D01*
X172603914Y-77126153D01*
X172947761Y-77470000D01*
X172603914Y-77813847D01*
X172355000Y-78414778D01*
X172355000Y-79065222D01*
X172603914Y-79666153D01*
X172947761Y-80010000D01*
X172603914Y-80353847D01*
X172355000Y-80954778D01*
X172355000Y-81605222D01*
X172603914Y-82206153D01*
X172947761Y-82550000D01*
X172603914Y-82893847D01*
X172355000Y-83494778D01*
X172355000Y-84145222D01*
X172603914Y-84746153D01*
X172947761Y-85090000D01*
X172603914Y-85433847D01*
X172355000Y-86034778D01*
X172355000Y-86685222D01*
X172603914Y-87286153D01*
X172947761Y-87630000D01*
X172603914Y-87973847D01*
X172355000Y-88574778D01*
X172355000Y-89225222D01*
X172603914Y-89826153D01*
X172947761Y-90170000D01*
X172603914Y-90513847D01*
X172355000Y-91114778D01*
X172355000Y-91765222D01*
X172603914Y-92366153D01*
X172947761Y-92710000D01*
X172603914Y-93053847D01*
X172355000Y-93654778D01*
X172355000Y-94305222D01*
X172603914Y-94906153D01*
X172947761Y-95250000D01*
X172603914Y-95593847D01*
X172355000Y-96194778D01*
X172355000Y-96845222D01*
X172603914Y-97446153D01*
X172947761Y-97790000D01*
X172603914Y-98133847D01*
X172355000Y-98734778D01*
X172355000Y-99385222D01*
X172603914Y-99986153D01*
X172947761Y-100330000D01*
X172603914Y-100673847D01*
X172355000Y-101274778D01*
X172355000Y-101925222D01*
X172603914Y-102526153D01*
X172947761Y-102870000D01*
X172603914Y-103213847D01*
X172355000Y-103814778D01*
X172355000Y-104465222D01*
X172603914Y-105066153D01*
X172947761Y-105410000D01*
X172603914Y-105753847D01*
X172355000Y-106354778D01*
X172355000Y-107005222D01*
X172603914Y-107606153D01*
X172947761Y-107950000D01*
X172603914Y-108293847D01*
X172355000Y-108894778D01*
X172355000Y-109545222D01*
X172603914Y-110146153D01*
X172947761Y-110490000D01*
X172603914Y-110833847D01*
X172355000Y-111434778D01*
X172355000Y-112085222D01*
X172603914Y-112686153D01*
X172947761Y-113030000D01*
X172603914Y-113373847D01*
X172355000Y-113974778D01*
X172355000Y-114625222D01*
X172603914Y-115226153D01*
X172947761Y-115570000D01*
X172603914Y-115913847D01*
X172355000Y-116514778D01*
X172355000Y-117165222D01*
X172603914Y-117766153D01*
X172947761Y-118110000D01*
X172603914Y-118453847D01*
X172355000Y-119054778D01*
X172355000Y-119705222D01*
X172603914Y-120306153D01*
X172947761Y-120650000D01*
X172603914Y-120993847D01*
X172355000Y-121594778D01*
X172355000Y-122245222D01*
X172603914Y-122846153D01*
X172947761Y-123190000D01*
X172603914Y-123533847D01*
X172355000Y-124134778D01*
X172355000Y-124785222D01*
X172603914Y-125386153D01*
X173063847Y-125846086D01*
X173664778Y-126095000D01*
X174315222Y-126095000D01*
X174916153Y-125846086D01*
X175260000Y-125502239D01*
X175603847Y-125846086D01*
X176204778Y-126095000D01*
X176855222Y-126095000D01*
X177456153Y-125846086D01*
X177800000Y-125502239D01*
X178027761Y-125730000D01*
X177683914Y-126073847D01*
X177435000Y-126674778D01*
X177435000Y-127325222D01*
X177683914Y-127926153D01*
X178027761Y-128270000D01*
X177683914Y-128613847D01*
X177435000Y-129214778D01*
X177435000Y-129865222D01*
X177683914Y-130466153D01*
X178143847Y-130926086D01*
X178744778Y-131175000D01*
X179395222Y-131175000D01*
X179996153Y-130926086D01*
X180340000Y-130582239D01*
X180683847Y-130926086D01*
X181284778Y-131175000D01*
X181935222Y-131175000D01*
X182536153Y-130926086D01*
X182880000Y-130582239D01*
X183223847Y-130926086D01*
X183824778Y-131175000D01*
X184475222Y-131175000D01*
X185076153Y-130926086D01*
X185420000Y-130582239D01*
X185763847Y-130926086D01*
X186364778Y-131175000D01*
X187015222Y-131175000D01*
X187616153Y-130926086D01*
X187960000Y-130582239D01*
X188303847Y-130926086D01*
X188904778Y-131175000D01*
X189555222Y-131175000D01*
X190156153Y-130926086D01*
X190500000Y-130582239D01*
X190843847Y-130926086D01*
X191444778Y-131175000D01*
X192095222Y-131175000D01*
X192696153Y-130926086D01*
X193040000Y-130582239D01*
X193383847Y-130926086D01*
X193984778Y-131175000D01*
X194635222Y-131175000D01*
X195236153Y-130926086D01*
X195580000Y-130582239D01*
X195923847Y-130926086D01*
X196524778Y-131175000D01*
X197175222Y-131175000D01*
X197776153Y-130926086D01*
X198120000Y-130582239D01*
X198463847Y-130926086D01*
X199064778Y-131175000D01*
X199715222Y-131175000D01*
X200316153Y-130926086D01*
X200660000Y-130582239D01*
X201003847Y-130926086D01*
X201604778Y-131175000D01*
X202255222Y-131175000D01*
X202856153Y-130926086D01*
X203200000Y-130582239D01*
X203543847Y-130926086D01*
X204144778Y-131175000D01*
X204795222Y-131175000D01*
X205396153Y-130926086D01*
X205740000Y-130582239D01*
X206083847Y-130926086D01*
X206684778Y-131175000D01*
X207335222Y-131175000D01*
X207936153Y-130926086D01*
X208280000Y-130582239D01*
X208623847Y-130926086D01*
X209224778Y-131175000D01*
X209875222Y-131175000D01*
X210476153Y-130926086D01*
X210820000Y-130582239D01*
X211163847Y-130926086D01*
X211764778Y-131175000D01*
X212415222Y-131175000D01*
X213016153Y-130926086D01*
X213360000Y-130582239D01*
X213703847Y-130926086D01*
X214304778Y-131175000D01*
X214955222Y-131175000D01*
X215556153Y-130926086D01*
X215900000Y-130582239D01*
X216243847Y-130926086D01*
X216844778Y-131175000D01*
X217495222Y-131175000D01*
X218096153Y-130926086D01*
X218440000Y-130582239D01*
X218783847Y-130926086D01*
X219384778Y-131175000D01*
X220035222Y-131175000D01*
X220636153Y-130926086D01*
X221088147Y-130474092D01*
X221179375Y-130610625D01*
X221670582Y-130938839D01*
X222103744Y-131025000D01*
X222396256Y-131025000D01*
X222829418Y-130938839D01*
X223320625Y-130610625D01*
X223509803Y-130327500D01*
X224800197Y-130327500D01*
X224989375Y-130610625D01*
X225480582Y-130938839D01*
X225913744Y-131025000D01*
X226206256Y-131025000D01*
X226639418Y-130938839D01*
X227130625Y-130610625D01*
X227319803Y-130327500D01*
X232194091Y-130327500D01*
X232195680Y-130331337D01*
X232588663Y-130724320D01*
X233102119Y-130937000D01*
X233657881Y-130937000D01*
X234171337Y-130724320D01*
X234564320Y-130331337D01*
X234565909Y-130327500D01*
X236894541Y-130327500D01*
X236936064Y-130369023D01*
X237295484Y-130517900D01*
X237684516Y-130517900D01*
X238043936Y-130369023D01*
X238085459Y-130327500D01*
X247434091Y-130327500D01*
X247435680Y-130331337D01*
X247828663Y-130724320D01*
X248342119Y-130937000D01*
X248897881Y-130937000D01*
X249411337Y-130724320D01*
X249804320Y-130331337D01*
X250017000Y-129817881D01*
X250017000Y-129262119D01*
X249804320Y-128748663D01*
X249411337Y-128355680D01*
X249204487Y-128270000D01*
X249411337Y-128184320D01*
X249804320Y-127791337D01*
X250017000Y-127277881D01*
X250017000Y-126722119D01*
X249804320Y-126208663D01*
X249411337Y-125815680D01*
X249204487Y-125730000D01*
X249411337Y-125644320D01*
X249804320Y-125251337D01*
X250017000Y-124737881D01*
X250017000Y-124182119D01*
X249804320Y-123668663D01*
X249411337Y-123275680D01*
X249204487Y-123190000D01*
X249411337Y-123104320D01*
X249804320Y-122711337D01*
X250017000Y-122197881D01*
X250017000Y-121642119D01*
X249804320Y-121128663D01*
X249411337Y-120735680D01*
X249204487Y-120650000D01*
X249411337Y-120564320D01*
X249804320Y-120171337D01*
X250017000Y-119657881D01*
X250017000Y-119102119D01*
X249804320Y-118588663D01*
X249411337Y-118195680D01*
X249204487Y-118110000D01*
X249411337Y-118024320D01*
X249804320Y-117631337D01*
X250017000Y-117117881D01*
X250017000Y-116562119D01*
X249804320Y-116048663D01*
X249411337Y-115655680D01*
X249204487Y-115570000D01*
X249411337Y-115484320D01*
X249804320Y-115091337D01*
X250017000Y-114577881D01*
X250017000Y-114022119D01*
X249804320Y-113508663D01*
X249411337Y-113115680D01*
X249204487Y-113030000D01*
X249411337Y-112944320D01*
X249804320Y-112551337D01*
X250017000Y-112037881D01*
X250017000Y-111482119D01*
X249804320Y-110968663D01*
X249411337Y-110575680D01*
X249204487Y-110490000D01*
X249411337Y-110404320D01*
X249804320Y-110011337D01*
X250017000Y-109497881D01*
X250017000Y-108942119D01*
X249804320Y-108428663D01*
X249411337Y-108035680D01*
X249204487Y-107950000D01*
X249411337Y-107864320D01*
X249804320Y-107471337D01*
X250017000Y-106957881D01*
X250017000Y-106402119D01*
X249804320Y-105888663D01*
X249411337Y-105495680D01*
X249204487Y-105410000D01*
X249411337Y-105324320D01*
X249804320Y-104931337D01*
X250017000Y-104417881D01*
X250017000Y-103862119D01*
X249804320Y-103348663D01*
X249411337Y-102955680D01*
X249204487Y-102870000D01*
X249411337Y-102784320D01*
X249804320Y-102391337D01*
X250017000Y-101877881D01*
X250017000Y-101322119D01*
X249804320Y-100808663D01*
X249411337Y-100415680D01*
X249204487Y-100330000D01*
X249411337Y-100244320D01*
X249804320Y-99851337D01*
X250017000Y-99337881D01*
X250017000Y-98782119D01*
X249804320Y-98268663D01*
X249411337Y-97875680D01*
X249204487Y-97790000D01*
X249411337Y-97704320D01*
X249804320Y-97311337D01*
X250017000Y-96797881D01*
X250017000Y-96242119D01*
X249804320Y-95728663D01*
X249411337Y-95335680D01*
X249204487Y-95250000D01*
X249411337Y-95164320D01*
X249804320Y-94771337D01*
X250017000Y-94257881D01*
X250017000Y-93702119D01*
X249804320Y-93188663D01*
X249411337Y-92795680D01*
X249204487Y-92710000D01*
X249411337Y-92624320D01*
X249804320Y-92231337D01*
X250017000Y-91717881D01*
X250017000Y-91162119D01*
X249804320Y-90648663D01*
X249411337Y-90255680D01*
X249204487Y-90170000D01*
X249411337Y-90084320D01*
X249804320Y-89691337D01*
X250017000Y-89177881D01*
X250017000Y-88622119D01*
X249804320Y-88108663D01*
X249411337Y-87715680D01*
X249204487Y-87630000D01*
X249411337Y-87544320D01*
X249804320Y-87151337D01*
X250017000Y-86637881D01*
X250017000Y-86082119D01*
X249804320Y-85568663D01*
X249411337Y-85175680D01*
X249220353Y-85096572D01*
X249351143Y-85042397D01*
X249420608Y-84800213D01*
X248620000Y-83999605D01*
X247819392Y-84800213D01*
X247888857Y-85042397D01*
X248029393Y-85092535D01*
X247828663Y-85175680D01*
X247435680Y-85568663D01*
X247223000Y-86082119D01*
X247223000Y-86637881D01*
X247435680Y-87151337D01*
X247828663Y-87544320D01*
X248035513Y-87630000D01*
X247828663Y-87715680D01*
X247435680Y-88108663D01*
X247223000Y-88622119D01*
X247223000Y-89177881D01*
X247435680Y-89691337D01*
X247828663Y-90084320D01*
X248035513Y-90170000D01*
X247828663Y-90255680D01*
X247435680Y-90648663D01*
X247223000Y-91162119D01*
X247223000Y-91717881D01*
X247435680Y-92231337D01*
X247828663Y-92624320D01*
X248035513Y-92710000D01*
X247828663Y-92795680D01*
X247435680Y-93188663D01*
X247223000Y-93702119D01*
X247223000Y-94257881D01*
X247435680Y-94771337D01*
X247828663Y-95164320D01*
X248035513Y-95250000D01*
X247828663Y-95335680D01*
X247435680Y-95728663D01*
X247223000Y-96242119D01*
X247223000Y-96797881D01*
X247435680Y-97311337D01*
X247828663Y-97704320D01*
X248035513Y-97790000D01*
X247828663Y-97875680D01*
X247435680Y-98268663D01*
X247223000Y-98782119D01*
X247223000Y-99337881D01*
X247435680Y-99851337D01*
X247828663Y-100244320D01*
X248035513Y-100330000D01*
X247828663Y-100415680D01*
X247435680Y-100808663D01*
X247223000Y-101322119D01*
X247223000Y-101877881D01*
X247435680Y-102391337D01*
X247828663Y-102784320D01*
X248035513Y-102870000D01*
X247828663Y-102955680D01*
X247435680Y-103348663D01*
X247223000Y-103862119D01*
X247223000Y-104417881D01*
X247435680Y-104931337D01*
X247828663Y-105324320D01*
X248035513Y-105410000D01*
X247828663Y-105495680D01*
X247435680Y-105888663D01*
X247223000Y-106402119D01*
X247223000Y-106957881D01*
X247435680Y-107471337D01*
X247828663Y-107864320D01*
X248035513Y-107950000D01*
X247828663Y-108035680D01*
X247435680Y-108428663D01*
X247223000Y-108942119D01*
X247223000Y-109497881D01*
X247435680Y-110011337D01*
X247828663Y-110404320D01*
X248035513Y-110490000D01*
X247828663Y-110575680D01*
X247435680Y-110968663D01*
X247223000Y-111482119D01*
X247223000Y-112037881D01*
X247435680Y-112551337D01*
X247828663Y-112944320D01*
X248035513Y-113030000D01*
X247828663Y-113115680D01*
X247435680Y-113508663D01*
X247223000Y-114022119D01*
X247223000Y-114577881D01*
X247435680Y-115091337D01*
X247828663Y-115484320D01*
X248035513Y-115570000D01*
X247828663Y-115655680D01*
X247435680Y-116048663D01*
X247223000Y-116562119D01*
X247223000Y-117117881D01*
X247435680Y-117631337D01*
X247828663Y-118024320D01*
X248035513Y-118110000D01*
X247828663Y-118195680D01*
X247435680Y-118588663D01*
X247223000Y-119102119D01*
X247223000Y-119657881D01*
X247435680Y-120171337D01*
X247828663Y-120564320D01*
X248035513Y-120650000D01*
X247828663Y-120735680D01*
X247435680Y-121128663D01*
X247223000Y-121642119D01*
X247223000Y-122197881D01*
X247435680Y-122711337D01*
X247828663Y-123104320D01*
X248035513Y-123190000D01*
X247828663Y-123275680D01*
X247435680Y-123668663D01*
X247223000Y-124182119D01*
X247223000Y-124737881D01*
X247435680Y-125251337D01*
X247828663Y-125644320D01*
X248035513Y-125730000D01*
X247828663Y-125815680D01*
X247435680Y-126208663D01*
X247223000Y-126722119D01*
X247223000Y-127277881D01*
X247435680Y-127791337D01*
X247828663Y-128184320D01*
X248035513Y-128270000D01*
X247828663Y-128355680D01*
X247435680Y-128748663D01*
X247434091Y-128752500D01*
X238085459Y-128752500D01*
X238043936Y-128710977D01*
X237684516Y-128562100D01*
X237295484Y-128562100D01*
X236936064Y-128710977D01*
X236894541Y-128752500D01*
X234565909Y-128752500D01*
X234564320Y-128748663D01*
X234171337Y-128355680D01*
X233980353Y-128276572D01*
X234111143Y-128222397D01*
X234180608Y-127980213D01*
X233380000Y-127179605D01*
X232579392Y-127980213D01*
X232648857Y-128222397D01*
X232789393Y-128272535D01*
X232588663Y-128355680D01*
X232195680Y-128748663D01*
X232194091Y-128752500D01*
X227319803Y-128752500D01*
X227130625Y-128469375D01*
X226811522Y-128256157D01*
X226941358Y-128195183D01*
X227331645Y-127766924D01*
X227501476Y-127356890D01*
X227380155Y-127127000D01*
X226187000Y-127127000D01*
X226187000Y-127147000D01*
X225933000Y-127147000D01*
X225933000Y-127127000D01*
X224739845Y-127127000D01*
X224618524Y-127356890D01*
X224788355Y-127766924D01*
X225178642Y-128195183D01*
X225308478Y-128256157D01*
X224989375Y-128469375D01*
X224800197Y-128752500D01*
X223509803Y-128752500D01*
X223320625Y-128469375D01*
X223001522Y-128256157D01*
X223131358Y-128195183D01*
X223521645Y-127766924D01*
X223691476Y-127356890D01*
X223570155Y-127127000D01*
X222377000Y-127127000D01*
X222377000Y-127147000D01*
X222123000Y-127147000D01*
X222123000Y-127127000D01*
X222103000Y-127127000D01*
X222103000Y-126873000D01*
X222123000Y-126873000D01*
X222123000Y-126853000D01*
X222377000Y-126853000D01*
X222377000Y-126873000D01*
X223570155Y-126873000D01*
X223691476Y-126643110D01*
X223521645Y-126233076D01*
X223131358Y-125804817D01*
X223001522Y-125743843D01*
X223320625Y-125530625D01*
X223509803Y-125247500D01*
X224562560Y-125247500D01*
X224562560Y-125310000D01*
X224611843Y-125557765D01*
X224752191Y-125767809D01*
X224962235Y-125908157D01*
X225065708Y-125928739D01*
X224788355Y-126233076D01*
X224618524Y-126643110D01*
X224739845Y-126873000D01*
X225933000Y-126873000D01*
X225933000Y-126853000D01*
X226187000Y-126853000D01*
X226187000Y-126873000D01*
X227380155Y-126873000D01*
X227422742Y-126792302D01*
X231970856Y-126792302D01*
X231998638Y-127347368D01*
X232157603Y-127731143D01*
X232399787Y-127800608D01*
X233200395Y-127000000D01*
X233559605Y-127000000D01*
X234360213Y-127800608D01*
X234602397Y-127731143D01*
X234789144Y-127207698D01*
X234761362Y-126652632D01*
X234602397Y-126268857D01*
X234360213Y-126199392D01*
X233559605Y-127000000D01*
X233200395Y-127000000D01*
X232399787Y-126199392D01*
X232157603Y-126268857D01*
X231970856Y-126792302D01*
X227422742Y-126792302D01*
X227501476Y-126643110D01*
X227331645Y-126233076D01*
X227054292Y-125928739D01*
X227157765Y-125908157D01*
X227367809Y-125767809D01*
X227508157Y-125557765D01*
X227557440Y-125310000D01*
X227557440Y-125247500D01*
X232194091Y-125247500D01*
X232195680Y-125251337D01*
X232588663Y-125644320D01*
X232779647Y-125723428D01*
X232648857Y-125777603D01*
X232579392Y-126019787D01*
X233380000Y-126820395D01*
X234180608Y-126019787D01*
X234111143Y-125777603D01*
X233970607Y-125727465D01*
X234171337Y-125644320D01*
X234564320Y-125251337D01*
X234777000Y-124737881D01*
X234777000Y-124555431D01*
X240765000Y-124555431D01*
X240765000Y-125444569D01*
X241105259Y-126266026D01*
X241733974Y-126894741D01*
X242555431Y-127235000D01*
X243444569Y-127235000D01*
X244266026Y-126894741D01*
X244894741Y-126266026D01*
X245235000Y-125444569D01*
X245235000Y-124555431D01*
X244894741Y-123733974D01*
X244266026Y-123105259D01*
X243444569Y-122765000D01*
X242555431Y-122765000D01*
X241733974Y-123105259D01*
X241105259Y-123733974D01*
X240765000Y-124555431D01*
X234777000Y-124555431D01*
X234777000Y-124182119D01*
X234564320Y-123668663D01*
X234171337Y-123275680D01*
X233964487Y-123190000D01*
X234171337Y-123104320D01*
X234564320Y-122711337D01*
X234777000Y-122197881D01*
X234777000Y-121642119D01*
X234564320Y-121128663D01*
X234171337Y-120735680D01*
X233964487Y-120650000D01*
X234171337Y-120564320D01*
X234564320Y-120171337D01*
X234777000Y-119657881D01*
X234777000Y-119102119D01*
X234564320Y-118588663D01*
X234171337Y-118195680D01*
X233964487Y-118110000D01*
X234171337Y-118024320D01*
X234564320Y-117631337D01*
X234777000Y-117117881D01*
X234777000Y-116562119D01*
X234564320Y-116048663D01*
X234171337Y-115655680D01*
X233964487Y-115570000D01*
X234171337Y-115484320D01*
X234564320Y-115091337D01*
X234777000Y-114577881D01*
X234777000Y-114022119D01*
X234564320Y-113508663D01*
X234171337Y-113115680D01*
X233964487Y-113030000D01*
X234171337Y-112944320D01*
X234564320Y-112551337D01*
X234777000Y-112037881D01*
X234777000Y-111482119D01*
X234564320Y-110968663D01*
X234171337Y-110575680D01*
X233964487Y-110490000D01*
X234171337Y-110404320D01*
X234564320Y-110011337D01*
X234777000Y-109497881D01*
X234777000Y-108942119D01*
X234564320Y-108428663D01*
X234171337Y-108035680D01*
X233964487Y-107950000D01*
X234171337Y-107864320D01*
X234564320Y-107471337D01*
X234777000Y-106957881D01*
X234777000Y-106402119D01*
X234564320Y-105888663D01*
X234171337Y-105495680D01*
X233964487Y-105410000D01*
X234171337Y-105324320D01*
X234564320Y-104931337D01*
X234777000Y-104417881D01*
X234777000Y-103862119D01*
X234564320Y-103348663D01*
X234171337Y-102955680D01*
X233964487Y-102870000D01*
X234171337Y-102784320D01*
X234564320Y-102391337D01*
X234777000Y-101877881D01*
X234777000Y-101322119D01*
X234564320Y-100808663D01*
X234171337Y-100415680D01*
X233964487Y-100330000D01*
X234171337Y-100244320D01*
X234564320Y-99851337D01*
X234777000Y-99337881D01*
X234777000Y-98782119D01*
X234564320Y-98268663D01*
X234171337Y-97875680D01*
X233964487Y-97790000D01*
X234171337Y-97704320D01*
X234564320Y-97311337D01*
X234777000Y-96797881D01*
X234777000Y-96242119D01*
X234564320Y-95728663D01*
X234171337Y-95335680D01*
X233964487Y-95250000D01*
X234171337Y-95164320D01*
X234564320Y-94771337D01*
X234777000Y-94257881D01*
X234777000Y-93702119D01*
X234564320Y-93188663D01*
X234171337Y-92795680D01*
X233964487Y-92710000D01*
X234171337Y-92624320D01*
X234564320Y-92231337D01*
X234565909Y-92227500D01*
X241222439Y-92227500D01*
X241300000Y-92242928D01*
X241377561Y-92227500D01*
X241377562Y-92227500D01*
X241607267Y-92181809D01*
X241867756Y-92007756D01*
X241911694Y-91941998D01*
X243072004Y-90781690D01*
X243137756Y-90737756D01*
X243311809Y-90477267D01*
X243357500Y-90247562D01*
X243357500Y-90247561D01*
X243372928Y-90170001D01*
X243357500Y-90092440D01*
X243357500Y-83612302D01*
X247210856Y-83612302D01*
X247238638Y-84167368D01*
X247397603Y-84551143D01*
X247639787Y-84620608D01*
X248440395Y-83820000D01*
X248799605Y-83820000D01*
X249600213Y-84620608D01*
X249842397Y-84551143D01*
X250029144Y-84027698D01*
X250001362Y-83472632D01*
X249842397Y-83088857D01*
X249600213Y-83019392D01*
X248799605Y-83820000D01*
X248440395Y-83820000D01*
X247639787Y-83019392D01*
X247397603Y-83088857D01*
X247210856Y-83612302D01*
X243357500Y-83612302D01*
X243357500Y-82260213D01*
X247819392Y-82260213D01*
X247888857Y-82502397D01*
X248012344Y-82546453D01*
X247888857Y-82597603D01*
X247819392Y-82839787D01*
X248620000Y-83640395D01*
X249420608Y-82839787D01*
X249351143Y-82597603D01*
X249227656Y-82553547D01*
X249351143Y-82502397D01*
X249420608Y-82260213D01*
X248620000Y-81459605D01*
X247819392Y-82260213D01*
X243357500Y-82260213D01*
X243357500Y-81072302D01*
X247210856Y-81072302D01*
X247238638Y-81627368D01*
X247397603Y-82011143D01*
X247639787Y-82080608D01*
X248440395Y-81280000D01*
X248799605Y-81280000D01*
X249600213Y-82080608D01*
X249842397Y-82011143D01*
X250029144Y-81487698D01*
X250001362Y-80932632D01*
X249842397Y-80548857D01*
X249600213Y-80479392D01*
X248799605Y-81280000D01*
X248440395Y-81280000D01*
X247639787Y-80479392D01*
X247397603Y-80548857D01*
X247210856Y-81072302D01*
X243357500Y-81072302D01*
X243357500Y-80299787D01*
X247819392Y-80299787D01*
X248620000Y-81100395D01*
X249420608Y-80299787D01*
X249351143Y-80057603D01*
X248827698Y-79870856D01*
X248272632Y-79898638D01*
X247888857Y-80057603D01*
X247819392Y-80299787D01*
X243357500Y-80299787D01*
X243357500Y-73986192D01*
X244166194Y-73177500D01*
X249477439Y-73177500D01*
X249555000Y-73192928D01*
X249632561Y-73177500D01*
X249632562Y-73177500D01*
X249862267Y-73131809D01*
X250122756Y-72957756D01*
X250166694Y-72891998D01*
X251327004Y-71731690D01*
X251392756Y-71687756D01*
X251566809Y-71427267D01*
X251612500Y-71197562D01*
X251612500Y-71197561D01*
X251627928Y-71120001D01*
X251612500Y-71042440D01*
X251612500Y-58497560D01*
X251627928Y-58419999D01*
X251612500Y-58342438D01*
X251566809Y-58112733D01*
X251392756Y-57852244D01*
X251327000Y-57808307D01*
X250976694Y-57458002D01*
X250932756Y-57392244D01*
X250672267Y-57218191D01*
X250442562Y-57172500D01*
X250442561Y-57172500D01*
X250365000Y-57157072D01*
X250287439Y-57172500D01*
X248331607Y-57172500D01*
X248217809Y-57002191D01*
X248154666Y-56960000D01*
X248217809Y-56917809D01*
X248358157Y-56707765D01*
X248407440Y-56460000D01*
X248407440Y-55460000D01*
X248358157Y-55212235D01*
X248217809Y-55002191D01*
X248156680Y-54961345D01*
X248298327Y-54819699D01*
X248395000Y-54586310D01*
X248395000Y-54245750D01*
X248236250Y-54087000D01*
X246887000Y-54087000D01*
X246887000Y-54107000D01*
X246633000Y-54107000D01*
X246633000Y-54087000D01*
X245283750Y-54087000D01*
X245125000Y-54245750D01*
X245125000Y-54586310D01*
X245221673Y-54819699D01*
X245363320Y-54961345D01*
X245302191Y-55002191D01*
X245161843Y-55212235D01*
X245112560Y-55460000D01*
X245112560Y-56460000D01*
X245161843Y-56707765D01*
X245302191Y-56917809D01*
X245365334Y-56960000D01*
X245302191Y-57002191D01*
X245161843Y-57212235D01*
X245112560Y-57460000D01*
X245112560Y-58460000D01*
X245161843Y-58707765D01*
X245302191Y-58917809D01*
X245365334Y-58960000D01*
X245302191Y-59002191D01*
X245188393Y-59172500D01*
X239837561Y-59172500D01*
X239760000Y-59157072D01*
X239682439Y-59172500D01*
X239682438Y-59172500D01*
X239452733Y-59218191D01*
X239192244Y-59392244D01*
X239148308Y-59457999D01*
X236988002Y-61618306D01*
X236922244Y-61662244D01*
X236748191Y-61922734D01*
X236721928Y-62054767D01*
X236687072Y-62230000D01*
X236702500Y-62307561D01*
X236702501Y-79683805D01*
X235893808Y-80492500D01*
X234565909Y-80492500D01*
X234564320Y-80488663D01*
X234171337Y-80095680D01*
X233657881Y-79883000D01*
X233102119Y-79883000D01*
X232588663Y-80095680D01*
X232195680Y-80488663D01*
X232194091Y-80492500D01*
X223747440Y-80492500D01*
X223747440Y-80430000D01*
X223698157Y-80182235D01*
X223557809Y-79972191D01*
X223347765Y-79831843D01*
X223100000Y-79782560D01*
X221400000Y-79782560D01*
X221152235Y-79831843D01*
X220942191Y-79972191D01*
X220850962Y-80108723D01*
X220752239Y-80010000D01*
X221096086Y-79666153D01*
X221345000Y-79065222D01*
X221345000Y-78414778D01*
X221096086Y-77813847D01*
X220752239Y-77470000D01*
X221096086Y-77126153D01*
X221345000Y-76525222D01*
X221345000Y-75874778D01*
X221096086Y-75273847D01*
X220636153Y-74813914D01*
X220035222Y-74565000D01*
X219384778Y-74565000D01*
X218783847Y-74813914D01*
X218440000Y-75157761D01*
X218341277Y-75059038D01*
X218477809Y-74967809D01*
X218618157Y-74757765D01*
X218667440Y-74510000D01*
X218667440Y-72810000D01*
X218618157Y-72562235D01*
X218477809Y-72352191D01*
X218267765Y-72211843D01*
X218020000Y-72162560D01*
X216320000Y-72162560D01*
X216072235Y-72211843D01*
X215862191Y-72352191D01*
X215721843Y-72562235D01*
X215712816Y-72607619D01*
X215700625Y-72589375D01*
X215209418Y-72261161D01*
X214776256Y-72175000D01*
X214483744Y-72175000D01*
X214050582Y-72261161D01*
X213559375Y-72589375D01*
X213360000Y-72887761D01*
X213160625Y-72589375D01*
X212669418Y-72261161D01*
X212236256Y-72175000D01*
X211943744Y-72175000D01*
X211510582Y-72261161D01*
X211019375Y-72589375D01*
X210820000Y-72887761D01*
X210620625Y-72589375D01*
X210129418Y-72261161D01*
X209696256Y-72175000D01*
X209403744Y-72175000D01*
X208970582Y-72261161D01*
X208479375Y-72589375D01*
X208280000Y-72887761D01*
X208080625Y-72589375D01*
X207589418Y-72261161D01*
X207156256Y-72175000D01*
X206863744Y-72175000D01*
X206430582Y-72261161D01*
X205939375Y-72589375D01*
X205740000Y-72887761D01*
X205540625Y-72589375D01*
X205049418Y-72261161D01*
X204616256Y-72175000D01*
X204323744Y-72175000D01*
X203890582Y-72261161D01*
X203399375Y-72589375D01*
X203200000Y-72887761D01*
X203000625Y-72589375D01*
X202509418Y-72261161D01*
X202076256Y-72175000D01*
X201783744Y-72175000D01*
X201350582Y-72261161D01*
X200859375Y-72589375D01*
X200660000Y-72887761D01*
X200460625Y-72589375D01*
X199969418Y-72261161D01*
X199536256Y-72175000D01*
X199243744Y-72175000D01*
X198810582Y-72261161D01*
X198319375Y-72589375D01*
X198120000Y-72887761D01*
X197920625Y-72589375D01*
X197429418Y-72261161D01*
X196996256Y-72175000D01*
X196703744Y-72175000D01*
X196270582Y-72261161D01*
X195779375Y-72589375D01*
X195580000Y-72887761D01*
X195380625Y-72589375D01*
X194889418Y-72261161D01*
X194456256Y-72175000D01*
X194163744Y-72175000D01*
X193730582Y-72261161D01*
X193239375Y-72589375D01*
X193040000Y-72887761D01*
X192840625Y-72589375D01*
X192349418Y-72261161D01*
X191916256Y-72175000D01*
X191623744Y-72175000D01*
X191190582Y-72261161D01*
X190699375Y-72589375D01*
X190500000Y-72887761D01*
X190300625Y-72589375D01*
X189809418Y-72261161D01*
X189376256Y-72175000D01*
X189083744Y-72175000D01*
X188650582Y-72261161D01*
X188159375Y-72589375D01*
X187960000Y-72887761D01*
X187760625Y-72589375D01*
X187269418Y-72261161D01*
X186836256Y-72175000D01*
X186543744Y-72175000D01*
X186110582Y-72261161D01*
X185619375Y-72589375D01*
X185420000Y-72887761D01*
X185220625Y-72589375D01*
X184729418Y-72261161D01*
X184296256Y-72175000D01*
X184003744Y-72175000D01*
X183570582Y-72261161D01*
X183079375Y-72589375D01*
X182880000Y-72887761D01*
X182680625Y-72589375D01*
X182189418Y-72261161D01*
X181756256Y-72175000D01*
X181463744Y-72175000D01*
X181030582Y-72261161D01*
X180539375Y-72589375D01*
X180340000Y-72887761D01*
X180140625Y-72589375D01*
X179649418Y-72261161D01*
X179216256Y-72175000D01*
X178923744Y-72175000D01*
X178490582Y-72261161D01*
X177999375Y-72589375D01*
X177786157Y-72908478D01*
X177725183Y-72778642D01*
X177296924Y-72388355D01*
X176886890Y-72218524D01*
X176657000Y-72339845D01*
X176657000Y-73533000D01*
X176677000Y-73533000D01*
X176677000Y-73787000D01*
X176657000Y-73787000D01*
X176657000Y-73807000D01*
X176403000Y-73807000D01*
X176403000Y-73787000D01*
X174117000Y-73787000D01*
X174117000Y-73807000D01*
X173863000Y-73807000D01*
X173863000Y-73787000D01*
X172669181Y-73787000D01*
X172548514Y-74016892D01*
X172794817Y-74541358D01*
X173084502Y-74805358D01*
X173063847Y-74813914D01*
X172603914Y-75273847D01*
X172355000Y-75874778D01*
X170735000Y-75874778D01*
X170735000Y-73303108D01*
X172548514Y-73303108D01*
X172669181Y-73533000D01*
X173863000Y-73533000D01*
X173863000Y-72339845D01*
X174117000Y-72339845D01*
X174117000Y-73533000D01*
X176403000Y-73533000D01*
X176403000Y-72339845D01*
X176173110Y-72218524D01*
X175763076Y-72388355D01*
X175334817Y-72778642D01*
X175260000Y-72937954D01*
X175185183Y-72778642D01*
X174756924Y-72388355D01*
X174346890Y-72218524D01*
X174117000Y-72339845D01*
X173863000Y-72339845D01*
X173633110Y-72218524D01*
X173223076Y-72388355D01*
X172794817Y-72778642D01*
X172548514Y-73303108D01*
X170735000Y-73303108D01*
X170735000Y-58225484D01*
X223812100Y-58225484D01*
X223812100Y-58614516D01*
X223960977Y-58973936D01*
X224002500Y-59015459D01*
X224002501Y-61517433D01*
X223987072Y-61595000D01*
X224002500Y-61672562D01*
X224002501Y-68619540D01*
X223960977Y-68661064D01*
X223812100Y-69020484D01*
X223812100Y-69409516D01*
X223960977Y-69768936D01*
X224236064Y-70044023D01*
X224595484Y-70192900D01*
X224984516Y-70192900D01*
X225343936Y-70044023D01*
X225619023Y-69768936D01*
X225767900Y-69409516D01*
X225767900Y-69020484D01*
X225619023Y-68661064D01*
X225577500Y-68619541D01*
X225577500Y-62382500D01*
X225745382Y-62382500D01*
X225861369Y-62460000D01*
X225905233Y-62489309D01*
X226212500Y-62550428D01*
X226290062Y-62535000D01*
X226432036Y-62535000D01*
X226461261Y-62578739D01*
X226742273Y-62766505D01*
X227073750Y-62832440D01*
X227586250Y-62832440D01*
X227917727Y-62766505D01*
X227946170Y-62747500D01*
X229188393Y-62747500D01*
X229302191Y-62917809D01*
X229365334Y-62960000D01*
X229302191Y-63002191D01*
X229188393Y-63172500D01*
X226947556Y-63172500D01*
X226869999Y-63157073D01*
X226792442Y-63172500D01*
X226792438Y-63172500D01*
X226562733Y-63218191D01*
X226302244Y-63392244D01*
X226258306Y-63458002D01*
X226193000Y-63523308D01*
X226127245Y-63567244D01*
X226083309Y-63632999D01*
X225953192Y-63827733D01*
X225892072Y-64135000D01*
X225907501Y-64212566D01*
X225907500Y-76757439D01*
X225892072Y-76835000D01*
X225907500Y-76912561D01*
X225953191Y-77142266D01*
X226127244Y-77402756D01*
X226193002Y-77446694D01*
X227622100Y-78875793D01*
X227622100Y-78934516D01*
X227770977Y-79293936D01*
X228046064Y-79569023D01*
X228405484Y-79717900D01*
X228794516Y-79717900D01*
X229153936Y-79569023D01*
X229235000Y-79487959D01*
X229316064Y-79569023D01*
X229675484Y-79717900D01*
X230064516Y-79717900D01*
X230423936Y-79569023D01*
X230505000Y-79487959D01*
X230586064Y-79569023D01*
X230945484Y-79717900D01*
X231334516Y-79717900D01*
X231693936Y-79569023D01*
X231969023Y-79293936D01*
X232117900Y-78934516D01*
X232117900Y-78545484D01*
X231969023Y-78186064D01*
X231693936Y-77910977D01*
X231334516Y-77762100D01*
X231275794Y-77762100D01*
X228752500Y-75238808D01*
X228752500Y-68906192D01*
X228911193Y-68747500D01*
X229188393Y-68747500D01*
X229302191Y-68917809D01*
X229512235Y-69058157D01*
X229760000Y-69107440D01*
X231760000Y-69107440D01*
X232007765Y-69058157D01*
X232217809Y-68917809D01*
X232358157Y-68707765D01*
X232407440Y-68460000D01*
X232407440Y-67460000D01*
X232358157Y-67212235D01*
X232217809Y-67002191D01*
X232154666Y-66960000D01*
X232217809Y-66917809D01*
X232358157Y-66707765D01*
X232407440Y-66460000D01*
X232407440Y-65460000D01*
X232358157Y-65212235D01*
X232217809Y-65002191D01*
X232154666Y-64960000D01*
X232217809Y-64917809D01*
X232358157Y-64707765D01*
X232407440Y-64460000D01*
X232407440Y-63460000D01*
X232358157Y-63212235D01*
X232217809Y-63002191D01*
X232154666Y-62960000D01*
X232217809Y-62917809D01*
X232358157Y-62707765D01*
X232407440Y-62460000D01*
X232407440Y-61460000D01*
X232358157Y-61212235D01*
X232217809Y-61002191D01*
X232154666Y-60960000D01*
X232217809Y-60917809D01*
X232358157Y-60707765D01*
X232407440Y-60460000D01*
X232407440Y-59460000D01*
X232358157Y-59212235D01*
X232217809Y-59002191D01*
X232154666Y-58960000D01*
X232217809Y-58917809D01*
X232358157Y-58707765D01*
X232407440Y-58460000D01*
X232407440Y-57460000D01*
X232358157Y-57212235D01*
X232217809Y-57002191D01*
X232156680Y-56961345D01*
X232298327Y-56819699D01*
X232395000Y-56586310D01*
X232395000Y-56245750D01*
X232236250Y-56087000D01*
X230887000Y-56087000D01*
X230887000Y-56107000D01*
X230633000Y-56107000D01*
X230633000Y-56087000D01*
X229283750Y-56087000D01*
X229125000Y-56245750D01*
X229125000Y-56586310D01*
X229221673Y-56819699D01*
X229363320Y-56961345D01*
X229302191Y-57002191D01*
X229161843Y-57212235D01*
X229112560Y-57460000D01*
X229112560Y-58460000D01*
X229161843Y-58707765D01*
X229302191Y-58917809D01*
X229365334Y-58960000D01*
X229302191Y-59002191D01*
X229161843Y-59212235D01*
X229112560Y-59460000D01*
X229112560Y-60460000D01*
X229161843Y-60707765D01*
X229302191Y-60917809D01*
X229365334Y-60960000D01*
X229302191Y-61002191D01*
X229188393Y-61172500D01*
X228369952Y-61172500D01*
X228278057Y-61034969D01*
X228343327Y-60969698D01*
X228440000Y-60736309D01*
X228440000Y-60458250D01*
X228281250Y-60299500D01*
X227457000Y-60299500D01*
X227457000Y-60319500D01*
X227203000Y-60319500D01*
X227203000Y-60299500D01*
X226378750Y-60299500D01*
X226220000Y-60458250D01*
X226220000Y-60736309D01*
X226259538Y-60831762D01*
X226137562Y-60807500D01*
X226137561Y-60807500D01*
X226060000Y-60792072D01*
X225982439Y-60807500D01*
X225577500Y-60807500D01*
X225577500Y-59608691D01*
X226220000Y-59608691D01*
X226220000Y-59886750D01*
X226378750Y-60045500D01*
X227203000Y-60045500D01*
X227203000Y-59258750D01*
X227457000Y-59258750D01*
X227457000Y-60045500D01*
X228281250Y-60045500D01*
X228440000Y-59886750D01*
X228440000Y-59608691D01*
X228343327Y-59375302D01*
X228164699Y-59196673D01*
X227931310Y-59100000D01*
X227615750Y-59100000D01*
X227457000Y-59258750D01*
X227203000Y-59258750D01*
X227044250Y-59100000D01*
X226728690Y-59100000D01*
X226495301Y-59196673D01*
X226316673Y-59375302D01*
X226220000Y-59608691D01*
X225577500Y-59608691D01*
X225577500Y-59015459D01*
X225619023Y-58973936D01*
X225767900Y-58614516D01*
X225767900Y-58225484D01*
X225619023Y-57866064D01*
X225343936Y-57590977D01*
X224984516Y-57442100D01*
X224595484Y-57442100D01*
X224236064Y-57590977D01*
X223960977Y-57866064D01*
X223812100Y-58225484D01*
X170735000Y-58225484D01*
X170735000Y-53555431D01*
X171765000Y-53555431D01*
X171765000Y-54444569D01*
X172105259Y-55266026D01*
X172733974Y-55894741D01*
X173555431Y-56235000D01*
X174444569Y-56235000D01*
X175266026Y-55894741D01*
X175894741Y-55266026D01*
X176235000Y-54444569D01*
X176235000Y-53555431D01*
X213765000Y-53555431D01*
X213765000Y-54444569D01*
X214105259Y-55266026D01*
X214733974Y-55894741D01*
X215555431Y-56235000D01*
X216444569Y-56235000D01*
X216611753Y-56165750D01*
X223055000Y-56165750D01*
X223055000Y-56531309D01*
X223151673Y-56764698D01*
X223330301Y-56943327D01*
X223563690Y-57040000D01*
X224504250Y-57040000D01*
X224663000Y-56881250D01*
X224663000Y-56007000D01*
X224917000Y-56007000D01*
X224917000Y-56881250D01*
X225075750Y-57040000D01*
X226016310Y-57040000D01*
X226249699Y-56943327D01*
X226428327Y-56764698D01*
X226525000Y-56531309D01*
X226525000Y-56165750D01*
X226366250Y-56007000D01*
X224917000Y-56007000D01*
X224663000Y-56007000D01*
X223213750Y-56007000D01*
X223055000Y-56165750D01*
X216611753Y-56165750D01*
X217266026Y-55894741D01*
X217894741Y-55266026D01*
X218133028Y-54690750D01*
X222155000Y-54690750D01*
X222155000Y-55031309D01*
X222251673Y-55264698D01*
X222430301Y-55443327D01*
X222663690Y-55540000D01*
X223004250Y-55540000D01*
X223055000Y-55489250D01*
X223055000Y-55594250D01*
X223213750Y-55753000D01*
X224663000Y-55753000D01*
X224663000Y-54878750D01*
X224504250Y-54720000D01*
X224425000Y-54720000D01*
X224425000Y-54690750D01*
X224266250Y-54532000D01*
X223417000Y-54532000D01*
X223417000Y-54552000D01*
X223163000Y-54552000D01*
X223163000Y-54532000D01*
X222313750Y-54532000D01*
X222155000Y-54690750D01*
X218133028Y-54690750D01*
X218235000Y-54444569D01*
X218235000Y-53778691D01*
X222155000Y-53778691D01*
X222155000Y-54119250D01*
X222313750Y-54278000D01*
X223163000Y-54278000D01*
X223163000Y-54258000D01*
X223417000Y-54258000D01*
X223417000Y-54278000D01*
X224266250Y-54278000D01*
X224425000Y-54119250D01*
X224425000Y-54090000D01*
X224504250Y-54090000D01*
X224663000Y-53931250D01*
X224663000Y-53057000D01*
X224917000Y-53057000D01*
X224917000Y-53931250D01*
X225075750Y-54090000D01*
X225142560Y-54090000D01*
X225142560Y-54720000D01*
X225075750Y-54720000D01*
X224917000Y-54878750D01*
X224917000Y-55753000D01*
X226366250Y-55753000D01*
X226525000Y-55594250D01*
X226525000Y-55552440D01*
X226790000Y-55552440D01*
X227037765Y-55503157D01*
X227247809Y-55362809D01*
X227361607Y-55192500D01*
X227965439Y-55192500D01*
X228043000Y-55207928D01*
X228120561Y-55192500D01*
X228120562Y-55192500D01*
X228350267Y-55146809D01*
X228610756Y-54972756D01*
X228654694Y-54906998D01*
X228814192Y-54747500D01*
X229188393Y-54747500D01*
X229302191Y-54917809D01*
X229363320Y-54958655D01*
X229221673Y-55100301D01*
X229125000Y-55333690D01*
X229125000Y-55674250D01*
X229283750Y-55833000D01*
X230633000Y-55833000D01*
X230633000Y-55813000D01*
X230887000Y-55813000D01*
X230887000Y-55833000D01*
X232236250Y-55833000D01*
X232395000Y-55674250D01*
X232395000Y-55333690D01*
X232298327Y-55100301D01*
X232156680Y-54958655D01*
X232217809Y-54917809D01*
X232358157Y-54707765D01*
X232407440Y-54460000D01*
X232407440Y-53460000D01*
X232382316Y-53333690D01*
X245125000Y-53333690D01*
X245125000Y-53674250D01*
X245283750Y-53833000D01*
X246633000Y-53833000D01*
X246633000Y-52983750D01*
X246887000Y-52983750D01*
X246887000Y-53833000D01*
X248236250Y-53833000D01*
X248395000Y-53674250D01*
X248395000Y-53333690D01*
X248298327Y-53100301D01*
X248119698Y-52921673D01*
X247886309Y-52825000D01*
X247045750Y-52825000D01*
X246887000Y-52983750D01*
X246633000Y-52983750D01*
X246474250Y-52825000D01*
X245633691Y-52825000D01*
X245400302Y-52921673D01*
X245221673Y-53100301D01*
X245125000Y-53333690D01*
X232382316Y-53333690D01*
X232358157Y-53212235D01*
X232217809Y-53002191D01*
X232007765Y-52861843D01*
X231760000Y-52812560D01*
X229760000Y-52812560D01*
X229512235Y-52861843D01*
X229302191Y-53002191D01*
X229188393Y-53172500D01*
X228565560Y-53172500D01*
X228487999Y-53157072D01*
X228410438Y-53172500D01*
X228180733Y-53218191D01*
X227920244Y-53392244D01*
X227876306Y-53458002D01*
X227716808Y-53617500D01*
X227361607Y-53617500D01*
X227247809Y-53447191D01*
X227037765Y-53306843D01*
X226790000Y-53257560D01*
X226525000Y-53257560D01*
X226525000Y-53215750D01*
X226366250Y-53057000D01*
X224917000Y-53057000D01*
X224663000Y-53057000D01*
X223213750Y-53057000D01*
X223055000Y-53215750D01*
X223055000Y-53320750D01*
X223004250Y-53270000D01*
X222663690Y-53270000D01*
X222430301Y-53366673D01*
X222251673Y-53545302D01*
X222155000Y-53778691D01*
X218235000Y-53778691D01*
X218235000Y-53555431D01*
X217894741Y-52733974D01*
X217439458Y-52278691D01*
X223055000Y-52278691D01*
X223055000Y-52644250D01*
X223213750Y-52803000D01*
X224663000Y-52803000D01*
X224663000Y-51928750D01*
X224917000Y-51928750D01*
X224917000Y-52803000D01*
X226366250Y-52803000D01*
X226525000Y-52644250D01*
X226525000Y-52278691D01*
X226428327Y-52045302D01*
X226249699Y-51866673D01*
X226016310Y-51770000D01*
X225075750Y-51770000D01*
X224917000Y-51928750D01*
X224663000Y-51928750D01*
X224504250Y-51770000D01*
X223563690Y-51770000D01*
X223330301Y-51866673D01*
X223151673Y-52045302D01*
X223055000Y-52278691D01*
X217439458Y-52278691D01*
X217266026Y-52105259D01*
X216444569Y-51765000D01*
X215555431Y-51765000D01*
X214733974Y-52105259D01*
X214105259Y-52733974D01*
X213765000Y-53555431D01*
X176235000Y-53555431D01*
X175894741Y-52733974D01*
X175266026Y-52105259D01*
X174444569Y-51765000D01*
X173555431Y-51765000D01*
X172733974Y-52105259D01*
X172105259Y-52733974D01*
X171765000Y-53555431D01*
X170735000Y-53555431D01*
X170735000Y-50735000D01*
X252265001Y-50735000D01*
X252265000Y-132265000D01*
G36*
X249402501Y-65096194D02*
X249402500Y-69523806D01*
X248593808Y-70332500D01*
X242647560Y-70332500D01*
X242569999Y-70317072D01*
X242492438Y-70332500D01*
X242262733Y-70378191D01*
X242002244Y-70552244D01*
X241958310Y-70617997D01*
X240817500Y-71758808D01*
X240817500Y-68245750D01*
X245125000Y-68245750D01*
X245125000Y-68586310D01*
X245221673Y-68819699D01*
X245400302Y-68998327D01*
X245633691Y-69095000D01*
X246474250Y-69095000D01*
X246633000Y-68936250D01*
X246633000Y-68087000D01*
X246887000Y-68087000D01*
X246887000Y-68936250D01*
X247045750Y-69095000D01*
X247886309Y-69095000D01*
X248119698Y-68998327D01*
X248298327Y-68819699D01*
X248395000Y-68586310D01*
X248395000Y-68245750D01*
X248236250Y-68087000D01*
X246887000Y-68087000D01*
X246633000Y-68087000D01*
X245283750Y-68087000D01*
X245125000Y-68245750D01*
X240817500Y-68245750D01*
X240817500Y-67636192D01*
X241706193Y-66747500D01*
X245188393Y-66747500D01*
X245302191Y-66917809D01*
X245363320Y-66958655D01*
X245221673Y-67100301D01*
X245125000Y-67333690D01*
X245125000Y-67674250D01*
X245283750Y-67833000D01*
X246633000Y-67833000D01*
X246633000Y-67813000D01*
X246887000Y-67813000D01*
X246887000Y-67833000D01*
X248236250Y-67833000D01*
X248395000Y-67674250D01*
X248395000Y-67333690D01*
X248298327Y-67100301D01*
X248156680Y-66958655D01*
X248217809Y-66917809D01*
X248358157Y-66707765D01*
X248407440Y-66460000D01*
X248407440Y-65460000D01*
X248358157Y-65212235D01*
X248217809Y-65002191D01*
X248154666Y-64960000D01*
X248217809Y-64917809D01*
X248331607Y-64747500D01*
X249053808Y-64747500D01*
X249402501Y-65096194D01*
X249402501Y-65096194D01*
G37*
X249402501Y-65096194D02*
X249402500Y-69523806D01*
X248593808Y-70332500D01*
X242647560Y-70332500D01*
X242569999Y-70317072D01*
X242492438Y-70332500D01*
X242262733Y-70378191D01*
X242002244Y-70552244D01*
X241958310Y-70617997D01*
X240817500Y-71758808D01*
X240817500Y-68245750D01*
X245125000Y-68245750D01*
X245125000Y-68586310D01*
X245221673Y-68819699D01*
X245400302Y-68998327D01*
X245633691Y-69095000D01*
X246474250Y-69095000D01*
X246633000Y-68936250D01*
X246633000Y-68087000D01*
X246887000Y-68087000D01*
X246887000Y-68936250D01*
X247045750Y-69095000D01*
X247886309Y-69095000D01*
X248119698Y-68998327D01*
X248298327Y-68819699D01*
X248395000Y-68586310D01*
X248395000Y-68245750D01*
X248236250Y-68087000D01*
X246887000Y-68087000D01*
X246633000Y-68087000D01*
X245283750Y-68087000D01*
X245125000Y-68245750D01*
X240817500Y-68245750D01*
X240817500Y-67636192D01*
X241706193Y-66747500D01*
X245188393Y-66747500D01*
X245302191Y-66917809D01*
X245363320Y-66958655D01*
X245221673Y-67100301D01*
X245125000Y-67333690D01*
X245125000Y-67674250D01*
X245283750Y-67833000D01*
X246633000Y-67833000D01*
X246633000Y-67813000D01*
X246887000Y-67813000D01*
X246887000Y-67833000D01*
X248236250Y-67833000D01*
X248395000Y-67674250D01*
X248395000Y-67333690D01*
X248298327Y-67100301D01*
X248156680Y-66958655D01*
X248217809Y-66917809D01*
X248358157Y-66707765D01*
X248407440Y-66460000D01*
X248407440Y-65460000D01*
X248358157Y-65212235D01*
X248217809Y-65002191D01*
X248154666Y-64960000D01*
X248217809Y-64917809D01*
X248331607Y-64747500D01*
X249053808Y-64747500D01*
X249402501Y-65096194D01*
G04 #@! TD*
M02*
