G04 #@! TF.GenerationSoftware,KiCad,Pcbnew,5.0.2-bee76a0~70~ubuntu16.04.1*
G04 #@! TF.CreationDate,2018-12-09T14:19:21+01:00*
G04 #@! TF.ProjectId,STM32Node,53544d33-324e-46f6-9465-2e6b69636164,rev?*
G04 #@! TF.SameCoordinates,Original*
G04 #@! TF.FileFunction,Copper,L2,Bot*
G04 #@! TF.FilePolarity,Positive*
%FSLAX46Y46*%
G04 Gerber Fmt 4.6, Leading zero omitted, Abs format (unit mm)*
G04 Created by KiCad (PCBNEW 5.0.2-bee76a0~70~ubuntu16.04.1) date So 09 Dez 2018 14:19:21 CET*
%MOMM*%
%LPD*%
G01*
G04 APERTURE LIST*
G04 #@! TA.AperFunction,ComponentPad*
%ADD10C,1.524000*%
G04 #@! TD*
G04 #@! TA.AperFunction,ComponentPad*
%ADD11R,1.700000X1.700000*%
G04 #@! TD*
G04 #@! TA.AperFunction,ComponentPad*
%ADD12O,1.700000X1.700000*%
G04 #@! TD*
G04 #@! TA.AperFunction,ComponentPad*
%ADD13C,2.000000*%
G04 #@! TD*
G04 #@! TA.AperFunction,ViaPad*
%ADD14C,0.685800*%
G04 #@! TD*
G04 #@! TA.AperFunction,Conductor*
%ADD15C,0.305000*%
G04 #@! TD*
G04 #@! TA.AperFunction,Conductor*
%ADD16C,0.254000*%
G04 #@! TD*
G04 APERTURE END LIST*
D10*
G04 #@! TO.P,U1,1*
G04 #@! TO.N,/B12*
X233380000Y-81280000D03*
G04 #@! TO.P,U1,2*
G04 #@! TO.N,/B13*
X233380000Y-83820000D03*
G04 #@! TO.P,U1,3*
G04 #@! TO.N,/B14*
X233380000Y-86360000D03*
G04 #@! TO.P,U1,4*
G04 #@! TO.N,/B15*
X233380000Y-88900000D03*
G04 #@! TO.P,U1,5*
G04 #@! TO.N,/A8*
X233380000Y-91440000D03*
G04 #@! TO.P,U1,6*
G04 #@! TO.N,/A9*
X233380000Y-93980000D03*
G04 #@! TO.P,U1,7*
G04 #@! TO.N,/A10*
X233380000Y-96520000D03*
G04 #@! TO.P,U1,8*
G04 #@! TO.N,/A11*
X233380000Y-99060000D03*
G04 #@! TO.P,U1,9*
G04 #@! TO.N,/A12*
X233380000Y-101600000D03*
G04 #@! TO.P,U1,10*
G04 #@! TO.N,/A15*
X233380000Y-104140000D03*
G04 #@! TO.P,U1,11*
G04 #@! TO.N,/B3*
X233380000Y-106680000D03*
G04 #@! TO.P,U1,12*
G04 #@! TO.N,/B4*
X233380000Y-109220000D03*
G04 #@! TO.P,U1,13*
G04 #@! TO.N,/B5*
X233380000Y-111760000D03*
G04 #@! TO.P,U1,14*
G04 #@! TO.N,/B6*
X233380000Y-114300000D03*
G04 #@! TO.P,U1,15*
G04 #@! TO.N,/B7*
X233380000Y-116840000D03*
G04 #@! TO.P,U1,16*
G04 #@! TO.N,/B8*
X233380000Y-119380000D03*
G04 #@! TO.P,U1,17*
G04 #@! TO.N,/B9*
X233380000Y-121920000D03*
G04 #@! TO.P,U1,18*
G04 #@! TO.N,+5V*
X233380000Y-124460000D03*
G04 #@! TO.P,U1,19*
G04 #@! TO.N,GND*
X233380000Y-127000000D03*
G04 #@! TO.P,U1,20*
G04 #@! TO.N,+3V3*
X233380000Y-129540000D03*
G04 #@! TO.P,U1,21*
X248620000Y-129540000D03*
G04 #@! TO.P,U1,22*
G04 #@! TO.N,/C13*
X248620000Y-127000000D03*
G04 #@! TO.P,U1,23*
G04 #@! TO.N,Net-(U1-Pad23)*
X248620000Y-124460000D03*
G04 #@! TO.P,U1,24*
G04 #@! TO.N,Net-(U1-Pad24)*
X248620000Y-121920000D03*
G04 #@! TO.P,U1,25*
G04 #@! TO.N,/A0*
X248620000Y-119380000D03*
G04 #@! TO.P,U1,26*
G04 #@! TO.N,/A1*
X248620000Y-116840000D03*
G04 #@! TO.P,U1,27*
G04 #@! TO.N,/A2*
X248620000Y-114300000D03*
G04 #@! TO.P,U1,28*
G04 #@! TO.N,/A3*
X248620000Y-111760000D03*
G04 #@! TO.P,U1,29*
G04 #@! TO.N,/A4*
X248620000Y-109220000D03*
G04 #@! TO.P,U1,30*
G04 #@! TO.N,/A5*
X248620000Y-106680000D03*
G04 #@! TO.P,U1,31*
G04 #@! TO.N,/A6*
X248620000Y-104140000D03*
G04 #@! TO.P,U1,32*
G04 #@! TO.N,/A7*
X248620000Y-101600000D03*
G04 #@! TO.P,U1,33*
G04 #@! TO.N,/B0*
X248620000Y-99060000D03*
G04 #@! TO.P,U1,34*
G04 #@! TO.N,/B1*
X248620000Y-96520000D03*
G04 #@! TO.P,U1,35*
G04 #@! TO.N,/B10*
X248620000Y-93980000D03*
G04 #@! TO.P,U1,36*
G04 #@! TO.N,/B11*
X248620000Y-91440000D03*
G04 #@! TO.P,U1,37*
G04 #@! TO.N,/RESET*
X248620000Y-88900000D03*
G04 #@! TO.P,U1,38*
G04 #@! TO.N,+3V3*
X248620000Y-86360000D03*
G04 #@! TO.P,U1,39*
G04 #@! TO.N,GND*
X248620000Y-83820000D03*
G04 #@! TO.P,U1,40*
X248620000Y-81280000D03*
G04 #@! TD*
D11*
G04 #@! TO.P,J1,1*
G04 #@! TO.N,/B12*
X222250000Y-81280000D03*
D12*
G04 #@! TO.P,J1,2*
G04 #@! TO.N,/B13*
X222250000Y-83820000D03*
G04 #@! TO.P,J1,3*
G04 #@! TO.N,/B14*
X222250000Y-86360000D03*
G04 #@! TO.P,J1,4*
G04 #@! TO.N,/B15*
X222250000Y-88900000D03*
G04 #@! TO.P,J1,5*
G04 #@! TO.N,/A8*
X222250000Y-91440000D03*
G04 #@! TO.P,J1,6*
G04 #@! TO.N,/A9*
X222250000Y-93980000D03*
G04 #@! TO.P,J1,7*
G04 #@! TO.N,/A10*
X222250000Y-96520000D03*
G04 #@! TO.P,J1,8*
G04 #@! TO.N,/A11*
X222250000Y-99060000D03*
G04 #@! TO.P,J1,9*
G04 #@! TO.N,/A12*
X222250000Y-101600000D03*
G04 #@! TO.P,J1,10*
G04 #@! TO.N,/A15*
X222250000Y-104140000D03*
G04 #@! TO.P,J1,11*
G04 #@! TO.N,/B3*
X222250000Y-106680000D03*
G04 #@! TO.P,J1,12*
G04 #@! TO.N,/B4*
X222250000Y-109220000D03*
G04 #@! TO.P,J1,13*
G04 #@! TO.N,/B5*
X222250000Y-111760000D03*
G04 #@! TO.P,J1,14*
G04 #@! TO.N,/B6*
X222250000Y-114300000D03*
G04 #@! TO.P,J1,15*
G04 #@! TO.N,/B7*
X222250000Y-116840000D03*
G04 #@! TO.P,J1,16*
G04 #@! TO.N,/B8*
X222250000Y-119380000D03*
G04 #@! TO.P,J1,17*
G04 #@! TO.N,/B9*
X222250000Y-121920000D03*
G04 #@! TO.P,J1,18*
G04 #@! TO.N,+5V*
X222250000Y-124460000D03*
G04 #@! TO.P,J1,19*
G04 #@! TO.N,GND*
X222250000Y-127000000D03*
G04 #@! TO.P,J1,20*
G04 #@! TO.N,+3V3*
X222250000Y-129540000D03*
G04 #@! TD*
D11*
G04 #@! TO.P,J2,1*
G04 #@! TO.N,+3V3*
X217170000Y-73660000D03*
D12*
G04 #@! TO.P,J2,2*
G04 #@! TO.N,/C13*
X214630000Y-73660000D03*
G04 #@! TO.P,J2,3*
G04 #@! TO.N,/A0*
X212090000Y-73660000D03*
G04 #@! TO.P,J2,4*
G04 #@! TO.N,/A1*
X209550000Y-73660000D03*
G04 #@! TO.P,J2,5*
G04 #@! TO.N,/A2*
X207010000Y-73660000D03*
G04 #@! TO.P,J2,6*
G04 #@! TO.N,/A3*
X204470000Y-73660000D03*
G04 #@! TO.P,J2,7*
G04 #@! TO.N,/A4*
X201930000Y-73660000D03*
G04 #@! TO.P,J2,8*
G04 #@! TO.N,/A5*
X199390000Y-73660000D03*
G04 #@! TO.P,J2,9*
G04 #@! TO.N,/A6*
X196850000Y-73660000D03*
G04 #@! TO.P,J2,10*
G04 #@! TO.N,/A7*
X194310000Y-73660000D03*
G04 #@! TO.P,J2,11*
G04 #@! TO.N,/B0*
X191770000Y-73660000D03*
G04 #@! TO.P,J2,12*
G04 #@! TO.N,/B1*
X189230000Y-73660000D03*
G04 #@! TO.P,J2,13*
G04 #@! TO.N,/B10*
X186690000Y-73660000D03*
G04 #@! TO.P,J2,14*
G04 #@! TO.N,/B11*
X184150000Y-73660000D03*
G04 #@! TO.P,J2,15*
G04 #@! TO.N,/RESET*
X181610000Y-73660000D03*
G04 #@! TO.P,J2,16*
G04 #@! TO.N,+3V3*
X179070000Y-73660000D03*
G04 #@! TO.P,J2,17*
G04 #@! TO.N,GND*
X176530000Y-73660000D03*
G04 #@! TO.P,J2,18*
X173990000Y-73660000D03*
G04 #@! TD*
D11*
G04 #@! TO.P,J4,1*
G04 #@! TO.N,+5V*
X226060000Y-124460000D03*
D12*
G04 #@! TO.P,J4,2*
G04 #@! TO.N,GND*
X226060000Y-127000000D03*
G04 #@! TO.P,J4,3*
G04 #@! TO.N,+3V3*
X226060000Y-129540000D03*
G04 #@! TD*
D13*
G04 #@! TO.P,REF\002A\002A,*
G04 #@! TO.N,*
X179070000Y-129540000D03*
X179070000Y-127000000D03*
X179070000Y-124460000D03*
X176530000Y-124460000D03*
X173990000Y-124460000D03*
X217170000Y-124460000D03*
X191770000Y-116840000D03*
X212090000Y-119380000D03*
X199390000Y-127000000D03*
X217170000Y-119380000D03*
X186690000Y-124460000D03*
X217170000Y-121920000D03*
X196850000Y-116840000D03*
X212090000Y-116840000D03*
X173990000Y-119380000D03*
X191770000Y-124460000D03*
X184150000Y-124460000D03*
X191770000Y-121920000D03*
X207010000Y-129540000D03*
X181610000Y-124460000D03*
X212090000Y-127000000D03*
X209550000Y-129540000D03*
X184150000Y-119380000D03*
X207010000Y-119380000D03*
X204470000Y-121920000D03*
X219710000Y-121920000D03*
X184150000Y-121920000D03*
X186690000Y-121920000D03*
X189230000Y-127000000D03*
X201930000Y-129540000D03*
X194310000Y-116840000D03*
X219710000Y-124460000D03*
X212090000Y-121920000D03*
X219710000Y-129540000D03*
X194310000Y-129540000D03*
X181610000Y-121920000D03*
X191770000Y-119380000D03*
X189230000Y-119380000D03*
X204470000Y-124460000D03*
X214630000Y-124460000D03*
X199390000Y-121920000D03*
X184150000Y-129540000D03*
X201930000Y-121920000D03*
X219710000Y-127000000D03*
X207010000Y-124460000D03*
X196850000Y-127000000D03*
X207010000Y-121920000D03*
X212090000Y-129540000D03*
X181610000Y-127000000D03*
X189230000Y-116840000D03*
X196850000Y-121920000D03*
X189230000Y-121920000D03*
X201930000Y-119380000D03*
X186690000Y-129540000D03*
X214630000Y-127000000D03*
X196850000Y-129540000D03*
X184150000Y-127000000D03*
X209550000Y-119380000D03*
X181610000Y-129540000D03*
X209550000Y-121920000D03*
X207010000Y-116840000D03*
X201930000Y-124460000D03*
X214630000Y-129540000D03*
X194310000Y-127000000D03*
X194310000Y-124460000D03*
X196850000Y-119380000D03*
X173990000Y-116840000D03*
X186690000Y-127000000D03*
X212090000Y-124460000D03*
X196850000Y-124460000D03*
X204470000Y-127000000D03*
X214630000Y-119380000D03*
X179070000Y-119380000D03*
X204470000Y-116840000D03*
X199390000Y-124460000D03*
X199390000Y-119380000D03*
X176530000Y-116840000D03*
X186690000Y-119380000D03*
X204470000Y-119380000D03*
X219710000Y-119380000D03*
X189230000Y-129540000D03*
X219710000Y-116840000D03*
X207010000Y-127000000D03*
X214630000Y-121920000D03*
X199390000Y-116840000D03*
X217170000Y-127000000D03*
X204470000Y-129540000D03*
X201930000Y-127000000D03*
X176530000Y-121920000D03*
X181610000Y-119380000D03*
X179070000Y-121920000D03*
X191770000Y-127000000D03*
X186690000Y-116840000D03*
X214630000Y-116840000D03*
X209550000Y-124460000D03*
X176530000Y-119380000D03*
X217170000Y-129540000D03*
X194310000Y-119380000D03*
X184150000Y-116840000D03*
X194310000Y-121920000D03*
X201930000Y-116840000D03*
X173990000Y-121920000D03*
X181610000Y-116840000D03*
X199390000Y-129540000D03*
X191770000Y-129540000D03*
X209550000Y-127000000D03*
X189230000Y-124460000D03*
X209550000Y-116840000D03*
X179070000Y-116840000D03*
X217170000Y-116840000D03*
X186690000Y-111760000D03*
X204470000Y-109220000D03*
X214630000Y-109220000D03*
X209550000Y-111760000D03*
X189230000Y-109220000D03*
X173990000Y-96520000D03*
X209550000Y-109220000D03*
X207010000Y-111760000D03*
X214630000Y-106680000D03*
X199390000Y-106680000D03*
X184150000Y-114300000D03*
X201930000Y-111760000D03*
X176530000Y-106680000D03*
X184150000Y-106680000D03*
X186690000Y-106680000D03*
X176530000Y-114300000D03*
X204470000Y-114300000D03*
X191770000Y-104140000D03*
X189230000Y-104140000D03*
X214630000Y-104140000D03*
X179070000Y-104140000D03*
X217170000Y-114300000D03*
X214630000Y-96520000D03*
X201930000Y-106680000D03*
X219710000Y-111760000D03*
X179070000Y-111760000D03*
X212090000Y-109220000D03*
X179070000Y-106680000D03*
X191770000Y-111760000D03*
X207010000Y-109220000D03*
X196850000Y-111760000D03*
X199390000Y-96520000D03*
X184150000Y-96520000D03*
X186690000Y-96520000D03*
X179070000Y-96520000D03*
X189230000Y-111760000D03*
X201930000Y-114300000D03*
X219710000Y-109220000D03*
X212090000Y-106680000D03*
X191770000Y-101600000D03*
X212090000Y-104140000D03*
X196850000Y-109220000D03*
X204470000Y-111760000D03*
X181610000Y-114300000D03*
X209550000Y-106680000D03*
X173990000Y-106680000D03*
X181610000Y-101600000D03*
X207010000Y-106680000D03*
X191770000Y-99060000D03*
X181610000Y-106680000D03*
X179070000Y-109220000D03*
X209550000Y-104140000D03*
X181610000Y-99060000D03*
X212090000Y-101600000D03*
X217170000Y-99060000D03*
X173990000Y-99060000D03*
X176530000Y-104140000D03*
X204470000Y-104140000D03*
X219710000Y-104140000D03*
X194310000Y-104140000D03*
X184150000Y-101600000D03*
X199390000Y-104140000D03*
X176530000Y-101600000D03*
X173990000Y-101600000D03*
X186690000Y-99060000D03*
X217170000Y-96520000D03*
X181610000Y-104140000D03*
X209550000Y-96520000D03*
X186690000Y-101600000D03*
X204470000Y-99060000D03*
X214630000Y-99060000D03*
X209550000Y-101600000D03*
X179070000Y-101600000D03*
X212090000Y-99060000D03*
X196850000Y-99060000D03*
X204470000Y-101600000D03*
X199390000Y-109220000D03*
X199390000Y-111760000D03*
X201930000Y-96520000D03*
X173990000Y-114300000D03*
X191770000Y-114300000D03*
X189230000Y-114300000D03*
X219710000Y-101600000D03*
X186690000Y-109220000D03*
X217170000Y-106680000D03*
X194310000Y-111760000D03*
X194310000Y-109220000D03*
X173990000Y-104140000D03*
X191770000Y-109220000D03*
X209550000Y-114300000D03*
X184150000Y-104140000D03*
X201930000Y-101600000D03*
X191770000Y-96520000D03*
X204470000Y-96520000D03*
X176530000Y-111760000D03*
X173990000Y-111760000D03*
X184150000Y-111760000D03*
X199390000Y-114300000D03*
X207010000Y-99060000D03*
X196850000Y-101600000D03*
X199390000Y-99060000D03*
X199390000Y-101600000D03*
X217170000Y-111760000D03*
X196850000Y-114300000D03*
X194310000Y-96520000D03*
X176530000Y-99060000D03*
X201930000Y-99060000D03*
X217170000Y-109220000D03*
X173990000Y-109220000D03*
X184150000Y-99060000D03*
X186690000Y-104140000D03*
X214630000Y-101600000D03*
X181610000Y-96520000D03*
X179070000Y-99060000D03*
X217170000Y-101600000D03*
X219710000Y-114300000D03*
X194310000Y-114300000D03*
X196850000Y-104140000D03*
X219710000Y-96520000D03*
X207010000Y-104140000D03*
X209550000Y-99060000D03*
X207010000Y-101600000D03*
X201930000Y-109220000D03*
X184150000Y-109220000D03*
X191770000Y-106680000D03*
X204470000Y-106680000D03*
X219710000Y-106680000D03*
X207010000Y-114300000D03*
X181610000Y-109220000D03*
X212090000Y-111760000D03*
X194310000Y-106680000D03*
X176530000Y-109220000D03*
X196850000Y-106680000D03*
X189230000Y-106680000D03*
X196850000Y-96520000D03*
X189230000Y-96520000D03*
X214630000Y-114300000D03*
X179070000Y-114300000D03*
X176530000Y-96520000D03*
X194310000Y-101600000D03*
X194310000Y-99060000D03*
X219710000Y-99060000D03*
X212090000Y-96520000D03*
X212090000Y-114300000D03*
X181610000Y-111760000D03*
X189230000Y-101600000D03*
X201930000Y-104140000D03*
X186690000Y-114300000D03*
X214630000Y-111760000D03*
X217170000Y-104140000D03*
X189230000Y-99060000D03*
X207010000Y-96520000D03*
X173990000Y-86360000D03*
X191770000Y-93980000D03*
X189230000Y-93980000D03*
X214630000Y-93980000D03*
X179070000Y-93980000D03*
X214630000Y-86360000D03*
X199390000Y-86360000D03*
X184150000Y-86360000D03*
X186690000Y-86360000D03*
X179070000Y-86360000D03*
X191770000Y-91440000D03*
X212090000Y-93980000D03*
X181610000Y-91440000D03*
X191770000Y-88900000D03*
X209550000Y-93980000D03*
X181610000Y-88900000D03*
X212090000Y-91440000D03*
X217170000Y-88900000D03*
X173990000Y-88900000D03*
X176530000Y-93980000D03*
X204470000Y-93980000D03*
X219710000Y-93980000D03*
X194310000Y-93980000D03*
X184150000Y-91440000D03*
X199390000Y-93980000D03*
X176530000Y-91440000D03*
X173990000Y-91440000D03*
X186690000Y-88900000D03*
X217170000Y-86360000D03*
X181610000Y-93980000D03*
X209550000Y-86360000D03*
X186690000Y-91440000D03*
X204470000Y-88900000D03*
X214630000Y-88900000D03*
X209550000Y-91440000D03*
X179070000Y-91440000D03*
X212090000Y-88900000D03*
X196850000Y-88900000D03*
X204470000Y-91440000D03*
X201930000Y-86360000D03*
X219710000Y-91440000D03*
X173990000Y-93980000D03*
X184150000Y-93980000D03*
X201930000Y-91440000D03*
X191770000Y-86360000D03*
X204470000Y-86360000D03*
X207010000Y-88900000D03*
X196850000Y-91440000D03*
X199390000Y-88900000D03*
X199390000Y-91440000D03*
X194310000Y-86360000D03*
X176530000Y-88900000D03*
X201930000Y-88900000D03*
X184150000Y-88900000D03*
X186690000Y-93980000D03*
X214630000Y-91440000D03*
X181610000Y-86360000D03*
X179070000Y-88900000D03*
X217170000Y-91440000D03*
X196850000Y-93980000D03*
X219710000Y-86360000D03*
X207010000Y-93980000D03*
X209550000Y-88900000D03*
X207010000Y-91440000D03*
X196850000Y-86360000D03*
X189230000Y-86360000D03*
X176530000Y-86360000D03*
X194310000Y-91440000D03*
X194310000Y-88900000D03*
X219710000Y-88900000D03*
X212090000Y-86360000D03*
X189230000Y-91440000D03*
X201930000Y-93980000D03*
X217170000Y-93980000D03*
X189230000Y-88900000D03*
X207010000Y-86360000D03*
X191770000Y-83820000D03*
X181610000Y-83820000D03*
X212090000Y-83820000D03*
X184150000Y-83820000D03*
X176530000Y-83820000D03*
X173990000Y-83820000D03*
X186690000Y-83820000D03*
X209550000Y-83820000D03*
X179070000Y-83820000D03*
X204470000Y-83820000D03*
X219710000Y-83820000D03*
X201930000Y-83820000D03*
X196850000Y-83820000D03*
X199390000Y-83820000D03*
X214630000Y-83820000D03*
X217170000Y-83820000D03*
X207010000Y-83820000D03*
X194310000Y-83820000D03*
X189230000Y-83820000D03*
X191770000Y-81280000D03*
X181610000Y-81280000D03*
X217170000Y-81280000D03*
X173990000Y-81280000D03*
X186690000Y-81280000D03*
X204470000Y-81280000D03*
X214630000Y-81280000D03*
X212090000Y-81280000D03*
X196850000Y-81280000D03*
X207010000Y-81280000D03*
X199390000Y-81280000D03*
X176530000Y-81280000D03*
X201930000Y-81280000D03*
X184150000Y-81280000D03*
X179070000Y-81280000D03*
X209550000Y-81280000D03*
X194310000Y-81280000D03*
X219710000Y-81280000D03*
X189230000Y-81280000D03*
X173990000Y-78740000D03*
X214630000Y-78740000D03*
X199390000Y-78740000D03*
X184150000Y-78740000D03*
X186690000Y-78740000D03*
X179070000Y-78740000D03*
X217170000Y-78740000D03*
X209550000Y-78740000D03*
X201930000Y-78740000D03*
X191770000Y-78740000D03*
X204470000Y-78740000D03*
X194310000Y-78740000D03*
X181610000Y-78740000D03*
X219710000Y-78740000D03*
X196850000Y-78740000D03*
X189230000Y-78740000D03*
X176530000Y-78740000D03*
X212090000Y-78740000D03*
X207010000Y-78740000D03*
X212090000Y-76200000D03*
X217170000Y-76200000D03*
X214630000Y-76200000D03*
X219710000Y-76200000D03*
X204470000Y-76200000D03*
X209550000Y-76200000D03*
X207010000Y-76200000D03*
X196850000Y-76200000D03*
X201930000Y-76200000D03*
X199390000Y-76200000D03*
X189230000Y-76200000D03*
X194310000Y-76200000D03*
X191770000Y-76200000D03*
X186690000Y-76200000D03*
X184150000Y-76200000D03*
X179070000Y-76200000D03*
X181610000Y-76200000D03*
X176530000Y-76200000D03*
X173990000Y-76200000D03*
G04 #@! TD*
D14*
G04 #@! TO.N,+3V3*
X237490000Y-129540000D03*
X224790000Y-58420000D03*
X224790000Y-69215000D03*
G04 #@! TO.N,GND*
X248920000Y-65405000D03*
X248920000Y-66675000D03*
X248920000Y-67945000D03*
X248920000Y-69215000D03*
X227330000Y-56515000D03*
X228600000Y-56515000D03*
G04 #@! TO.N,/B5*
X231140000Y-111760000D03*
X231140000Y-111760000D03*
X231140000Y-78740000D03*
G04 #@! TO.N,/B6*
X229870000Y-78740000D03*
X229870000Y-114300000D03*
G04 #@! TO.N,/B7*
X228600000Y-78740000D03*
X228600000Y-116840000D03*
G04 #@! TD*
D15*
G04 #@! TO.N,+3V3*
X247015000Y-84455000D02*
X248620000Y-86360000D01*
X245745000Y-58420000D02*
X247015000Y-59690000D01*
X224790000Y-58420000D02*
X245745000Y-58420000D01*
X247015000Y-59690000D02*
X247015000Y-84455000D01*
X237490000Y-70485000D02*
X237490000Y-115570000D01*
X237490000Y-115570000D02*
X237490000Y-129540000D01*
X236220000Y-69215000D02*
X237490000Y-70485000D01*
X224790000Y-69215000D02*
X236220000Y-69215000D01*
X180340000Y-58420000D02*
X179070000Y-59690000D01*
X179070000Y-59690000D02*
X179070000Y-73660000D01*
X224790000Y-58420000D02*
X180340000Y-58420000D01*
X218440000Y-69215000D02*
X224790000Y-69215000D01*
X217170000Y-70485000D02*
X218440000Y-69215000D01*
X217170000Y-73660000D02*
X217170000Y-70485000D01*
G04 #@! TO.N,/B5*
X231140000Y-111760000D02*
X231140000Y-78740000D01*
G04 #@! TO.N,/B6*
X229870000Y-114300000D02*
X229870000Y-78740000D01*
G04 #@! TO.N,/B7*
X228600000Y-78740000D02*
X228600000Y-116840000D01*
G04 #@! TO.N,/C13*
X238125000Y-70485000D02*
X238125000Y-70496875D01*
X238125000Y-69215000D02*
X238125000Y-70485000D01*
X214630000Y-73660000D02*
X214630000Y-69215000D01*
X214630000Y-69215000D02*
X215900000Y-67945000D01*
X215900000Y-67945000D02*
X236855000Y-67945000D01*
X236855000Y-67945000D02*
X238125000Y-69215000D01*
X238125000Y-79375000D02*
X238125000Y-70485000D01*
X248620000Y-127000000D02*
X247015000Y-125095000D01*
X247015000Y-125095000D02*
X247015000Y-119380000D01*
X247015000Y-119380000D02*
X238125000Y-110490000D01*
X238125000Y-110490000D02*
X238125000Y-79375000D01*
G04 #@! TO.N,/A0*
X238760000Y-109520000D02*
X248620000Y-119380000D01*
X238760000Y-68580000D02*
X238760000Y-109520000D01*
X212090000Y-73660000D02*
X212090000Y-68580000D01*
X237490000Y-67310000D02*
X238760000Y-68580000D01*
X212090000Y-68580000D02*
X213360000Y-67310000D01*
X213360000Y-67310000D02*
X237490000Y-67310000D01*
G04 #@! TO.N,/A1*
X239395000Y-107615000D02*
X248620000Y-116840000D01*
X209550000Y-73660000D02*
X209550000Y-67945000D01*
X209550000Y-67945000D02*
X210820000Y-66675000D01*
X210820000Y-66675000D02*
X238125000Y-66675000D01*
X239395000Y-67945000D02*
X239395000Y-107615000D01*
X238125000Y-66675000D02*
X239395000Y-67945000D01*
G04 #@! TO.N,/A2*
X240030000Y-105710000D02*
X248620000Y-114300000D01*
X207010000Y-73660000D02*
X207010000Y-67310000D01*
X240030000Y-67310000D02*
X240030000Y-105710000D01*
X207010000Y-67310000D02*
X208280000Y-66040000D01*
X208280000Y-66040000D02*
X238760000Y-66040000D01*
X238760000Y-66040000D02*
X240030000Y-67310000D01*
G04 #@! TO.N,/A3*
X240665000Y-103805000D02*
X248620000Y-111760000D01*
X240665000Y-66675000D02*
X240665000Y-103805000D01*
X204470000Y-73660000D02*
X204470000Y-66675000D01*
X204470000Y-66675000D02*
X205740000Y-65405000D01*
X205740000Y-65405000D02*
X239395000Y-65405000D01*
X239395000Y-65405000D02*
X240665000Y-66675000D01*
G04 #@! TO.N,/A4*
X201930000Y-66040000D02*
X201930000Y-73660000D01*
X203200000Y-64770000D02*
X201930000Y-66040000D01*
X248620000Y-109220000D02*
X241300000Y-101900000D01*
X241300000Y-101900000D02*
X241300000Y-66040000D01*
X241300000Y-66040000D02*
X240030000Y-64770000D01*
X240030000Y-64770000D02*
X203200000Y-64770000D01*
G04 #@! TO.N,/A5*
X241935000Y-99995000D02*
X248620000Y-106680000D01*
X241935000Y-65405000D02*
X241935000Y-99995000D01*
X199390000Y-73660000D02*
X199390000Y-65405000D01*
X199390000Y-65405000D02*
X200660000Y-64135000D01*
X200660000Y-64135000D02*
X240665000Y-64135000D01*
X240665000Y-64135000D02*
X241935000Y-65405000D01*
G04 #@! TO.N,/A6*
X196850000Y-64770000D02*
X196850000Y-73660000D01*
X198120000Y-63500000D02*
X196850000Y-64770000D01*
X248620000Y-104140000D02*
X242570000Y-98090000D01*
X242570000Y-98090000D02*
X242570000Y-64770000D01*
X242570000Y-64770000D02*
X241300000Y-63500000D01*
X241300000Y-63500000D02*
X198120000Y-63500000D01*
G04 #@! TO.N,/A7*
X243205000Y-95885000D02*
X248620000Y-101600000D01*
X243205000Y-64135000D02*
X243205000Y-95885000D01*
X194310000Y-73660000D02*
X194310000Y-64135000D01*
X194310000Y-64135000D02*
X195580000Y-62865000D01*
X195580000Y-62865000D02*
X241935000Y-62865000D01*
X241935000Y-62865000D02*
X243205000Y-64135000D01*
G04 #@! TO.N,/B0*
X191770000Y-63500000D02*
X191770000Y-73660000D01*
X193040000Y-62230000D02*
X191770000Y-63500000D01*
X248620000Y-99060000D02*
X243840000Y-93980000D01*
X242570000Y-62230000D02*
X193040000Y-62230000D01*
X243840000Y-93980000D02*
X243840000Y-63500000D01*
X243840000Y-63500000D02*
X242570000Y-62230000D01*
G04 #@! TO.N,/B1*
X244475000Y-92075000D02*
X248620000Y-96520000D01*
X189230000Y-73660000D02*
X189230000Y-62865000D01*
X190500000Y-61595000D02*
X243205000Y-61595000D01*
X189230000Y-62865000D02*
X190500000Y-61595000D01*
X244475000Y-62865000D02*
X244475000Y-92075000D01*
X243205000Y-61595000D02*
X244475000Y-62865000D01*
G04 #@! TO.N,/B10*
X186690000Y-62230000D02*
X186690000Y-73660000D01*
X187960000Y-60960000D02*
X186690000Y-62230000D01*
X243840000Y-60960000D02*
X187960000Y-60960000D01*
X248620000Y-93980000D02*
X245110000Y-90170000D01*
X245110000Y-90170000D02*
X245110000Y-62230000D01*
X245110000Y-62230000D02*
X243840000Y-60960000D01*
G04 #@! TO.N,/B11*
X245745000Y-88265000D02*
X248620000Y-91440000D01*
X245745000Y-61595000D02*
X245745000Y-88265000D01*
X184150000Y-73660000D02*
X184150000Y-61595000D01*
X184150000Y-61595000D02*
X185420000Y-60325000D01*
X185420000Y-60325000D02*
X244475000Y-60325000D01*
X244475000Y-60325000D02*
X245745000Y-61595000D01*
G04 #@! TO.N,/RESET*
X181610000Y-60960000D02*
X181610000Y-73660000D01*
X182880000Y-59690000D02*
X181610000Y-60960000D01*
X248620000Y-88900000D02*
X246380000Y-86360000D01*
X246380000Y-86360000D02*
X246380000Y-60960000D01*
X246380000Y-60960000D02*
X245110000Y-59690000D01*
X245110000Y-59690000D02*
X182880000Y-59690000D01*
G04 #@! TD*
D16*
G04 #@! TO.N,GND*
G36*
X252265000Y-132265000D02*
X170735000Y-132265000D01*
X170735000Y-128755431D01*
X171765000Y-128755431D01*
X171765000Y-129644569D01*
X172105259Y-130466026D01*
X172733974Y-131094741D01*
X173555431Y-131435000D01*
X174444569Y-131435000D01*
X175266026Y-131094741D01*
X175894741Y-130466026D01*
X176235000Y-129644569D01*
X176235000Y-128755431D01*
X175894741Y-127933974D01*
X175266026Y-127305259D01*
X174444569Y-126965000D01*
X173555431Y-126965000D01*
X172733974Y-127305259D01*
X172105259Y-127933974D01*
X171765000Y-128755431D01*
X170735000Y-128755431D01*
X170735000Y-75874778D01*
X172355000Y-75874778D01*
X172355000Y-76525222D01*
X172603914Y-77126153D01*
X172947761Y-77470000D01*
X172603914Y-77813847D01*
X172355000Y-78414778D01*
X172355000Y-79065222D01*
X172603914Y-79666153D01*
X172947761Y-80010000D01*
X172603914Y-80353847D01*
X172355000Y-80954778D01*
X172355000Y-81605222D01*
X172603914Y-82206153D01*
X172947761Y-82550000D01*
X172603914Y-82893847D01*
X172355000Y-83494778D01*
X172355000Y-84145222D01*
X172603914Y-84746153D01*
X172947761Y-85090000D01*
X172603914Y-85433847D01*
X172355000Y-86034778D01*
X172355000Y-86685222D01*
X172603914Y-87286153D01*
X172947761Y-87630000D01*
X172603914Y-87973847D01*
X172355000Y-88574778D01*
X172355000Y-89225222D01*
X172603914Y-89826153D01*
X172947761Y-90170000D01*
X172603914Y-90513847D01*
X172355000Y-91114778D01*
X172355000Y-91765222D01*
X172603914Y-92366153D01*
X172947761Y-92710000D01*
X172603914Y-93053847D01*
X172355000Y-93654778D01*
X172355000Y-94305222D01*
X172603914Y-94906153D01*
X172947761Y-95250000D01*
X172603914Y-95593847D01*
X172355000Y-96194778D01*
X172355000Y-96845222D01*
X172603914Y-97446153D01*
X172947761Y-97790000D01*
X172603914Y-98133847D01*
X172355000Y-98734778D01*
X172355000Y-99385222D01*
X172603914Y-99986153D01*
X172947761Y-100330000D01*
X172603914Y-100673847D01*
X172355000Y-101274778D01*
X172355000Y-101925222D01*
X172603914Y-102526153D01*
X172947761Y-102870000D01*
X172603914Y-103213847D01*
X172355000Y-103814778D01*
X172355000Y-104465222D01*
X172603914Y-105066153D01*
X172947761Y-105410000D01*
X172603914Y-105753847D01*
X172355000Y-106354778D01*
X172355000Y-107005222D01*
X172603914Y-107606153D01*
X172947761Y-107950000D01*
X172603914Y-108293847D01*
X172355000Y-108894778D01*
X172355000Y-109545222D01*
X172603914Y-110146153D01*
X172947761Y-110490000D01*
X172603914Y-110833847D01*
X172355000Y-111434778D01*
X172355000Y-112085222D01*
X172603914Y-112686153D01*
X172947761Y-113030000D01*
X172603914Y-113373847D01*
X172355000Y-113974778D01*
X172355000Y-114625222D01*
X172603914Y-115226153D01*
X172947761Y-115570000D01*
X172603914Y-115913847D01*
X172355000Y-116514778D01*
X172355000Y-117165222D01*
X172603914Y-117766153D01*
X172947761Y-118110000D01*
X172603914Y-118453847D01*
X172355000Y-119054778D01*
X172355000Y-119705222D01*
X172603914Y-120306153D01*
X172947761Y-120650000D01*
X172603914Y-120993847D01*
X172355000Y-121594778D01*
X172355000Y-122245222D01*
X172603914Y-122846153D01*
X172947761Y-123190000D01*
X172603914Y-123533847D01*
X172355000Y-124134778D01*
X172355000Y-124785222D01*
X172603914Y-125386153D01*
X173063847Y-125846086D01*
X173664778Y-126095000D01*
X174315222Y-126095000D01*
X174916153Y-125846086D01*
X175260000Y-125502239D01*
X175603847Y-125846086D01*
X176204778Y-126095000D01*
X176855222Y-126095000D01*
X177456153Y-125846086D01*
X177800000Y-125502239D01*
X178027761Y-125730000D01*
X177683914Y-126073847D01*
X177435000Y-126674778D01*
X177435000Y-127325222D01*
X177683914Y-127926153D01*
X178027761Y-128270000D01*
X177683914Y-128613847D01*
X177435000Y-129214778D01*
X177435000Y-129865222D01*
X177683914Y-130466153D01*
X178143847Y-130926086D01*
X178744778Y-131175000D01*
X179395222Y-131175000D01*
X179996153Y-130926086D01*
X180340000Y-130582239D01*
X180683847Y-130926086D01*
X181284778Y-131175000D01*
X181935222Y-131175000D01*
X182536153Y-130926086D01*
X182880000Y-130582239D01*
X183223847Y-130926086D01*
X183824778Y-131175000D01*
X184475222Y-131175000D01*
X185076153Y-130926086D01*
X185420000Y-130582239D01*
X185763847Y-130926086D01*
X186364778Y-131175000D01*
X187015222Y-131175000D01*
X187616153Y-130926086D01*
X187960000Y-130582239D01*
X188303847Y-130926086D01*
X188904778Y-131175000D01*
X189555222Y-131175000D01*
X190156153Y-130926086D01*
X190500000Y-130582239D01*
X190843847Y-130926086D01*
X191444778Y-131175000D01*
X192095222Y-131175000D01*
X192696153Y-130926086D01*
X193040000Y-130582239D01*
X193383847Y-130926086D01*
X193984778Y-131175000D01*
X194635222Y-131175000D01*
X195236153Y-130926086D01*
X195580000Y-130582239D01*
X195923847Y-130926086D01*
X196524778Y-131175000D01*
X197175222Y-131175000D01*
X197776153Y-130926086D01*
X198120000Y-130582239D01*
X198463847Y-130926086D01*
X199064778Y-131175000D01*
X199715222Y-131175000D01*
X200316153Y-130926086D01*
X200660000Y-130582239D01*
X201003847Y-130926086D01*
X201604778Y-131175000D01*
X202255222Y-131175000D01*
X202856153Y-130926086D01*
X203200000Y-130582239D01*
X203543847Y-130926086D01*
X204144778Y-131175000D01*
X204795222Y-131175000D01*
X205396153Y-130926086D01*
X205740000Y-130582239D01*
X206083847Y-130926086D01*
X206684778Y-131175000D01*
X207335222Y-131175000D01*
X207936153Y-130926086D01*
X208280000Y-130582239D01*
X208623847Y-130926086D01*
X209224778Y-131175000D01*
X209875222Y-131175000D01*
X210476153Y-130926086D01*
X210820000Y-130582239D01*
X211163847Y-130926086D01*
X211764778Y-131175000D01*
X212415222Y-131175000D01*
X213016153Y-130926086D01*
X213360000Y-130582239D01*
X213703847Y-130926086D01*
X214304778Y-131175000D01*
X214955222Y-131175000D01*
X215556153Y-130926086D01*
X215900000Y-130582239D01*
X216243847Y-130926086D01*
X216844778Y-131175000D01*
X217495222Y-131175000D01*
X218096153Y-130926086D01*
X218440000Y-130582239D01*
X218783847Y-130926086D01*
X219384778Y-131175000D01*
X220035222Y-131175000D01*
X220636153Y-130926086D01*
X221088147Y-130474092D01*
X221179375Y-130610625D01*
X221670582Y-130938839D01*
X222103744Y-131025000D01*
X222396256Y-131025000D01*
X222829418Y-130938839D01*
X223320625Y-130610625D01*
X223648839Y-130119418D01*
X223764092Y-129540000D01*
X224545908Y-129540000D01*
X224661161Y-130119418D01*
X224989375Y-130610625D01*
X225480582Y-130938839D01*
X225913744Y-131025000D01*
X226206256Y-131025000D01*
X226639418Y-130938839D01*
X227130625Y-130610625D01*
X227458839Y-130119418D01*
X227574092Y-129540000D01*
X227518819Y-129262119D01*
X231983000Y-129262119D01*
X231983000Y-129817881D01*
X232195680Y-130331337D01*
X232588663Y-130724320D01*
X233102119Y-130937000D01*
X233657881Y-130937000D01*
X234171337Y-130724320D01*
X234564320Y-130331337D01*
X234777000Y-129817881D01*
X234777000Y-129262119D01*
X234564320Y-128748663D01*
X234171337Y-128355680D01*
X233980353Y-128276572D01*
X234111143Y-128222397D01*
X234180608Y-127980213D01*
X233380000Y-127179605D01*
X232579392Y-127980213D01*
X232648857Y-128222397D01*
X232789393Y-128272535D01*
X232588663Y-128355680D01*
X232195680Y-128748663D01*
X231983000Y-129262119D01*
X227518819Y-129262119D01*
X227458839Y-128960582D01*
X227130625Y-128469375D01*
X226811522Y-128256157D01*
X226941358Y-128195183D01*
X227331645Y-127766924D01*
X227501476Y-127356890D01*
X227380155Y-127127000D01*
X226187000Y-127127000D01*
X226187000Y-127147000D01*
X225933000Y-127147000D01*
X225933000Y-127127000D01*
X224739845Y-127127000D01*
X224618524Y-127356890D01*
X224788355Y-127766924D01*
X225178642Y-128195183D01*
X225308478Y-128256157D01*
X224989375Y-128469375D01*
X224661161Y-128960582D01*
X224545908Y-129540000D01*
X223764092Y-129540000D01*
X223648839Y-128960582D01*
X223320625Y-128469375D01*
X223001522Y-128256157D01*
X223131358Y-128195183D01*
X223521645Y-127766924D01*
X223691476Y-127356890D01*
X223570155Y-127127000D01*
X222377000Y-127127000D01*
X222377000Y-127147000D01*
X222123000Y-127147000D01*
X222123000Y-127127000D01*
X222103000Y-127127000D01*
X222103000Y-126873000D01*
X222123000Y-126873000D01*
X222123000Y-126853000D01*
X222377000Y-126853000D01*
X222377000Y-126873000D01*
X223570155Y-126873000D01*
X223691476Y-126643110D01*
X223521645Y-126233076D01*
X223131358Y-125804817D01*
X223001522Y-125743843D01*
X223320625Y-125530625D01*
X223648839Y-125039418D01*
X223764092Y-124460000D01*
X223648839Y-123880582D01*
X223468042Y-123610000D01*
X224562560Y-123610000D01*
X224562560Y-125310000D01*
X224611843Y-125557765D01*
X224752191Y-125767809D01*
X224962235Y-125908157D01*
X225065708Y-125928739D01*
X224788355Y-126233076D01*
X224618524Y-126643110D01*
X224739845Y-126873000D01*
X225933000Y-126873000D01*
X225933000Y-126853000D01*
X226187000Y-126853000D01*
X226187000Y-126873000D01*
X227380155Y-126873000D01*
X227422742Y-126792302D01*
X231970856Y-126792302D01*
X231998638Y-127347368D01*
X232157603Y-127731143D01*
X232399787Y-127800608D01*
X233200395Y-127000000D01*
X233559605Y-127000000D01*
X234360213Y-127800608D01*
X234602397Y-127731143D01*
X234789144Y-127207698D01*
X234761362Y-126652632D01*
X234602397Y-126268857D01*
X234360213Y-126199392D01*
X233559605Y-127000000D01*
X233200395Y-127000000D01*
X232399787Y-126199392D01*
X232157603Y-126268857D01*
X231970856Y-126792302D01*
X227422742Y-126792302D01*
X227501476Y-126643110D01*
X227331645Y-126233076D01*
X227054292Y-125928739D01*
X227157765Y-125908157D01*
X227367809Y-125767809D01*
X227508157Y-125557765D01*
X227557440Y-125310000D01*
X227557440Y-123610000D01*
X227508157Y-123362235D01*
X227367809Y-123152191D01*
X227157765Y-123011843D01*
X226910000Y-122962560D01*
X225210000Y-122962560D01*
X224962235Y-123011843D01*
X224752191Y-123152191D01*
X224611843Y-123362235D01*
X224562560Y-123610000D01*
X223468042Y-123610000D01*
X223320625Y-123389375D01*
X223022239Y-123190000D01*
X223320625Y-122990625D01*
X223648839Y-122499418D01*
X223764092Y-121920000D01*
X223648839Y-121340582D01*
X223320625Y-120849375D01*
X223022239Y-120650000D01*
X223320625Y-120450625D01*
X223648839Y-119959418D01*
X223764092Y-119380000D01*
X223648839Y-118800582D01*
X223320625Y-118309375D01*
X223022239Y-118110000D01*
X223320625Y-117910625D01*
X223648839Y-117419418D01*
X223764092Y-116840000D01*
X223648839Y-116260582D01*
X223320625Y-115769375D01*
X223022239Y-115570000D01*
X223320625Y-115370625D01*
X223648839Y-114879418D01*
X223764092Y-114300000D01*
X223648839Y-113720582D01*
X223320625Y-113229375D01*
X223022239Y-113030000D01*
X223320625Y-112830625D01*
X223648839Y-112339418D01*
X223764092Y-111760000D01*
X223648839Y-111180582D01*
X223320625Y-110689375D01*
X223022239Y-110490000D01*
X223320625Y-110290625D01*
X223648839Y-109799418D01*
X223764092Y-109220000D01*
X223648839Y-108640582D01*
X223320625Y-108149375D01*
X223022239Y-107950000D01*
X223320625Y-107750625D01*
X223648839Y-107259418D01*
X223764092Y-106680000D01*
X223648839Y-106100582D01*
X223320625Y-105609375D01*
X223022239Y-105410000D01*
X223320625Y-105210625D01*
X223648839Y-104719418D01*
X223764092Y-104140000D01*
X223648839Y-103560582D01*
X223320625Y-103069375D01*
X223022239Y-102870000D01*
X223320625Y-102670625D01*
X223648839Y-102179418D01*
X223764092Y-101600000D01*
X223648839Y-101020582D01*
X223320625Y-100529375D01*
X223022239Y-100330000D01*
X223320625Y-100130625D01*
X223648839Y-99639418D01*
X223764092Y-99060000D01*
X223648839Y-98480582D01*
X223320625Y-97989375D01*
X223022239Y-97790000D01*
X223320625Y-97590625D01*
X223648839Y-97099418D01*
X223764092Y-96520000D01*
X223648839Y-95940582D01*
X223320625Y-95449375D01*
X223022239Y-95250000D01*
X223320625Y-95050625D01*
X223648839Y-94559418D01*
X223764092Y-93980000D01*
X223648839Y-93400582D01*
X223320625Y-92909375D01*
X223022239Y-92710000D01*
X223320625Y-92510625D01*
X223648839Y-92019418D01*
X223764092Y-91440000D01*
X223648839Y-90860582D01*
X223320625Y-90369375D01*
X223022239Y-90170000D01*
X223320625Y-89970625D01*
X223648839Y-89479418D01*
X223764092Y-88900000D01*
X223648839Y-88320582D01*
X223320625Y-87829375D01*
X223022239Y-87630000D01*
X223320625Y-87430625D01*
X223648839Y-86939418D01*
X223764092Y-86360000D01*
X223648839Y-85780582D01*
X223320625Y-85289375D01*
X223022239Y-85090000D01*
X223320625Y-84890625D01*
X223648839Y-84399418D01*
X223764092Y-83820000D01*
X223648839Y-83240582D01*
X223320625Y-82749375D01*
X223302381Y-82737184D01*
X223347765Y-82728157D01*
X223557809Y-82587809D01*
X223698157Y-82377765D01*
X223747440Y-82130000D01*
X223747440Y-80430000D01*
X223698157Y-80182235D01*
X223557809Y-79972191D01*
X223347765Y-79831843D01*
X223100000Y-79782560D01*
X221400000Y-79782560D01*
X221152235Y-79831843D01*
X220942191Y-79972191D01*
X220850962Y-80108723D01*
X220752239Y-80010000D01*
X221096086Y-79666153D01*
X221345000Y-79065222D01*
X221345000Y-78545484D01*
X227622100Y-78545484D01*
X227622100Y-78934516D01*
X227770977Y-79293936D01*
X227812500Y-79335459D01*
X227812501Y-116244540D01*
X227770977Y-116286064D01*
X227622100Y-116645484D01*
X227622100Y-117034516D01*
X227770977Y-117393936D01*
X228046064Y-117669023D01*
X228405484Y-117817900D01*
X228794516Y-117817900D01*
X229153936Y-117669023D01*
X229429023Y-117393936D01*
X229577900Y-117034516D01*
X229577900Y-116645484D01*
X229429023Y-116286064D01*
X229387500Y-116244541D01*
X229387500Y-115158613D01*
X229675484Y-115277900D01*
X230064516Y-115277900D01*
X230423936Y-115129023D01*
X230699023Y-114853936D01*
X230847900Y-114494516D01*
X230847900Y-114105484D01*
X230699023Y-113746064D01*
X230657500Y-113704541D01*
X230657500Y-112618613D01*
X230945484Y-112737900D01*
X231334516Y-112737900D01*
X231693936Y-112589023D01*
X231969023Y-112313936D01*
X232033184Y-112159037D01*
X232195680Y-112551337D01*
X232588663Y-112944320D01*
X232795513Y-113030000D01*
X232588663Y-113115680D01*
X232195680Y-113508663D01*
X231983000Y-114022119D01*
X231983000Y-114577881D01*
X232195680Y-115091337D01*
X232588663Y-115484320D01*
X232795513Y-115570000D01*
X232588663Y-115655680D01*
X232195680Y-116048663D01*
X231983000Y-116562119D01*
X231983000Y-117117881D01*
X232195680Y-117631337D01*
X232588663Y-118024320D01*
X232795513Y-118110000D01*
X232588663Y-118195680D01*
X232195680Y-118588663D01*
X231983000Y-119102119D01*
X231983000Y-119657881D01*
X232195680Y-120171337D01*
X232588663Y-120564320D01*
X232795513Y-120650000D01*
X232588663Y-120735680D01*
X232195680Y-121128663D01*
X231983000Y-121642119D01*
X231983000Y-122197881D01*
X232195680Y-122711337D01*
X232588663Y-123104320D01*
X232795513Y-123190000D01*
X232588663Y-123275680D01*
X232195680Y-123668663D01*
X231983000Y-124182119D01*
X231983000Y-124737881D01*
X232195680Y-125251337D01*
X232588663Y-125644320D01*
X232779647Y-125723428D01*
X232648857Y-125777603D01*
X232579392Y-126019787D01*
X233380000Y-126820395D01*
X234180608Y-126019787D01*
X234111143Y-125777603D01*
X233970607Y-125727465D01*
X234171337Y-125644320D01*
X234564320Y-125251337D01*
X234777000Y-124737881D01*
X234777000Y-124182119D01*
X234564320Y-123668663D01*
X234171337Y-123275680D01*
X233964487Y-123190000D01*
X234171337Y-123104320D01*
X234564320Y-122711337D01*
X234777000Y-122197881D01*
X234777000Y-121642119D01*
X234564320Y-121128663D01*
X234171337Y-120735680D01*
X233964487Y-120650000D01*
X234171337Y-120564320D01*
X234564320Y-120171337D01*
X234777000Y-119657881D01*
X234777000Y-119102119D01*
X234564320Y-118588663D01*
X234171337Y-118195680D01*
X233964487Y-118110000D01*
X234171337Y-118024320D01*
X234564320Y-117631337D01*
X234777000Y-117117881D01*
X234777000Y-116562119D01*
X234564320Y-116048663D01*
X234171337Y-115655680D01*
X233964487Y-115570000D01*
X234171337Y-115484320D01*
X234564320Y-115091337D01*
X234777000Y-114577881D01*
X234777000Y-114022119D01*
X234564320Y-113508663D01*
X234171337Y-113115680D01*
X233964487Y-113030000D01*
X234171337Y-112944320D01*
X234564320Y-112551337D01*
X234777000Y-112037881D01*
X234777000Y-111482119D01*
X234564320Y-110968663D01*
X234171337Y-110575680D01*
X233964487Y-110490000D01*
X234171337Y-110404320D01*
X234564320Y-110011337D01*
X234777000Y-109497881D01*
X234777000Y-108942119D01*
X234564320Y-108428663D01*
X234171337Y-108035680D01*
X233964487Y-107950000D01*
X234171337Y-107864320D01*
X234564320Y-107471337D01*
X234777000Y-106957881D01*
X234777000Y-106402119D01*
X234564320Y-105888663D01*
X234171337Y-105495680D01*
X233964487Y-105410000D01*
X234171337Y-105324320D01*
X234564320Y-104931337D01*
X234777000Y-104417881D01*
X234777000Y-103862119D01*
X234564320Y-103348663D01*
X234171337Y-102955680D01*
X233964487Y-102870000D01*
X234171337Y-102784320D01*
X234564320Y-102391337D01*
X234777000Y-101877881D01*
X234777000Y-101322119D01*
X234564320Y-100808663D01*
X234171337Y-100415680D01*
X233964487Y-100330000D01*
X234171337Y-100244320D01*
X234564320Y-99851337D01*
X234777000Y-99337881D01*
X234777000Y-98782119D01*
X234564320Y-98268663D01*
X234171337Y-97875680D01*
X233964487Y-97790000D01*
X234171337Y-97704320D01*
X234564320Y-97311337D01*
X234777000Y-96797881D01*
X234777000Y-96242119D01*
X234564320Y-95728663D01*
X234171337Y-95335680D01*
X233964487Y-95250000D01*
X234171337Y-95164320D01*
X234564320Y-94771337D01*
X234777000Y-94257881D01*
X234777000Y-93702119D01*
X234564320Y-93188663D01*
X234171337Y-92795680D01*
X233964487Y-92710000D01*
X234171337Y-92624320D01*
X234564320Y-92231337D01*
X234777000Y-91717881D01*
X234777000Y-91162119D01*
X234564320Y-90648663D01*
X234171337Y-90255680D01*
X233964487Y-90170000D01*
X234171337Y-90084320D01*
X234564320Y-89691337D01*
X234777000Y-89177881D01*
X234777000Y-88622119D01*
X234564320Y-88108663D01*
X234171337Y-87715680D01*
X233964487Y-87630000D01*
X234171337Y-87544320D01*
X234564320Y-87151337D01*
X234777000Y-86637881D01*
X234777000Y-86082119D01*
X234564320Y-85568663D01*
X234171337Y-85175680D01*
X233964487Y-85090000D01*
X234171337Y-85004320D01*
X234564320Y-84611337D01*
X234777000Y-84097881D01*
X234777000Y-83542119D01*
X234564320Y-83028663D01*
X234171337Y-82635680D01*
X233964487Y-82550000D01*
X234171337Y-82464320D01*
X234564320Y-82071337D01*
X234777000Y-81557881D01*
X234777000Y-81002119D01*
X234564320Y-80488663D01*
X234171337Y-80095680D01*
X233657881Y-79883000D01*
X233102119Y-79883000D01*
X232588663Y-80095680D01*
X232195680Y-80488663D01*
X231983000Y-81002119D01*
X231983000Y-81557881D01*
X232195680Y-82071337D01*
X232588663Y-82464320D01*
X232795513Y-82550000D01*
X232588663Y-82635680D01*
X232195680Y-83028663D01*
X231983000Y-83542119D01*
X231983000Y-84097881D01*
X232195680Y-84611337D01*
X232588663Y-85004320D01*
X232795513Y-85090000D01*
X232588663Y-85175680D01*
X232195680Y-85568663D01*
X231983000Y-86082119D01*
X231983000Y-86637881D01*
X232195680Y-87151337D01*
X232588663Y-87544320D01*
X232795513Y-87630000D01*
X232588663Y-87715680D01*
X232195680Y-88108663D01*
X231983000Y-88622119D01*
X231983000Y-89177881D01*
X232195680Y-89691337D01*
X232588663Y-90084320D01*
X232795513Y-90170000D01*
X232588663Y-90255680D01*
X232195680Y-90648663D01*
X231983000Y-91162119D01*
X231983000Y-91717881D01*
X232195680Y-92231337D01*
X232588663Y-92624320D01*
X232795513Y-92710000D01*
X232588663Y-92795680D01*
X232195680Y-93188663D01*
X231983000Y-93702119D01*
X231983000Y-94257881D01*
X232195680Y-94771337D01*
X232588663Y-95164320D01*
X232795513Y-95250000D01*
X232588663Y-95335680D01*
X232195680Y-95728663D01*
X231983000Y-96242119D01*
X231983000Y-96797881D01*
X232195680Y-97311337D01*
X232588663Y-97704320D01*
X232795513Y-97790000D01*
X232588663Y-97875680D01*
X232195680Y-98268663D01*
X231983000Y-98782119D01*
X231983000Y-99337881D01*
X232195680Y-99851337D01*
X232588663Y-100244320D01*
X232795513Y-100330000D01*
X232588663Y-100415680D01*
X232195680Y-100808663D01*
X231983000Y-101322119D01*
X231983000Y-101877881D01*
X232195680Y-102391337D01*
X232588663Y-102784320D01*
X232795513Y-102870000D01*
X232588663Y-102955680D01*
X232195680Y-103348663D01*
X231983000Y-103862119D01*
X231983000Y-104417881D01*
X232195680Y-104931337D01*
X232588663Y-105324320D01*
X232795513Y-105410000D01*
X232588663Y-105495680D01*
X232195680Y-105888663D01*
X231983000Y-106402119D01*
X231983000Y-106957881D01*
X232195680Y-107471337D01*
X232588663Y-107864320D01*
X232795513Y-107950000D01*
X232588663Y-108035680D01*
X232195680Y-108428663D01*
X231983000Y-108942119D01*
X231983000Y-109497881D01*
X232195680Y-110011337D01*
X232588663Y-110404320D01*
X232795513Y-110490000D01*
X232588663Y-110575680D01*
X232195680Y-110968663D01*
X232033184Y-111360963D01*
X231969023Y-111206064D01*
X231927500Y-111164541D01*
X231927500Y-79335459D01*
X231969023Y-79293936D01*
X232117900Y-78934516D01*
X232117900Y-78545484D01*
X231969023Y-78186064D01*
X231693936Y-77910977D01*
X231334516Y-77762100D01*
X230945484Y-77762100D01*
X230586064Y-77910977D01*
X230505000Y-77992041D01*
X230423936Y-77910977D01*
X230064516Y-77762100D01*
X229675484Y-77762100D01*
X229316064Y-77910977D01*
X229235000Y-77992041D01*
X229153936Y-77910977D01*
X228794516Y-77762100D01*
X228405484Y-77762100D01*
X228046064Y-77910977D01*
X227770977Y-78186064D01*
X227622100Y-78545484D01*
X221345000Y-78545484D01*
X221345000Y-78414778D01*
X221096086Y-77813847D01*
X220752239Y-77470000D01*
X221096086Y-77126153D01*
X221345000Y-76525222D01*
X221345000Y-75874778D01*
X221096086Y-75273847D01*
X220636153Y-74813914D01*
X220035222Y-74565000D01*
X219384778Y-74565000D01*
X218783847Y-74813914D01*
X218440000Y-75157761D01*
X218341277Y-75059038D01*
X218477809Y-74967809D01*
X218618157Y-74757765D01*
X218667440Y-74510000D01*
X218667440Y-72810000D01*
X218618157Y-72562235D01*
X218477809Y-72352191D01*
X218267765Y-72211843D01*
X218020000Y-72162560D01*
X217957500Y-72162560D01*
X217957500Y-70811192D01*
X218766194Y-70002500D01*
X224194541Y-70002500D01*
X224236064Y-70044023D01*
X224595484Y-70192900D01*
X224984516Y-70192900D01*
X225343936Y-70044023D01*
X225385459Y-70002500D01*
X235893808Y-70002500D01*
X236702500Y-70811194D01*
X236702501Y-115492434D01*
X236702500Y-115492439D01*
X236702501Y-128944540D01*
X236660977Y-128986064D01*
X236512100Y-129345484D01*
X236512100Y-129734516D01*
X236660977Y-130093936D01*
X236936064Y-130369023D01*
X237295484Y-130517900D01*
X237684516Y-130517900D01*
X238043936Y-130369023D01*
X238319023Y-130093936D01*
X238467900Y-129734516D01*
X238467900Y-129345484D01*
X238319023Y-128986064D01*
X238277500Y-128944541D01*
X238277500Y-124555431D01*
X240765000Y-124555431D01*
X240765000Y-125444569D01*
X241105259Y-126266026D01*
X241733974Y-126894741D01*
X242555431Y-127235000D01*
X243444569Y-127235000D01*
X244266026Y-126894741D01*
X244894741Y-126266026D01*
X245235000Y-125444569D01*
X245235000Y-124555431D01*
X244894741Y-123733974D01*
X244266026Y-123105259D01*
X243444569Y-122765000D01*
X242555431Y-122765000D01*
X241733974Y-123105259D01*
X241105259Y-123733974D01*
X240765000Y-124555431D01*
X238277500Y-124555431D01*
X238277500Y-111756192D01*
X246227501Y-119706194D01*
X246227500Y-124983377D01*
X246214989Y-125026623D01*
X246227500Y-125138781D01*
X246227500Y-125172561D01*
X246236079Y-125215691D01*
X246249720Y-125337979D01*
X246266435Y-125368303D01*
X246273191Y-125402266D01*
X246341559Y-125504586D01*
X246362781Y-125543086D01*
X246384539Y-125568911D01*
X246447244Y-125662756D01*
X246484680Y-125687770D01*
X247266882Y-126616179D01*
X247223000Y-126722119D01*
X247223000Y-127277881D01*
X247435680Y-127791337D01*
X247828663Y-128184320D01*
X248035513Y-128270000D01*
X247828663Y-128355680D01*
X247435680Y-128748663D01*
X247223000Y-129262119D01*
X247223000Y-129817881D01*
X247435680Y-130331337D01*
X247828663Y-130724320D01*
X248342119Y-130937000D01*
X248897881Y-130937000D01*
X249411337Y-130724320D01*
X249804320Y-130331337D01*
X250017000Y-129817881D01*
X250017000Y-129262119D01*
X249804320Y-128748663D01*
X249411337Y-128355680D01*
X249204487Y-128270000D01*
X249411337Y-128184320D01*
X249804320Y-127791337D01*
X250017000Y-127277881D01*
X250017000Y-126722119D01*
X249804320Y-126208663D01*
X249411337Y-125815680D01*
X249204487Y-125730000D01*
X249411337Y-125644320D01*
X249804320Y-125251337D01*
X250017000Y-124737881D01*
X250017000Y-124182119D01*
X249804320Y-123668663D01*
X249411337Y-123275680D01*
X249204487Y-123190000D01*
X249411337Y-123104320D01*
X249804320Y-122711337D01*
X250017000Y-122197881D01*
X250017000Y-121642119D01*
X249804320Y-121128663D01*
X249411337Y-120735680D01*
X249204487Y-120650000D01*
X249411337Y-120564320D01*
X249804320Y-120171337D01*
X250017000Y-119657881D01*
X250017000Y-119102119D01*
X249804320Y-118588663D01*
X249411337Y-118195680D01*
X249204487Y-118110000D01*
X249411337Y-118024320D01*
X249804320Y-117631337D01*
X250017000Y-117117881D01*
X250017000Y-116562119D01*
X249804320Y-116048663D01*
X249411337Y-115655680D01*
X249204487Y-115570000D01*
X249411337Y-115484320D01*
X249804320Y-115091337D01*
X250017000Y-114577881D01*
X250017000Y-114022119D01*
X249804320Y-113508663D01*
X249411337Y-113115680D01*
X249204487Y-113030000D01*
X249411337Y-112944320D01*
X249804320Y-112551337D01*
X250017000Y-112037881D01*
X250017000Y-111482119D01*
X249804320Y-110968663D01*
X249411337Y-110575680D01*
X249204487Y-110490000D01*
X249411337Y-110404320D01*
X249804320Y-110011337D01*
X250017000Y-109497881D01*
X250017000Y-108942119D01*
X249804320Y-108428663D01*
X249411337Y-108035680D01*
X249204487Y-107950000D01*
X249411337Y-107864320D01*
X249804320Y-107471337D01*
X250017000Y-106957881D01*
X250017000Y-106402119D01*
X249804320Y-105888663D01*
X249411337Y-105495680D01*
X249204487Y-105410000D01*
X249411337Y-105324320D01*
X249804320Y-104931337D01*
X250017000Y-104417881D01*
X250017000Y-103862119D01*
X249804320Y-103348663D01*
X249411337Y-102955680D01*
X249204487Y-102870000D01*
X249411337Y-102784320D01*
X249804320Y-102391337D01*
X250017000Y-101877881D01*
X250017000Y-101322119D01*
X249804320Y-100808663D01*
X249411337Y-100415680D01*
X249204487Y-100330000D01*
X249411337Y-100244320D01*
X249804320Y-99851337D01*
X250017000Y-99337881D01*
X250017000Y-98782119D01*
X249804320Y-98268663D01*
X249411337Y-97875680D01*
X249204487Y-97790000D01*
X249411337Y-97704320D01*
X249804320Y-97311337D01*
X250017000Y-96797881D01*
X250017000Y-96242119D01*
X249804320Y-95728663D01*
X249411337Y-95335680D01*
X249204487Y-95250000D01*
X249411337Y-95164320D01*
X249804320Y-94771337D01*
X250017000Y-94257881D01*
X250017000Y-93702119D01*
X249804320Y-93188663D01*
X249411337Y-92795680D01*
X249204487Y-92710000D01*
X249411337Y-92624320D01*
X249804320Y-92231337D01*
X250017000Y-91717881D01*
X250017000Y-91162119D01*
X249804320Y-90648663D01*
X249411337Y-90255680D01*
X249204487Y-90170000D01*
X249411337Y-90084320D01*
X249804320Y-89691337D01*
X250017000Y-89177881D01*
X250017000Y-88622119D01*
X249804320Y-88108663D01*
X249411337Y-87715680D01*
X249204487Y-87630000D01*
X249411337Y-87544320D01*
X249804320Y-87151337D01*
X250017000Y-86637881D01*
X250017000Y-86082119D01*
X249804320Y-85568663D01*
X249411337Y-85175680D01*
X249220353Y-85096572D01*
X249351143Y-85042397D01*
X249420608Y-84800213D01*
X248620000Y-83999605D01*
X248605858Y-84013748D01*
X248426253Y-83834143D01*
X248440395Y-83820000D01*
X248799605Y-83820000D01*
X249600213Y-84620608D01*
X249842397Y-84551143D01*
X250029144Y-84027698D01*
X250001362Y-83472632D01*
X249842397Y-83088857D01*
X249600213Y-83019392D01*
X248799605Y-83820000D01*
X248440395Y-83820000D01*
X248426253Y-83805858D01*
X248605858Y-83626253D01*
X248620000Y-83640395D01*
X249420608Y-82839787D01*
X249351143Y-82597603D01*
X249227656Y-82553547D01*
X249351143Y-82502397D01*
X249420608Y-82260213D01*
X248620000Y-81459605D01*
X248605858Y-81473748D01*
X248426253Y-81294143D01*
X248440395Y-81280000D01*
X248799605Y-81280000D01*
X249600213Y-82080608D01*
X249842397Y-82011143D01*
X250029144Y-81487698D01*
X250001362Y-80932632D01*
X249842397Y-80548857D01*
X249600213Y-80479392D01*
X248799605Y-81280000D01*
X248440395Y-81280000D01*
X248426253Y-81265858D01*
X248605858Y-81086253D01*
X248620000Y-81100395D01*
X249420608Y-80299787D01*
X249351143Y-80057603D01*
X248827698Y-79870856D01*
X248272632Y-79898638D01*
X247888857Y-80057603D01*
X247819393Y-80299785D01*
X247802500Y-80282892D01*
X247802500Y-59767560D01*
X247817928Y-59689999D01*
X247802500Y-59612438D01*
X247756809Y-59382733D01*
X247582756Y-59122244D01*
X247517004Y-59078310D01*
X246356694Y-57918002D01*
X246312756Y-57852244D01*
X246052267Y-57678191D01*
X245822562Y-57632500D01*
X245822561Y-57632500D01*
X245745000Y-57617072D01*
X245667439Y-57632500D01*
X225385459Y-57632500D01*
X225343936Y-57590977D01*
X224984516Y-57442100D01*
X224595484Y-57442100D01*
X224236064Y-57590977D01*
X224194541Y-57632500D01*
X180417560Y-57632500D01*
X180339999Y-57617072D01*
X180262438Y-57632500D01*
X180032733Y-57678191D01*
X179772244Y-57852244D01*
X179728310Y-57917997D01*
X178568002Y-59078306D01*
X178502244Y-59122244D01*
X178328191Y-59382734D01*
X178288318Y-59583191D01*
X178267072Y-59690000D01*
X178282500Y-59767561D01*
X178282501Y-72400196D01*
X177999375Y-72589375D01*
X177786157Y-72908478D01*
X177725183Y-72778642D01*
X177296924Y-72388355D01*
X176886890Y-72218524D01*
X176657000Y-72339845D01*
X176657000Y-73533000D01*
X176677000Y-73533000D01*
X176677000Y-73787000D01*
X176657000Y-73787000D01*
X176657000Y-73807000D01*
X176403000Y-73807000D01*
X176403000Y-73787000D01*
X174117000Y-73787000D01*
X174117000Y-73807000D01*
X173863000Y-73807000D01*
X173863000Y-73787000D01*
X172669181Y-73787000D01*
X172548514Y-74016892D01*
X172794817Y-74541358D01*
X173084502Y-74805358D01*
X173063847Y-74813914D01*
X172603914Y-75273847D01*
X172355000Y-75874778D01*
X170735000Y-75874778D01*
X170735000Y-73303108D01*
X172548514Y-73303108D01*
X172669181Y-73533000D01*
X173863000Y-73533000D01*
X173863000Y-72339845D01*
X174117000Y-72339845D01*
X174117000Y-73533000D01*
X176403000Y-73533000D01*
X176403000Y-72339845D01*
X176173110Y-72218524D01*
X175763076Y-72388355D01*
X175334817Y-72778642D01*
X175260000Y-72937954D01*
X175185183Y-72778642D01*
X174756924Y-72388355D01*
X174346890Y-72218524D01*
X174117000Y-72339845D01*
X173863000Y-72339845D01*
X173633110Y-72218524D01*
X173223076Y-72388355D01*
X172794817Y-72778642D01*
X172548514Y-73303108D01*
X170735000Y-73303108D01*
X170735000Y-53555431D01*
X171765000Y-53555431D01*
X171765000Y-54444569D01*
X172105259Y-55266026D01*
X172733974Y-55894741D01*
X173555431Y-56235000D01*
X174444569Y-56235000D01*
X175266026Y-55894741D01*
X175894741Y-55266026D01*
X176235000Y-54444569D01*
X176235000Y-53555431D01*
X213765000Y-53555431D01*
X213765000Y-54444569D01*
X214105259Y-55266026D01*
X214733974Y-55894741D01*
X215555431Y-56235000D01*
X216444569Y-56235000D01*
X217266026Y-55894741D01*
X217894741Y-55266026D01*
X218235000Y-54444569D01*
X218235000Y-53555431D01*
X217894741Y-52733974D01*
X217266026Y-52105259D01*
X216444569Y-51765000D01*
X215555431Y-51765000D01*
X214733974Y-52105259D01*
X214105259Y-52733974D01*
X213765000Y-53555431D01*
X176235000Y-53555431D01*
X175894741Y-52733974D01*
X175266026Y-52105259D01*
X174444569Y-51765000D01*
X173555431Y-51765000D01*
X172733974Y-52105259D01*
X172105259Y-52733974D01*
X171765000Y-53555431D01*
X170735000Y-53555431D01*
X170735000Y-50735000D01*
X252265001Y-50735000D01*
X252265000Y-132265000D01*
X252265000Y-132265000D01*
G37*
X252265000Y-132265000D02*
X170735000Y-132265000D01*
X170735000Y-128755431D01*
X171765000Y-128755431D01*
X171765000Y-129644569D01*
X172105259Y-130466026D01*
X172733974Y-131094741D01*
X173555431Y-131435000D01*
X174444569Y-131435000D01*
X175266026Y-131094741D01*
X175894741Y-130466026D01*
X176235000Y-129644569D01*
X176235000Y-128755431D01*
X175894741Y-127933974D01*
X175266026Y-127305259D01*
X174444569Y-126965000D01*
X173555431Y-126965000D01*
X172733974Y-127305259D01*
X172105259Y-127933974D01*
X171765000Y-128755431D01*
X170735000Y-128755431D01*
X170735000Y-75874778D01*
X172355000Y-75874778D01*
X172355000Y-76525222D01*
X172603914Y-77126153D01*
X172947761Y-77470000D01*
X172603914Y-77813847D01*
X172355000Y-78414778D01*
X172355000Y-79065222D01*
X172603914Y-79666153D01*
X172947761Y-80010000D01*
X172603914Y-80353847D01*
X172355000Y-80954778D01*
X172355000Y-81605222D01*
X172603914Y-82206153D01*
X172947761Y-82550000D01*
X172603914Y-82893847D01*
X172355000Y-83494778D01*
X172355000Y-84145222D01*
X172603914Y-84746153D01*
X172947761Y-85090000D01*
X172603914Y-85433847D01*
X172355000Y-86034778D01*
X172355000Y-86685222D01*
X172603914Y-87286153D01*
X172947761Y-87630000D01*
X172603914Y-87973847D01*
X172355000Y-88574778D01*
X172355000Y-89225222D01*
X172603914Y-89826153D01*
X172947761Y-90170000D01*
X172603914Y-90513847D01*
X172355000Y-91114778D01*
X172355000Y-91765222D01*
X172603914Y-92366153D01*
X172947761Y-92710000D01*
X172603914Y-93053847D01*
X172355000Y-93654778D01*
X172355000Y-94305222D01*
X172603914Y-94906153D01*
X172947761Y-95250000D01*
X172603914Y-95593847D01*
X172355000Y-96194778D01*
X172355000Y-96845222D01*
X172603914Y-97446153D01*
X172947761Y-97790000D01*
X172603914Y-98133847D01*
X172355000Y-98734778D01*
X172355000Y-99385222D01*
X172603914Y-99986153D01*
X172947761Y-100330000D01*
X172603914Y-100673847D01*
X172355000Y-101274778D01*
X172355000Y-101925222D01*
X172603914Y-102526153D01*
X172947761Y-102870000D01*
X172603914Y-103213847D01*
X172355000Y-103814778D01*
X172355000Y-104465222D01*
X172603914Y-105066153D01*
X172947761Y-105410000D01*
X172603914Y-105753847D01*
X172355000Y-106354778D01*
X172355000Y-107005222D01*
X172603914Y-107606153D01*
X172947761Y-107950000D01*
X172603914Y-108293847D01*
X172355000Y-108894778D01*
X172355000Y-109545222D01*
X172603914Y-110146153D01*
X172947761Y-110490000D01*
X172603914Y-110833847D01*
X172355000Y-111434778D01*
X172355000Y-112085222D01*
X172603914Y-112686153D01*
X172947761Y-113030000D01*
X172603914Y-113373847D01*
X172355000Y-113974778D01*
X172355000Y-114625222D01*
X172603914Y-115226153D01*
X172947761Y-115570000D01*
X172603914Y-115913847D01*
X172355000Y-116514778D01*
X172355000Y-117165222D01*
X172603914Y-117766153D01*
X172947761Y-118110000D01*
X172603914Y-118453847D01*
X172355000Y-119054778D01*
X172355000Y-119705222D01*
X172603914Y-120306153D01*
X172947761Y-120650000D01*
X172603914Y-120993847D01*
X172355000Y-121594778D01*
X172355000Y-122245222D01*
X172603914Y-122846153D01*
X172947761Y-123190000D01*
X172603914Y-123533847D01*
X172355000Y-124134778D01*
X172355000Y-124785222D01*
X172603914Y-125386153D01*
X173063847Y-125846086D01*
X173664778Y-126095000D01*
X174315222Y-126095000D01*
X174916153Y-125846086D01*
X175260000Y-125502239D01*
X175603847Y-125846086D01*
X176204778Y-126095000D01*
X176855222Y-126095000D01*
X177456153Y-125846086D01*
X177800000Y-125502239D01*
X178027761Y-125730000D01*
X177683914Y-126073847D01*
X177435000Y-126674778D01*
X177435000Y-127325222D01*
X177683914Y-127926153D01*
X178027761Y-128270000D01*
X177683914Y-128613847D01*
X177435000Y-129214778D01*
X177435000Y-129865222D01*
X177683914Y-130466153D01*
X178143847Y-130926086D01*
X178744778Y-131175000D01*
X179395222Y-131175000D01*
X179996153Y-130926086D01*
X180340000Y-130582239D01*
X180683847Y-130926086D01*
X181284778Y-131175000D01*
X181935222Y-131175000D01*
X182536153Y-130926086D01*
X182880000Y-130582239D01*
X183223847Y-130926086D01*
X183824778Y-131175000D01*
X184475222Y-131175000D01*
X185076153Y-130926086D01*
X185420000Y-130582239D01*
X185763847Y-130926086D01*
X186364778Y-131175000D01*
X187015222Y-131175000D01*
X187616153Y-130926086D01*
X187960000Y-130582239D01*
X188303847Y-130926086D01*
X188904778Y-131175000D01*
X189555222Y-131175000D01*
X190156153Y-130926086D01*
X190500000Y-130582239D01*
X190843847Y-130926086D01*
X191444778Y-131175000D01*
X192095222Y-131175000D01*
X192696153Y-130926086D01*
X193040000Y-130582239D01*
X193383847Y-130926086D01*
X193984778Y-131175000D01*
X194635222Y-131175000D01*
X195236153Y-130926086D01*
X195580000Y-130582239D01*
X195923847Y-130926086D01*
X196524778Y-131175000D01*
X197175222Y-131175000D01*
X197776153Y-130926086D01*
X198120000Y-130582239D01*
X198463847Y-130926086D01*
X199064778Y-131175000D01*
X199715222Y-131175000D01*
X200316153Y-130926086D01*
X200660000Y-130582239D01*
X201003847Y-130926086D01*
X201604778Y-131175000D01*
X202255222Y-131175000D01*
X202856153Y-130926086D01*
X203200000Y-130582239D01*
X203543847Y-130926086D01*
X204144778Y-131175000D01*
X204795222Y-131175000D01*
X205396153Y-130926086D01*
X205740000Y-130582239D01*
X206083847Y-130926086D01*
X206684778Y-131175000D01*
X207335222Y-131175000D01*
X207936153Y-130926086D01*
X208280000Y-130582239D01*
X208623847Y-130926086D01*
X209224778Y-131175000D01*
X209875222Y-131175000D01*
X210476153Y-130926086D01*
X210820000Y-130582239D01*
X211163847Y-130926086D01*
X211764778Y-131175000D01*
X212415222Y-131175000D01*
X213016153Y-130926086D01*
X213360000Y-130582239D01*
X213703847Y-130926086D01*
X214304778Y-131175000D01*
X214955222Y-131175000D01*
X215556153Y-130926086D01*
X215900000Y-130582239D01*
X216243847Y-130926086D01*
X216844778Y-131175000D01*
X217495222Y-131175000D01*
X218096153Y-130926086D01*
X218440000Y-130582239D01*
X218783847Y-130926086D01*
X219384778Y-131175000D01*
X220035222Y-131175000D01*
X220636153Y-130926086D01*
X221088147Y-130474092D01*
X221179375Y-130610625D01*
X221670582Y-130938839D01*
X222103744Y-131025000D01*
X222396256Y-131025000D01*
X222829418Y-130938839D01*
X223320625Y-130610625D01*
X223648839Y-130119418D01*
X223764092Y-129540000D01*
X224545908Y-129540000D01*
X224661161Y-130119418D01*
X224989375Y-130610625D01*
X225480582Y-130938839D01*
X225913744Y-131025000D01*
X226206256Y-131025000D01*
X226639418Y-130938839D01*
X227130625Y-130610625D01*
X227458839Y-130119418D01*
X227574092Y-129540000D01*
X227518819Y-129262119D01*
X231983000Y-129262119D01*
X231983000Y-129817881D01*
X232195680Y-130331337D01*
X232588663Y-130724320D01*
X233102119Y-130937000D01*
X233657881Y-130937000D01*
X234171337Y-130724320D01*
X234564320Y-130331337D01*
X234777000Y-129817881D01*
X234777000Y-129262119D01*
X234564320Y-128748663D01*
X234171337Y-128355680D01*
X233980353Y-128276572D01*
X234111143Y-128222397D01*
X234180608Y-127980213D01*
X233380000Y-127179605D01*
X232579392Y-127980213D01*
X232648857Y-128222397D01*
X232789393Y-128272535D01*
X232588663Y-128355680D01*
X232195680Y-128748663D01*
X231983000Y-129262119D01*
X227518819Y-129262119D01*
X227458839Y-128960582D01*
X227130625Y-128469375D01*
X226811522Y-128256157D01*
X226941358Y-128195183D01*
X227331645Y-127766924D01*
X227501476Y-127356890D01*
X227380155Y-127127000D01*
X226187000Y-127127000D01*
X226187000Y-127147000D01*
X225933000Y-127147000D01*
X225933000Y-127127000D01*
X224739845Y-127127000D01*
X224618524Y-127356890D01*
X224788355Y-127766924D01*
X225178642Y-128195183D01*
X225308478Y-128256157D01*
X224989375Y-128469375D01*
X224661161Y-128960582D01*
X224545908Y-129540000D01*
X223764092Y-129540000D01*
X223648839Y-128960582D01*
X223320625Y-128469375D01*
X223001522Y-128256157D01*
X223131358Y-128195183D01*
X223521645Y-127766924D01*
X223691476Y-127356890D01*
X223570155Y-127127000D01*
X222377000Y-127127000D01*
X222377000Y-127147000D01*
X222123000Y-127147000D01*
X222123000Y-127127000D01*
X222103000Y-127127000D01*
X222103000Y-126873000D01*
X222123000Y-126873000D01*
X222123000Y-126853000D01*
X222377000Y-126853000D01*
X222377000Y-126873000D01*
X223570155Y-126873000D01*
X223691476Y-126643110D01*
X223521645Y-126233076D01*
X223131358Y-125804817D01*
X223001522Y-125743843D01*
X223320625Y-125530625D01*
X223648839Y-125039418D01*
X223764092Y-124460000D01*
X223648839Y-123880582D01*
X223468042Y-123610000D01*
X224562560Y-123610000D01*
X224562560Y-125310000D01*
X224611843Y-125557765D01*
X224752191Y-125767809D01*
X224962235Y-125908157D01*
X225065708Y-125928739D01*
X224788355Y-126233076D01*
X224618524Y-126643110D01*
X224739845Y-126873000D01*
X225933000Y-126873000D01*
X225933000Y-126853000D01*
X226187000Y-126853000D01*
X226187000Y-126873000D01*
X227380155Y-126873000D01*
X227422742Y-126792302D01*
X231970856Y-126792302D01*
X231998638Y-127347368D01*
X232157603Y-127731143D01*
X232399787Y-127800608D01*
X233200395Y-127000000D01*
X233559605Y-127000000D01*
X234360213Y-127800608D01*
X234602397Y-127731143D01*
X234789144Y-127207698D01*
X234761362Y-126652632D01*
X234602397Y-126268857D01*
X234360213Y-126199392D01*
X233559605Y-127000000D01*
X233200395Y-127000000D01*
X232399787Y-126199392D01*
X232157603Y-126268857D01*
X231970856Y-126792302D01*
X227422742Y-126792302D01*
X227501476Y-126643110D01*
X227331645Y-126233076D01*
X227054292Y-125928739D01*
X227157765Y-125908157D01*
X227367809Y-125767809D01*
X227508157Y-125557765D01*
X227557440Y-125310000D01*
X227557440Y-123610000D01*
X227508157Y-123362235D01*
X227367809Y-123152191D01*
X227157765Y-123011843D01*
X226910000Y-122962560D01*
X225210000Y-122962560D01*
X224962235Y-123011843D01*
X224752191Y-123152191D01*
X224611843Y-123362235D01*
X224562560Y-123610000D01*
X223468042Y-123610000D01*
X223320625Y-123389375D01*
X223022239Y-123190000D01*
X223320625Y-122990625D01*
X223648839Y-122499418D01*
X223764092Y-121920000D01*
X223648839Y-121340582D01*
X223320625Y-120849375D01*
X223022239Y-120650000D01*
X223320625Y-120450625D01*
X223648839Y-119959418D01*
X223764092Y-119380000D01*
X223648839Y-118800582D01*
X223320625Y-118309375D01*
X223022239Y-118110000D01*
X223320625Y-117910625D01*
X223648839Y-117419418D01*
X223764092Y-116840000D01*
X223648839Y-116260582D01*
X223320625Y-115769375D01*
X223022239Y-115570000D01*
X223320625Y-115370625D01*
X223648839Y-114879418D01*
X223764092Y-114300000D01*
X223648839Y-113720582D01*
X223320625Y-113229375D01*
X223022239Y-113030000D01*
X223320625Y-112830625D01*
X223648839Y-112339418D01*
X223764092Y-111760000D01*
X223648839Y-111180582D01*
X223320625Y-110689375D01*
X223022239Y-110490000D01*
X223320625Y-110290625D01*
X223648839Y-109799418D01*
X223764092Y-109220000D01*
X223648839Y-108640582D01*
X223320625Y-108149375D01*
X223022239Y-107950000D01*
X223320625Y-107750625D01*
X223648839Y-107259418D01*
X223764092Y-106680000D01*
X223648839Y-106100582D01*
X223320625Y-105609375D01*
X223022239Y-105410000D01*
X223320625Y-105210625D01*
X223648839Y-104719418D01*
X223764092Y-104140000D01*
X223648839Y-103560582D01*
X223320625Y-103069375D01*
X223022239Y-102870000D01*
X223320625Y-102670625D01*
X223648839Y-102179418D01*
X223764092Y-101600000D01*
X223648839Y-101020582D01*
X223320625Y-100529375D01*
X223022239Y-100330000D01*
X223320625Y-100130625D01*
X223648839Y-99639418D01*
X223764092Y-99060000D01*
X223648839Y-98480582D01*
X223320625Y-97989375D01*
X223022239Y-97790000D01*
X223320625Y-97590625D01*
X223648839Y-97099418D01*
X223764092Y-96520000D01*
X223648839Y-95940582D01*
X223320625Y-95449375D01*
X223022239Y-95250000D01*
X223320625Y-95050625D01*
X223648839Y-94559418D01*
X223764092Y-93980000D01*
X223648839Y-93400582D01*
X223320625Y-92909375D01*
X223022239Y-92710000D01*
X223320625Y-92510625D01*
X223648839Y-92019418D01*
X223764092Y-91440000D01*
X223648839Y-90860582D01*
X223320625Y-90369375D01*
X223022239Y-90170000D01*
X223320625Y-89970625D01*
X223648839Y-89479418D01*
X223764092Y-88900000D01*
X223648839Y-88320582D01*
X223320625Y-87829375D01*
X223022239Y-87630000D01*
X223320625Y-87430625D01*
X223648839Y-86939418D01*
X223764092Y-86360000D01*
X223648839Y-85780582D01*
X223320625Y-85289375D01*
X223022239Y-85090000D01*
X223320625Y-84890625D01*
X223648839Y-84399418D01*
X223764092Y-83820000D01*
X223648839Y-83240582D01*
X223320625Y-82749375D01*
X223302381Y-82737184D01*
X223347765Y-82728157D01*
X223557809Y-82587809D01*
X223698157Y-82377765D01*
X223747440Y-82130000D01*
X223747440Y-80430000D01*
X223698157Y-80182235D01*
X223557809Y-79972191D01*
X223347765Y-79831843D01*
X223100000Y-79782560D01*
X221400000Y-79782560D01*
X221152235Y-79831843D01*
X220942191Y-79972191D01*
X220850962Y-80108723D01*
X220752239Y-80010000D01*
X221096086Y-79666153D01*
X221345000Y-79065222D01*
X221345000Y-78545484D01*
X227622100Y-78545484D01*
X227622100Y-78934516D01*
X227770977Y-79293936D01*
X227812500Y-79335459D01*
X227812501Y-116244540D01*
X227770977Y-116286064D01*
X227622100Y-116645484D01*
X227622100Y-117034516D01*
X227770977Y-117393936D01*
X228046064Y-117669023D01*
X228405484Y-117817900D01*
X228794516Y-117817900D01*
X229153936Y-117669023D01*
X229429023Y-117393936D01*
X229577900Y-117034516D01*
X229577900Y-116645484D01*
X229429023Y-116286064D01*
X229387500Y-116244541D01*
X229387500Y-115158613D01*
X229675484Y-115277900D01*
X230064516Y-115277900D01*
X230423936Y-115129023D01*
X230699023Y-114853936D01*
X230847900Y-114494516D01*
X230847900Y-114105484D01*
X230699023Y-113746064D01*
X230657500Y-113704541D01*
X230657500Y-112618613D01*
X230945484Y-112737900D01*
X231334516Y-112737900D01*
X231693936Y-112589023D01*
X231969023Y-112313936D01*
X232033184Y-112159037D01*
X232195680Y-112551337D01*
X232588663Y-112944320D01*
X232795513Y-113030000D01*
X232588663Y-113115680D01*
X232195680Y-113508663D01*
X231983000Y-114022119D01*
X231983000Y-114577881D01*
X232195680Y-115091337D01*
X232588663Y-115484320D01*
X232795513Y-115570000D01*
X232588663Y-115655680D01*
X232195680Y-116048663D01*
X231983000Y-116562119D01*
X231983000Y-117117881D01*
X232195680Y-117631337D01*
X232588663Y-118024320D01*
X232795513Y-118110000D01*
X232588663Y-118195680D01*
X232195680Y-118588663D01*
X231983000Y-119102119D01*
X231983000Y-119657881D01*
X232195680Y-120171337D01*
X232588663Y-120564320D01*
X232795513Y-120650000D01*
X232588663Y-120735680D01*
X232195680Y-121128663D01*
X231983000Y-121642119D01*
X231983000Y-122197881D01*
X232195680Y-122711337D01*
X232588663Y-123104320D01*
X232795513Y-123190000D01*
X232588663Y-123275680D01*
X232195680Y-123668663D01*
X231983000Y-124182119D01*
X231983000Y-124737881D01*
X232195680Y-125251337D01*
X232588663Y-125644320D01*
X232779647Y-125723428D01*
X232648857Y-125777603D01*
X232579392Y-126019787D01*
X233380000Y-126820395D01*
X234180608Y-126019787D01*
X234111143Y-125777603D01*
X233970607Y-125727465D01*
X234171337Y-125644320D01*
X234564320Y-125251337D01*
X234777000Y-124737881D01*
X234777000Y-124182119D01*
X234564320Y-123668663D01*
X234171337Y-123275680D01*
X233964487Y-123190000D01*
X234171337Y-123104320D01*
X234564320Y-122711337D01*
X234777000Y-122197881D01*
X234777000Y-121642119D01*
X234564320Y-121128663D01*
X234171337Y-120735680D01*
X233964487Y-120650000D01*
X234171337Y-120564320D01*
X234564320Y-120171337D01*
X234777000Y-119657881D01*
X234777000Y-119102119D01*
X234564320Y-118588663D01*
X234171337Y-118195680D01*
X233964487Y-118110000D01*
X234171337Y-118024320D01*
X234564320Y-117631337D01*
X234777000Y-117117881D01*
X234777000Y-116562119D01*
X234564320Y-116048663D01*
X234171337Y-115655680D01*
X233964487Y-115570000D01*
X234171337Y-115484320D01*
X234564320Y-115091337D01*
X234777000Y-114577881D01*
X234777000Y-114022119D01*
X234564320Y-113508663D01*
X234171337Y-113115680D01*
X233964487Y-113030000D01*
X234171337Y-112944320D01*
X234564320Y-112551337D01*
X234777000Y-112037881D01*
X234777000Y-111482119D01*
X234564320Y-110968663D01*
X234171337Y-110575680D01*
X233964487Y-110490000D01*
X234171337Y-110404320D01*
X234564320Y-110011337D01*
X234777000Y-109497881D01*
X234777000Y-108942119D01*
X234564320Y-108428663D01*
X234171337Y-108035680D01*
X233964487Y-107950000D01*
X234171337Y-107864320D01*
X234564320Y-107471337D01*
X234777000Y-106957881D01*
X234777000Y-106402119D01*
X234564320Y-105888663D01*
X234171337Y-105495680D01*
X233964487Y-105410000D01*
X234171337Y-105324320D01*
X234564320Y-104931337D01*
X234777000Y-104417881D01*
X234777000Y-103862119D01*
X234564320Y-103348663D01*
X234171337Y-102955680D01*
X233964487Y-102870000D01*
X234171337Y-102784320D01*
X234564320Y-102391337D01*
X234777000Y-101877881D01*
X234777000Y-101322119D01*
X234564320Y-100808663D01*
X234171337Y-100415680D01*
X233964487Y-100330000D01*
X234171337Y-100244320D01*
X234564320Y-99851337D01*
X234777000Y-99337881D01*
X234777000Y-98782119D01*
X234564320Y-98268663D01*
X234171337Y-97875680D01*
X233964487Y-97790000D01*
X234171337Y-97704320D01*
X234564320Y-97311337D01*
X234777000Y-96797881D01*
X234777000Y-96242119D01*
X234564320Y-95728663D01*
X234171337Y-95335680D01*
X233964487Y-95250000D01*
X234171337Y-95164320D01*
X234564320Y-94771337D01*
X234777000Y-94257881D01*
X234777000Y-93702119D01*
X234564320Y-93188663D01*
X234171337Y-92795680D01*
X233964487Y-92710000D01*
X234171337Y-92624320D01*
X234564320Y-92231337D01*
X234777000Y-91717881D01*
X234777000Y-91162119D01*
X234564320Y-90648663D01*
X234171337Y-90255680D01*
X233964487Y-90170000D01*
X234171337Y-90084320D01*
X234564320Y-89691337D01*
X234777000Y-89177881D01*
X234777000Y-88622119D01*
X234564320Y-88108663D01*
X234171337Y-87715680D01*
X233964487Y-87630000D01*
X234171337Y-87544320D01*
X234564320Y-87151337D01*
X234777000Y-86637881D01*
X234777000Y-86082119D01*
X234564320Y-85568663D01*
X234171337Y-85175680D01*
X233964487Y-85090000D01*
X234171337Y-85004320D01*
X234564320Y-84611337D01*
X234777000Y-84097881D01*
X234777000Y-83542119D01*
X234564320Y-83028663D01*
X234171337Y-82635680D01*
X233964487Y-82550000D01*
X234171337Y-82464320D01*
X234564320Y-82071337D01*
X234777000Y-81557881D01*
X234777000Y-81002119D01*
X234564320Y-80488663D01*
X234171337Y-80095680D01*
X233657881Y-79883000D01*
X233102119Y-79883000D01*
X232588663Y-80095680D01*
X232195680Y-80488663D01*
X231983000Y-81002119D01*
X231983000Y-81557881D01*
X232195680Y-82071337D01*
X232588663Y-82464320D01*
X232795513Y-82550000D01*
X232588663Y-82635680D01*
X232195680Y-83028663D01*
X231983000Y-83542119D01*
X231983000Y-84097881D01*
X232195680Y-84611337D01*
X232588663Y-85004320D01*
X232795513Y-85090000D01*
X232588663Y-85175680D01*
X232195680Y-85568663D01*
X231983000Y-86082119D01*
X231983000Y-86637881D01*
X232195680Y-87151337D01*
X232588663Y-87544320D01*
X232795513Y-87630000D01*
X232588663Y-87715680D01*
X232195680Y-88108663D01*
X231983000Y-88622119D01*
X231983000Y-89177881D01*
X232195680Y-89691337D01*
X232588663Y-90084320D01*
X232795513Y-90170000D01*
X232588663Y-90255680D01*
X232195680Y-90648663D01*
X231983000Y-91162119D01*
X231983000Y-91717881D01*
X232195680Y-92231337D01*
X232588663Y-92624320D01*
X232795513Y-92710000D01*
X232588663Y-92795680D01*
X232195680Y-93188663D01*
X231983000Y-93702119D01*
X231983000Y-94257881D01*
X232195680Y-94771337D01*
X232588663Y-95164320D01*
X232795513Y-95250000D01*
X232588663Y-95335680D01*
X232195680Y-95728663D01*
X231983000Y-96242119D01*
X231983000Y-96797881D01*
X232195680Y-97311337D01*
X232588663Y-97704320D01*
X232795513Y-97790000D01*
X232588663Y-97875680D01*
X232195680Y-98268663D01*
X231983000Y-98782119D01*
X231983000Y-99337881D01*
X232195680Y-99851337D01*
X232588663Y-100244320D01*
X232795513Y-100330000D01*
X232588663Y-100415680D01*
X232195680Y-100808663D01*
X231983000Y-101322119D01*
X231983000Y-101877881D01*
X232195680Y-102391337D01*
X232588663Y-102784320D01*
X232795513Y-102870000D01*
X232588663Y-102955680D01*
X232195680Y-103348663D01*
X231983000Y-103862119D01*
X231983000Y-104417881D01*
X232195680Y-104931337D01*
X232588663Y-105324320D01*
X232795513Y-105410000D01*
X232588663Y-105495680D01*
X232195680Y-105888663D01*
X231983000Y-106402119D01*
X231983000Y-106957881D01*
X232195680Y-107471337D01*
X232588663Y-107864320D01*
X232795513Y-107950000D01*
X232588663Y-108035680D01*
X232195680Y-108428663D01*
X231983000Y-108942119D01*
X231983000Y-109497881D01*
X232195680Y-110011337D01*
X232588663Y-110404320D01*
X232795513Y-110490000D01*
X232588663Y-110575680D01*
X232195680Y-110968663D01*
X232033184Y-111360963D01*
X231969023Y-111206064D01*
X231927500Y-111164541D01*
X231927500Y-79335459D01*
X231969023Y-79293936D01*
X232117900Y-78934516D01*
X232117900Y-78545484D01*
X231969023Y-78186064D01*
X231693936Y-77910977D01*
X231334516Y-77762100D01*
X230945484Y-77762100D01*
X230586064Y-77910977D01*
X230505000Y-77992041D01*
X230423936Y-77910977D01*
X230064516Y-77762100D01*
X229675484Y-77762100D01*
X229316064Y-77910977D01*
X229235000Y-77992041D01*
X229153936Y-77910977D01*
X228794516Y-77762100D01*
X228405484Y-77762100D01*
X228046064Y-77910977D01*
X227770977Y-78186064D01*
X227622100Y-78545484D01*
X221345000Y-78545484D01*
X221345000Y-78414778D01*
X221096086Y-77813847D01*
X220752239Y-77470000D01*
X221096086Y-77126153D01*
X221345000Y-76525222D01*
X221345000Y-75874778D01*
X221096086Y-75273847D01*
X220636153Y-74813914D01*
X220035222Y-74565000D01*
X219384778Y-74565000D01*
X218783847Y-74813914D01*
X218440000Y-75157761D01*
X218341277Y-75059038D01*
X218477809Y-74967809D01*
X218618157Y-74757765D01*
X218667440Y-74510000D01*
X218667440Y-72810000D01*
X218618157Y-72562235D01*
X218477809Y-72352191D01*
X218267765Y-72211843D01*
X218020000Y-72162560D01*
X217957500Y-72162560D01*
X217957500Y-70811192D01*
X218766194Y-70002500D01*
X224194541Y-70002500D01*
X224236064Y-70044023D01*
X224595484Y-70192900D01*
X224984516Y-70192900D01*
X225343936Y-70044023D01*
X225385459Y-70002500D01*
X235893808Y-70002500D01*
X236702500Y-70811194D01*
X236702501Y-115492434D01*
X236702500Y-115492439D01*
X236702501Y-128944540D01*
X236660977Y-128986064D01*
X236512100Y-129345484D01*
X236512100Y-129734516D01*
X236660977Y-130093936D01*
X236936064Y-130369023D01*
X237295484Y-130517900D01*
X237684516Y-130517900D01*
X238043936Y-130369023D01*
X238319023Y-130093936D01*
X238467900Y-129734516D01*
X238467900Y-129345484D01*
X238319023Y-128986064D01*
X238277500Y-128944541D01*
X238277500Y-124555431D01*
X240765000Y-124555431D01*
X240765000Y-125444569D01*
X241105259Y-126266026D01*
X241733974Y-126894741D01*
X242555431Y-127235000D01*
X243444569Y-127235000D01*
X244266026Y-126894741D01*
X244894741Y-126266026D01*
X245235000Y-125444569D01*
X245235000Y-124555431D01*
X244894741Y-123733974D01*
X244266026Y-123105259D01*
X243444569Y-122765000D01*
X242555431Y-122765000D01*
X241733974Y-123105259D01*
X241105259Y-123733974D01*
X240765000Y-124555431D01*
X238277500Y-124555431D01*
X238277500Y-111756192D01*
X246227501Y-119706194D01*
X246227500Y-124983377D01*
X246214989Y-125026623D01*
X246227500Y-125138781D01*
X246227500Y-125172561D01*
X246236079Y-125215691D01*
X246249720Y-125337979D01*
X246266435Y-125368303D01*
X246273191Y-125402266D01*
X246341559Y-125504586D01*
X246362781Y-125543086D01*
X246384539Y-125568911D01*
X246447244Y-125662756D01*
X246484680Y-125687770D01*
X247266882Y-126616179D01*
X247223000Y-126722119D01*
X247223000Y-127277881D01*
X247435680Y-127791337D01*
X247828663Y-128184320D01*
X248035513Y-128270000D01*
X247828663Y-128355680D01*
X247435680Y-128748663D01*
X247223000Y-129262119D01*
X247223000Y-129817881D01*
X247435680Y-130331337D01*
X247828663Y-130724320D01*
X248342119Y-130937000D01*
X248897881Y-130937000D01*
X249411337Y-130724320D01*
X249804320Y-130331337D01*
X250017000Y-129817881D01*
X250017000Y-129262119D01*
X249804320Y-128748663D01*
X249411337Y-128355680D01*
X249204487Y-128270000D01*
X249411337Y-128184320D01*
X249804320Y-127791337D01*
X250017000Y-127277881D01*
X250017000Y-126722119D01*
X249804320Y-126208663D01*
X249411337Y-125815680D01*
X249204487Y-125730000D01*
X249411337Y-125644320D01*
X249804320Y-125251337D01*
X250017000Y-124737881D01*
X250017000Y-124182119D01*
X249804320Y-123668663D01*
X249411337Y-123275680D01*
X249204487Y-123190000D01*
X249411337Y-123104320D01*
X249804320Y-122711337D01*
X250017000Y-122197881D01*
X250017000Y-121642119D01*
X249804320Y-121128663D01*
X249411337Y-120735680D01*
X249204487Y-120650000D01*
X249411337Y-120564320D01*
X249804320Y-120171337D01*
X250017000Y-119657881D01*
X250017000Y-119102119D01*
X249804320Y-118588663D01*
X249411337Y-118195680D01*
X249204487Y-118110000D01*
X249411337Y-118024320D01*
X249804320Y-117631337D01*
X250017000Y-117117881D01*
X250017000Y-116562119D01*
X249804320Y-116048663D01*
X249411337Y-115655680D01*
X249204487Y-115570000D01*
X249411337Y-115484320D01*
X249804320Y-115091337D01*
X250017000Y-114577881D01*
X250017000Y-114022119D01*
X249804320Y-113508663D01*
X249411337Y-113115680D01*
X249204487Y-113030000D01*
X249411337Y-112944320D01*
X249804320Y-112551337D01*
X250017000Y-112037881D01*
X250017000Y-111482119D01*
X249804320Y-110968663D01*
X249411337Y-110575680D01*
X249204487Y-110490000D01*
X249411337Y-110404320D01*
X249804320Y-110011337D01*
X250017000Y-109497881D01*
X250017000Y-108942119D01*
X249804320Y-108428663D01*
X249411337Y-108035680D01*
X249204487Y-107950000D01*
X249411337Y-107864320D01*
X249804320Y-107471337D01*
X250017000Y-106957881D01*
X250017000Y-106402119D01*
X249804320Y-105888663D01*
X249411337Y-105495680D01*
X249204487Y-105410000D01*
X249411337Y-105324320D01*
X249804320Y-104931337D01*
X250017000Y-104417881D01*
X250017000Y-103862119D01*
X249804320Y-103348663D01*
X249411337Y-102955680D01*
X249204487Y-102870000D01*
X249411337Y-102784320D01*
X249804320Y-102391337D01*
X250017000Y-101877881D01*
X250017000Y-101322119D01*
X249804320Y-100808663D01*
X249411337Y-100415680D01*
X249204487Y-100330000D01*
X249411337Y-100244320D01*
X249804320Y-99851337D01*
X250017000Y-99337881D01*
X250017000Y-98782119D01*
X249804320Y-98268663D01*
X249411337Y-97875680D01*
X249204487Y-97790000D01*
X249411337Y-97704320D01*
X249804320Y-97311337D01*
X250017000Y-96797881D01*
X250017000Y-96242119D01*
X249804320Y-95728663D01*
X249411337Y-95335680D01*
X249204487Y-95250000D01*
X249411337Y-95164320D01*
X249804320Y-94771337D01*
X250017000Y-94257881D01*
X250017000Y-93702119D01*
X249804320Y-93188663D01*
X249411337Y-92795680D01*
X249204487Y-92710000D01*
X249411337Y-92624320D01*
X249804320Y-92231337D01*
X250017000Y-91717881D01*
X250017000Y-91162119D01*
X249804320Y-90648663D01*
X249411337Y-90255680D01*
X249204487Y-90170000D01*
X249411337Y-90084320D01*
X249804320Y-89691337D01*
X250017000Y-89177881D01*
X250017000Y-88622119D01*
X249804320Y-88108663D01*
X249411337Y-87715680D01*
X249204487Y-87630000D01*
X249411337Y-87544320D01*
X249804320Y-87151337D01*
X250017000Y-86637881D01*
X250017000Y-86082119D01*
X249804320Y-85568663D01*
X249411337Y-85175680D01*
X249220353Y-85096572D01*
X249351143Y-85042397D01*
X249420608Y-84800213D01*
X248620000Y-83999605D01*
X248605858Y-84013748D01*
X248426253Y-83834143D01*
X248440395Y-83820000D01*
X248799605Y-83820000D01*
X249600213Y-84620608D01*
X249842397Y-84551143D01*
X250029144Y-84027698D01*
X250001362Y-83472632D01*
X249842397Y-83088857D01*
X249600213Y-83019392D01*
X248799605Y-83820000D01*
X248440395Y-83820000D01*
X248426253Y-83805858D01*
X248605858Y-83626253D01*
X248620000Y-83640395D01*
X249420608Y-82839787D01*
X249351143Y-82597603D01*
X249227656Y-82553547D01*
X249351143Y-82502397D01*
X249420608Y-82260213D01*
X248620000Y-81459605D01*
X248605858Y-81473748D01*
X248426253Y-81294143D01*
X248440395Y-81280000D01*
X248799605Y-81280000D01*
X249600213Y-82080608D01*
X249842397Y-82011143D01*
X250029144Y-81487698D01*
X250001362Y-80932632D01*
X249842397Y-80548857D01*
X249600213Y-80479392D01*
X248799605Y-81280000D01*
X248440395Y-81280000D01*
X248426253Y-81265858D01*
X248605858Y-81086253D01*
X248620000Y-81100395D01*
X249420608Y-80299787D01*
X249351143Y-80057603D01*
X248827698Y-79870856D01*
X248272632Y-79898638D01*
X247888857Y-80057603D01*
X247819393Y-80299785D01*
X247802500Y-80282892D01*
X247802500Y-59767560D01*
X247817928Y-59689999D01*
X247802500Y-59612438D01*
X247756809Y-59382733D01*
X247582756Y-59122244D01*
X247517004Y-59078310D01*
X246356694Y-57918002D01*
X246312756Y-57852244D01*
X246052267Y-57678191D01*
X245822562Y-57632500D01*
X245822561Y-57632500D01*
X245745000Y-57617072D01*
X245667439Y-57632500D01*
X225385459Y-57632500D01*
X225343936Y-57590977D01*
X224984516Y-57442100D01*
X224595484Y-57442100D01*
X224236064Y-57590977D01*
X224194541Y-57632500D01*
X180417560Y-57632500D01*
X180339999Y-57617072D01*
X180262438Y-57632500D01*
X180032733Y-57678191D01*
X179772244Y-57852244D01*
X179728310Y-57917997D01*
X178568002Y-59078306D01*
X178502244Y-59122244D01*
X178328191Y-59382734D01*
X178288318Y-59583191D01*
X178267072Y-59690000D01*
X178282500Y-59767561D01*
X178282501Y-72400196D01*
X177999375Y-72589375D01*
X177786157Y-72908478D01*
X177725183Y-72778642D01*
X177296924Y-72388355D01*
X176886890Y-72218524D01*
X176657000Y-72339845D01*
X176657000Y-73533000D01*
X176677000Y-73533000D01*
X176677000Y-73787000D01*
X176657000Y-73787000D01*
X176657000Y-73807000D01*
X176403000Y-73807000D01*
X176403000Y-73787000D01*
X174117000Y-73787000D01*
X174117000Y-73807000D01*
X173863000Y-73807000D01*
X173863000Y-73787000D01*
X172669181Y-73787000D01*
X172548514Y-74016892D01*
X172794817Y-74541358D01*
X173084502Y-74805358D01*
X173063847Y-74813914D01*
X172603914Y-75273847D01*
X172355000Y-75874778D01*
X170735000Y-75874778D01*
X170735000Y-73303108D01*
X172548514Y-73303108D01*
X172669181Y-73533000D01*
X173863000Y-73533000D01*
X173863000Y-72339845D01*
X174117000Y-72339845D01*
X174117000Y-73533000D01*
X176403000Y-73533000D01*
X176403000Y-72339845D01*
X176173110Y-72218524D01*
X175763076Y-72388355D01*
X175334817Y-72778642D01*
X175260000Y-72937954D01*
X175185183Y-72778642D01*
X174756924Y-72388355D01*
X174346890Y-72218524D01*
X174117000Y-72339845D01*
X173863000Y-72339845D01*
X173633110Y-72218524D01*
X173223076Y-72388355D01*
X172794817Y-72778642D01*
X172548514Y-73303108D01*
X170735000Y-73303108D01*
X170735000Y-53555431D01*
X171765000Y-53555431D01*
X171765000Y-54444569D01*
X172105259Y-55266026D01*
X172733974Y-55894741D01*
X173555431Y-56235000D01*
X174444569Y-56235000D01*
X175266026Y-55894741D01*
X175894741Y-55266026D01*
X176235000Y-54444569D01*
X176235000Y-53555431D01*
X213765000Y-53555431D01*
X213765000Y-54444569D01*
X214105259Y-55266026D01*
X214733974Y-55894741D01*
X215555431Y-56235000D01*
X216444569Y-56235000D01*
X217266026Y-55894741D01*
X217894741Y-55266026D01*
X218235000Y-54444569D01*
X218235000Y-53555431D01*
X217894741Y-52733974D01*
X217266026Y-52105259D01*
X216444569Y-51765000D01*
X215555431Y-51765000D01*
X214733974Y-52105259D01*
X214105259Y-52733974D01*
X213765000Y-53555431D01*
X176235000Y-53555431D01*
X175894741Y-52733974D01*
X175266026Y-52105259D01*
X174444569Y-51765000D01*
X173555431Y-51765000D01*
X172733974Y-52105259D01*
X172105259Y-52733974D01*
X171765000Y-53555431D01*
X170735000Y-53555431D01*
X170735000Y-50735000D01*
X252265001Y-50735000D01*
X252265000Y-132265000D01*
G04 #@! TD*
M02*
