M48
;DRILL file {KiCad 5.0.2-bee76a0~70~ubuntu16.04.1} date So 09 Dez 2018 14:21:37 CET
;FORMAT={3:3/ absolute / metric / suppress leading zeros}
FMAT,2
METRIC,TZ
T1C0.330
T2C1.000
T3C1.016
T4C3.200
%
G90
G05
T1
X224790Y-58420
X224790Y-69215
X227330Y-56515
X228600Y-56515
X228600Y-78740
X228600Y-116840
X229870Y-78740
X229870Y-114300
X231140Y-78740
X231140Y-111760
X231140Y-111760
X237490Y-129540
X248920Y-65405
X248920Y-66675
X248920Y-67945
X248920Y-69215
T2
X222250Y-81280
X222250Y-83820
X222250Y-86360
X222250Y-88900
X222250Y-91440
X222250Y-93980
X222250Y-96520
X222250Y-99060
X222250Y-101600
X222250Y-104140
X222250Y-106680
X222250Y-109220
X222250Y-111760
X222250Y-114300
X222250Y-116840
X222250Y-119380
X222250Y-121920
X222250Y-124460
X222250Y-127000
X222250Y-129540
X226060Y-124460
X226060Y-127000
X226060Y-129540
X173990Y-73660
X176530Y-73660
X179070Y-73660
X181610Y-73660
X184150Y-73660
X186690Y-73660
X189230Y-73660
X191770Y-73660
X194310Y-73660
X196850Y-73660
X199390Y-73660
X201930Y-73660
X204470Y-73660
X207010Y-73660
X209550Y-73660
X212090Y-73660
X214630Y-73660
X217170Y-73660
X173990Y-76200
X173990Y-78740
X173990Y-81280
X173990Y-83820
X173990Y-86360
X173990Y-88900
X173990Y-91440
X173990Y-93980
X173990Y-96520
X173990Y-99060
X173990Y-101600
X173990Y-104140
X173990Y-106680
X173990Y-109220
X173990Y-111760
X173990Y-114300
X173990Y-116840
X173990Y-119380
X173990Y-121920
X173990Y-124460
X176530Y-76200
X176530Y-78740
X176530Y-81280
X176530Y-83820
X176530Y-86360
X176530Y-88900
X176530Y-91440
X176530Y-93980
X176530Y-96520
X176530Y-99060
X176530Y-101600
X176530Y-104140
X176530Y-106680
X176530Y-109220
X176530Y-111760
X176530Y-114300
X176530Y-116840
X176530Y-119380
X176530Y-121920
X176530Y-124460
X179070Y-76200
X179070Y-78740
X179070Y-81280
X179070Y-83820
X179070Y-86360
X179070Y-88900
X179070Y-91440
X179070Y-93980
X179070Y-96520
X179070Y-99060
X179070Y-101600
X179070Y-104140
X179070Y-106680
X179070Y-109220
X179070Y-111760
X179070Y-114300
X179070Y-116840
X179070Y-119380
X179070Y-121920
X179070Y-124460
X179070Y-127000
X179070Y-129540
X181610Y-76200
X181610Y-78740
X181610Y-81280
X181610Y-83820
X181610Y-86360
X181610Y-88900
X181610Y-91440
X181610Y-93980
X181610Y-96520
X181610Y-99060
X181610Y-101600
X181610Y-104140
X181610Y-106680
X181610Y-109220
X181610Y-111760
X181610Y-114300
X181610Y-116840
X181610Y-119380
X181610Y-121920
X181610Y-124460
X181610Y-127000
X181610Y-129540
X184150Y-76200
X184150Y-78740
X184150Y-81280
X184150Y-83820
X184150Y-86360
X184150Y-88900
X184150Y-91440
X184150Y-93980
X184150Y-96520
X184150Y-99060
X184150Y-101600
X184150Y-104140
X184150Y-106680
X184150Y-109220
X184150Y-111760
X184150Y-114300
X184150Y-116840
X184150Y-119380
X184150Y-121920
X184150Y-124460
X184150Y-127000
X184150Y-129540
X186690Y-76200
X186690Y-78740
X186690Y-81280
X186690Y-83820
X186690Y-86360
X186690Y-88900
X186690Y-91440
X186690Y-93980
X186690Y-96520
X186690Y-99060
X186690Y-101600
X186690Y-104140
X186690Y-106680
X186690Y-109220
X186690Y-111760
X186690Y-114300
X186690Y-116840
X186690Y-119380
X186690Y-121920
X186690Y-124460
X186690Y-127000
X186690Y-129540
X189230Y-76200
X189230Y-78740
X189230Y-81280
X189230Y-83820
X189230Y-86360
X189230Y-88900
X189230Y-91440
X189230Y-93980
X189230Y-96520
X189230Y-99060
X189230Y-101600
X189230Y-104140
X189230Y-106680
X189230Y-109220
X189230Y-111760
X189230Y-114300
X189230Y-116840
X189230Y-119380
X189230Y-121920
X189230Y-124460
X189230Y-127000
X189230Y-129540
X191770Y-76200
X191770Y-78740
X191770Y-81280
X191770Y-83820
X191770Y-86360
X191770Y-88900
X191770Y-91440
X191770Y-93980
X191770Y-96520
X191770Y-99060
X191770Y-101600
X191770Y-104140
X191770Y-106680
X191770Y-109220
X191770Y-111760
X191770Y-114300
X191770Y-116840
X191770Y-119380
X191770Y-121920
X191770Y-124460
X191770Y-127000
X191770Y-129540
X194310Y-76200
X194310Y-78740
X194310Y-81280
X194310Y-83820
X194310Y-86360
X194310Y-88900
X194310Y-91440
X194310Y-93980
X194310Y-96520
X194310Y-99060
X194310Y-101600
X194310Y-104140
X194310Y-106680
X194310Y-109220
X194310Y-111760
X194310Y-114300
X194310Y-116840
X194310Y-119380
X194310Y-121920
X194310Y-124460
X194310Y-127000
X194310Y-129540
X196850Y-76200
X196850Y-78740
X196850Y-81280
X196850Y-83820
X196850Y-86360
X196850Y-88900
X196850Y-91440
X196850Y-93980
X196850Y-96520
X196850Y-99060
X196850Y-101600
X196850Y-104140
X196850Y-106680
X196850Y-109220
X196850Y-111760
X196850Y-114300
X196850Y-116840
X196850Y-119380
X196850Y-121920
X196850Y-124460
X196850Y-127000
X196850Y-129540
X199390Y-76200
X199390Y-78740
X199390Y-81280
X199390Y-83820
X199390Y-86360
X199390Y-88900
X199390Y-91440
X199390Y-93980
X199390Y-96520
X199390Y-99060
X199390Y-101600
X199390Y-104140
X199390Y-106680
X199390Y-109220
X199390Y-111760
X199390Y-114300
X199390Y-116840
X199390Y-119380
X199390Y-121920
X199390Y-124460
X199390Y-127000
X199390Y-129540
X201930Y-76200
X201930Y-78740
X201930Y-81280
X201930Y-83820
X201930Y-86360
X201930Y-88900
X201930Y-91440
X201930Y-93980
X201930Y-96520
X201930Y-99060
X201930Y-101600
X201930Y-104140
X201930Y-106680
X201930Y-109220
X201930Y-111760
X201930Y-114300
X201930Y-116840
X201930Y-119380
X201930Y-121920
X201930Y-124460
X201930Y-127000
X201930Y-129540
X204470Y-76200
X204470Y-78740
X204470Y-81280
X204470Y-83820
X204470Y-86360
X204470Y-88900
X204470Y-91440
X204470Y-93980
X204470Y-96520
X204470Y-99060
X204470Y-101600
X204470Y-104140
X204470Y-106680
X204470Y-109220
X204470Y-111760
X204470Y-114300
X204470Y-116840
X204470Y-119380
X204470Y-121920
X204470Y-124460
X204470Y-127000
X204470Y-129540
X207010Y-76200
X207010Y-78740
X207010Y-81280
X207010Y-83820
X207010Y-86360
X207010Y-88900
X207010Y-91440
X207010Y-93980
X207010Y-96520
X207010Y-99060
X207010Y-101600
X207010Y-104140
X207010Y-106680
X207010Y-109220
X207010Y-111760
X207010Y-114300
X207010Y-116840
X207010Y-119380
X207010Y-121920
X207010Y-124460
X207010Y-127000
X207010Y-129540
X209550Y-76200
X209550Y-78740
X209550Y-81280
X209550Y-83820
X209550Y-86360
X209550Y-88900
X209550Y-91440
X209550Y-93980
X209550Y-96520
X209550Y-99060
X209550Y-101600
X209550Y-104140
X209550Y-106680
X209550Y-109220
X209550Y-111760
X209550Y-114300
X209550Y-116840
X209550Y-119380
X209550Y-121920
X209550Y-124460
X209550Y-127000
X209550Y-129540
X212090Y-76200
X212090Y-78740
X212090Y-81280
X212090Y-83820
X212090Y-86360
X212090Y-88900
X212090Y-91440
X212090Y-93980
X212090Y-96520
X212090Y-99060
X212090Y-101600
X212090Y-104140
X212090Y-106680
X212090Y-109220
X212090Y-111760
X212090Y-114300
X212090Y-116840
X212090Y-119380
X212090Y-121920
X212090Y-124460
X212090Y-127000
X212090Y-129540
X214630Y-76200
X214630Y-78740
X214630Y-81280
X214630Y-83820
X214630Y-86360
X214630Y-88900
X214630Y-91440
X214630Y-93980
X214630Y-96520
X214630Y-99060
X214630Y-101600
X214630Y-104140
X214630Y-106680
X214630Y-109220
X214630Y-111760
X214630Y-114300
X214630Y-116840
X214630Y-119380
X214630Y-121920
X214630Y-124460
X214630Y-127000
X214630Y-129540
X217170Y-76200
X217170Y-78740
X217170Y-81280
X217170Y-83820
X217170Y-86360
X217170Y-88900
X217170Y-91440
X217170Y-93980
X217170Y-96520
X217170Y-99060
X217170Y-101600
X217170Y-104140
X217170Y-106680
X217170Y-109220
X217170Y-111760
X217170Y-114300
X217170Y-116840
X217170Y-119380
X217170Y-121920
X217170Y-124460
X217170Y-127000
X217170Y-129540
X219710Y-76200
X219710Y-78740
X219710Y-81280
X219710Y-83820
X219710Y-86360
X219710Y-88900
X219710Y-91440
X219710Y-93980
X219710Y-96520
X219710Y-99060
X219710Y-101600
X219710Y-104140
X219710Y-106680
X219710Y-109220
X219710Y-111760
X219710Y-114300
X219710Y-116840
X219710Y-119380
X219710Y-121920
X219710Y-124460
X219710Y-127000
X219710Y-129540
T3
X233380Y-81280
X233380Y-83820
X233380Y-86360
X233380Y-88900
X233380Y-91440
X233380Y-93980
X233380Y-96520
X233380Y-99060
X233380Y-101600
X233380Y-104140
X233380Y-106680
X233380Y-109220
X233380Y-111760
X233380Y-114300
X233380Y-116840
X233380Y-119380
X233380Y-121920
X233380Y-124460
X233380Y-127000
X233380Y-129540
X248620Y-81280
X248620Y-83820
X248620Y-86360
X248620Y-88900
X248620Y-91440
X248620Y-93980
X248620Y-96520
X248620Y-99060
X248620Y-101600
X248620Y-104140
X248620Y-106680
X248620Y-109220
X248620Y-111760
X248620Y-114300
X248620Y-116840
X248620Y-119380
X248620Y-121920
X248620Y-124460
X248620Y-127000
X248620Y-129540
T4
X174000Y-129200
X174000Y-54000
X216000Y-54000
X243000Y-125000
T0
M30
